<svg width="181" height="152" viewBox="0 0 181 152" fill="none" xmlns="http://www.w3.org/2000/svg">
<path d="M173.735 36.6372C174.449 37.4745 175.326 38.5389 175.853 40.354C176.109 41.8956 176.197 45.6124 176.118 51.5045L179.247 51.7699C179.304 46.6627 179.304 43.7055 179.247 42.8984C179.098 40.765 178.848 37.6909 177.782 35.6097C177.07 34.2221 176.126 33.0456 174.947 32.0801C174.331 31.0575 139.712 6.23608 138.87 5.37776C137.402 3.88971 133.446 1.97657 131.498 1.18967C129.536 0.402504 127.438 -0.00447614 125.316 3.71315e-05C125.316 3.71315e-05 125.316 3.71315e-05 125.311 3.71315e-05H125.243C123.743 0.00455041 122.252 0.185639 120.798 0.538205L18.1074 25.1421C18.0616 25.1512 18.0206 25.1602 17.9748 25.1738C15.4235 25.8024 13.009 26.879 10.8415 28.3442C8.7061 29.7871 6.80869 31.5465 5.21731 33.5591C3.61244 35.567 2.33663 37.8104 1.43121 40.2075C0.498514 42.6361 0.0137667 45.2098 0 47.8102C0 47.8147 0 47.8192 0 47.8237V47.8736L0.00476681 48.0725L0.576089 98.6915C0.585355 100.885 1.00152 103.06 1.79258 105.109C2.56537 107.072 3.72204 108.859 5.20355 110.374C6.67155 111.857 7.86131 113.123 9.25043 114.32C9.36029 114.364 11.4531 116.452 13.6605 118.69C19.7896 124.904 31.8148 137.729 36.4015 142.468C37.4875 143.59 40.3618 146.24 40.4367 146.26C41.6823 147.35 44.8389 149.358 47.9967 149.735C50.2592 150 49.5868 149.9 51.6883 150V146.373C47.3598 146.662 43.0868 144.176 38.8615 138.907L26.8911 126.272C25.4737 124.85 10.3856 109.355 9.62026 108.581C8.5732 107.51 6.60749 104.874 6.06317 103.481C5.46432 101.943 5.158 100.31 5.14874 98.6642C5.14874 98.6597 5.14874 98.6551 5.14874 98.6461L4.57716 47.9913L4.57266 47.8192C4.58643 45.7614 4.97057 43.7262 5.71132 41.7996C6.45207 39.8366 7.49914 37.996 8.81147 36.3542C10.1145 34.7034 11.6694 33.2605 13.4207 32.0801C15.0758 30.9584 16.914 30.1261 18.8527 29.6196L121.882 4.93436C121.882 4.93436 121.886 4.9344 121.891 4.92988C122.988 4.66307 124.118 4.52735 125.252 4.52284H125.32C126.848 4.52284 128.361 4.81228 129.779 5.37776C130.845 5.81077 135.961 8.64139 136.83 9.39033L158.843 25.4543L164.551 29.6196L172.684 35.6097L173.735 36.6372Z" fill="white"/>
<path fill-rule="evenodd" clip-rule="evenodd" d="M172.091 41.5917C169.899 39.1257 166.345 37.8962 162.091 38.9338L54.6879 65.1273C47.3266 66.9225 41.289 74.7234 41.3744 82.3774L41.9755 136.238C42.0172 139.971 43.4998 142.801 45.669 144.499C47.8363 146.196 50.9139 146.941 54.5022 146.066L161.906 119.872C169.267 118.077 175.304 110.276 175.219 102.622L174.618 48.7617C174.584 45.7331 173.6 43.3021 172.091 41.5917ZM160.95 34.2555C166.761 32.8382 172.201 34.4641 175.694 38.3966L175.698 38.4019C178.046 41.0616 179.388 44.6384 179.433 48.7078L180.034 102.569C180.144 112.441 172.604 122.22 163.047 124.551L55.6431 150.744C50.772 151.932 46.1461 150.989 42.7004 148.291C39.2566 145.594 37.2165 141.322 37.1603 136.292L36.5593 82.4311C36.4491 72.5582 43.989 62.7799 53.547 60.449C53.547 60.449 53.547 60.449 53.547 60.449L126.696 42.6094L160.95 34.2555C160.95 34.2555 160.95 34.2555 160.95 34.2555Z" fill="white"/>
<path fill-rule="evenodd" clip-rule="evenodd" d="M173.893 39.9954C175.822 42.1805 176.986 45.1849 177.025 48.7347L177.627 102.595C177.724 111.359 170.936 120.149 162.476 122.212L108.774 135.308L55.0726 148.405C46.6133 150.468 39.6657 145.028 39.5679 136.265L38.9669 82.4043C38.8691 73.6408 45.6578 64.8512 54.1174 62.7881L127.266 44.9485L161.521 36.5946C166.554 35.3671 171.051 36.7953 173.893 39.9954ZM51.1143 80.7692C51.1143 77.7341 53.6329 74.5551 56.6908 73.731C59.7485 72.907 62.2674 74.7284 62.2674 77.7638V79.6088L65.9848 78.607V76.7619C65.9848 73.7265 68.5037 70.5478 71.5614 69.7238C74.6193 68.8997 77.138 70.7211 77.138 73.7563C77.138 76.7916 74.6193 79.9706 71.5614 80.7944L69.7025 81.2954V84.9856L71.5614 84.4848C74.6193 83.6607 77.138 85.4821 77.138 88.5175C77.138 91.5526 74.6193 94.7315 71.5614 95.5553C68.5037 96.3794 65.9848 94.558 65.9848 91.5229V89.6778L62.2674 90.6794V92.5248C62.2674 95.5599 59.7485 98.7388 56.6908 99.5629C53.6329 100.387 51.1143 98.5652 51.1143 95.5301C51.1143 92.495 53.6329 89.3161 56.6908 88.492L58.5497 87.9912V84.3008L56.6908 84.8019C53.6329 85.6257 51.1143 83.8043 51.1143 80.7692ZM58.5497 78.7654C58.5497 77.7229 57.7411 77.1382 56.6909 77.4214C55.6407 77.7043 54.832 78.7248 54.832 79.7672C54.832 80.8097 55.6407 81.3945 56.6909 81.1115L58.5497 80.6107V78.7654ZM71.561 73.4139C72.6112 73.1309 73.4199 73.7156 73.4199 74.7581C73.4199 75.8006 72.6112 76.8213 71.561 77.1042L69.7021 77.605V75.76C69.7021 74.7175 70.5108 73.697 71.561 73.4139ZM65.985 82.2973L62.2676 83.299V86.9893L65.985 85.9874V82.2973ZM56.6909 92.1824L58.5497 91.6813V93.5264C58.5497 94.5689 57.7411 95.5896 56.6909 95.8725C55.6407 96.1554 54.832 95.5708 54.832 94.5283C54.832 93.4858 55.6407 92.4653 56.6909 92.1824ZM71.561 88.1748L69.7021 88.6759V90.5209C69.7021 91.5634 70.5108 92.1481 71.561 91.8652C72.6112 91.5822 73.4199 90.5616 73.4199 89.5191C73.4199 88.4766 72.6112 87.8919 71.561 88.1748ZM85.1473 120.377L81.6774 120.507C81.2406 123.228 79.9427 124.833 77.7838 125.322C74.8279 125.991 73.35 124.45 73.35 120.697C73.35 116.842 74.7894 114.588 77.668 113.936C78.7219 113.698 79.7242 113.702 80.675 113.949L81.2533 116.671L84.569 115.573L83.8749 110.873C82.8726 110.509 81.8574 110.315 80.8292 110.29C79.8012 110.266 78.7732 110.371 77.745 110.603C75.1492 111.191 73.0481 112.515 71.4418 114.576C69.8354 116.636 69.0322 119.067 69.0322 121.868C69.0322 124.721 69.8097 126.717 71.3646 127.855C72.9196 128.994 74.9308 129.284 77.3981 128.725C80.0197 128.131 81.9217 126.987 83.104 125.293C84.2862 123.598 84.9673 121.96 85.1473 120.377ZM119.151 118.882V115.721L116.606 116.297V108.008C116.606 105.875 116.015 104.441 114.833 103.706C113.65 102.972 112.275 102.782 110.708 103.137C109.294 103.457 108.099 104.081 107.122 105.009C106.146 105.937 105.4 107.051 104.886 108.349C104.475 107.106 103.755 106.286 102.727 105.889C101.699 105.493 100.543 105.44 99.2575 105.731C97.9724 106.022 96.8801 106.565 95.9806 107.36C95.0811 108.155 94.3614 109.089 93.8216 110.162V107.309L87.1518 108.82V112.02L89.6965 111.443V122.392L87.1133 122.977V126.139L97.06 123.886V120.724L93.8216 121.458V114.673C93.8472 113.484 94.1814 112.361 94.824 111.303C95.4664 110.245 96.4559 109.565 97.7925 109.262C98.8206 109.03 99.6238 109.188 100.202 109.738C100.78 110.288 101.069 111.386 101.069 113.031V119.816L100.144 120.026V123.187L107.778 121.458V118.297L105.195 118.882V112.135C105.22 110.947 105.548 109.819 106.178 108.751C106.807 107.683 107.803 106.995 109.166 106.686C110.219 106.447 111.035 106.603 111.614 107.154C112.192 107.704 112.481 108.801 112.481 110.446V117.231L111.517 117.449V120.611L119.151 118.882ZM140.702 114V110.839L138.157 111.415V88.0525L130.292 89.8339V92.9953L134.032 92.1482V100.9C133.518 100.091 132.792 99.5163 131.854 99.1762C130.916 98.8361 129.766 98.8204 128.403 99.129C125.73 99.7344 123.771 101.123 122.524 103.294C121.277 105.466 120.654 107.785 120.654 110.252C120.654 112.951 121.316 114.922 122.64 116.164C123.963 117.406 125.756 117.771 128.018 117.259C129.586 116.904 130.852 116.251 131.815 115.3C132.779 114.349 133.518 113.314 134.032 112.196V115.511L140.702 114ZM134.032 105.873V107.184C134.006 108.475 133.569 109.794 132.721 111.143C131.873 112.492 130.742 113.326 129.329 113.647C128.121 113.92 127.086 113.679 126.225 112.923C125.364 112.167 124.934 110.877 124.934 109.052C124.934 107.253 125.364 105.735 126.225 104.499C127.086 103.263 128.211 102.488 129.598 102.174C130.832 101.894 131.873 102.083 132.721 102.739C133.569 103.395 134.006 104.439 134.032 105.873ZM142.629 102.846V106.316L151.728 104.255V100.785L142.629 102.846ZM165.645 81.7299C164.823 81.7234 164.013 81.8104 163.217 81.9908C161.186 82.4509 159.58 83.4701 158.397 85.0485C157.215 86.6271 156.624 88.3545 156.624 90.2309V93.0837L154.349 93.5988V96.6445L156.624 96.1294V107.233L154.041 107.818V110.979L163.988 108.726V105.565L160.711 106.307V95.2037L165.067 94.2169V91.1712L160.711 92.158V88.7269C160.711 86.7221 161.507 85.5392 163.101 85.1783C163.64 85.056 164.167 85.0266 164.682 85.0901L165.491 87.7213L168.729 86.6021L167.997 82.3345C167.252 81.9378 166.468 81.7363 165.645 81.7299Z" fill="white"/>
</svg>
