<svg width="27" height="41" viewBox="0 0 27 41" fill="none" xmlns="http://www.w3.org/2000/svg">
<path d="M2.16939 37.3556V39.8697L0.789852 37.3556H0.222656V40.8475H0.751398V38.3433L2.13093 40.8475H2.69813V37.3556H2.16939Z" fill="white"/>
<path d="M7.66731 37.3556L7.05204 40.0693L6.3839 37.7247H5.90323L5.23509 40.0693L4.61983 37.3556H4.06225L4.95149 40.8475H5.48985L6.14357 38.6326L6.79728 40.8475H7.33564L8.22489 37.3556H7.66731Z" fill="white"/>
<path d="M9.49505 40.8475H10.0238V39.2412H11.3889V40.8475H11.9176V37.3556H11.3889V38.7224H10.0238V37.3556H9.49505V40.8475Z" fill="white"/>
<path d="M14.3227 37.3556L13.1547 40.8475H13.693L13.9718 39.9795H15.1735L15.4523 40.8475H15.9907L14.8226 37.3556H14.3227ZM14.5727 38.049L15.0149 39.4607H14.1305L14.5727 38.049Z" fill="white"/>
<path d="M19.9435 38.3732C19.7704 37.7147 19.2994 37.3157 18.5832 37.3157C17.7708 37.3157 17.0258 37.9193 17.0258 39.1015C17.0258 40.2838 17.7708 40.8874 18.5832 40.8874C19.2994 40.8874 19.7704 40.4883 19.9435 39.8298L19.4436 39.7001C19.2753 40.1441 19.0398 40.3686 18.5832 40.3686C18.016 40.3686 17.5641 39.9545 17.5641 39.1015C17.5641 38.2485 18.016 37.8345 18.5832 37.8345C19.0398 37.8345 19.2753 38.0589 19.4436 38.5029L19.9435 38.3732Z" fill="white"/>
<path d="M21.3195 37.3556V40.8475H21.8482V39.1364L23.1268 40.8475H23.8045L22.3385 38.917L23.694 37.3556H23.0499L21.8482 38.6975V37.3556H21.3195Z" fill="white"/>
<path d="M26.8364 37.9043C26.6586 37.5751 26.3702 37.3157 25.9087 37.3157C25.4185 37.3157 25.0291 37.7048 25.0291 38.2335C25.0291 39.311 26.4615 39.1614 26.4615 39.8448C26.4615 40.1541 26.25 40.3686 25.9472 40.3686C25.5627 40.3686 25.3656 40.0194 25.2694 39.6303L24.8368 39.9146C24.957 40.4733 25.356 40.8874 25.9472 40.8874C26.5529 40.8874 26.9999 40.4634 26.9999 39.8248C26.9999 38.7473 25.5579 38.882 25.5579 38.1936C25.5579 37.9891 25.6924 37.8145 25.9087 37.8145C26.1058 37.8145 26.2741 37.9342 26.4086 38.1986L26.8364 37.9043Z" fill="white"/>
<path fill-rule="evenodd" clip-rule="evenodd" d="M22.2686 4.97817L26.8463 0.227295L26.8463 34.4336L22.2686 29.6827L22.2686 4.97817Z" fill="url(#paint0_linear)"/>
<path fill-rule="evenodd" clip-rule="evenodd" d="M0.294922 0.4646L4.8728 4.97793L4.8728 29.6825L0.294922 34.4334L0.294922 0.4646Z" fill="url(#paint1_linear)"/>
<path fill-rule="evenodd" clip-rule="evenodd" d="M0.294593 34.4335L11.5103 23.0314L8.3058 19.7058L0.294789 27.5448L0.294593 34.4335Z" fill="url(#paint2_linear)"/>
<path fill-rule="evenodd" clip-rule="evenodd" d="M0.294922 6.87852V0.227295L26.8466 27.7824V34.4336L0.294922 6.87852Z" fill="url(#paint3_linear)"/>
<defs>
<linearGradient id="paint0_linear" x1="21.1277" y1="-1.66139" x2="21.7351" y2="33.0102" gradientUnits="userSpaceOnUse">
<stop stop-color="white" stop-opacity="0.86"/>
<stop offset="0.567704" stop-color="white"/>
</linearGradient>
<linearGradient id="paint1_linear" x1="0.903398" y1="2.41115" x2="0.903398" y2="34.5633" gradientUnits="userSpaceOnUse">
<stop stop-color="white"/>
<stop offset="1" stop-color="white" stop-opacity="0.8"/>
</linearGradient>
<linearGradient id="paint2_linear" x1="2.40128" y1="28.8965" x2="11.1871" y2="20.3927" gradientUnits="userSpaceOnUse">
<stop stop-color="white"/>
<stop offset="1" stop-color="white" stop-opacity="0.8"/>
</linearGradient>
<linearGradient id="paint3_linear" x1="1.21295" y1="10.975" x2="1.21295" y2="34.5098" gradientUnits="userSpaceOnUse">
<stop stop-color="white"/>
<stop offset="1" stop-color="white" stop-opacity="0.8"/>
</linearGradient>
</defs>
</svg>
