<svg width="1440" height="858" viewBox="0 0 1440 858" fill="none" xmlns="http://www.w3.org/2000/svg">
<path d="M292.81 135.012C292.643 139.367 290.036 142.219 286.717 144.372C289.577 145.677 292.009 147.65 293.255 150.488C294.037 152.27 294.142 156.238 294.812 152.89C295.35 150.199 295.217 145.096 298.414 143.818C300.35 143.043 304.462 142.217 304.462 142.217C304.462 142.217 297.122 142.014 295.701 139.281C294.574 137.114 293.116 127.064 292.81 135.012Z" fill="#C4C4C4"/>
<path d="M335.864 155.239C338.577 152.947 340.636 149.827 341.818 146.397C341.907 146.139 341.975 145.911 342.025 145.714C341.842 144.417 342.394 144.269 342.025 145.714C342.081 146.107 342.204 146.605 342.441 147.197C343.991 151.072 346.122 153.423 350.446 153.423C351.349 153.423 348.596 154.159 348.044 154.224C346.236 154.437 344.541 157.277 344.22 158.849C343.851 160.653 344.8 168.358 343.419 163.385C342.744 160.954 339.362 157.274 335.864 155.239Z" fill="#C4C4C4"/>
<path d="M424.762 27.5538C422.049 25.2615 419.99 22.1416 418.808 18.7119C418.719 18.4535 418.651 18.2261 418.601 18.0285C418.784 16.732 418.232 16.5843 418.601 18.0285C418.545 18.4216 418.422 18.9203 418.185 19.5124C416.635 23.3867 414.504 25.7384 410.18 25.7384C409.277 25.7384 412.03 26.474 412.582 26.5389C414.39 26.7517 416.085 29.5918 416.406 31.1639C416.775 32.9675 415.826 40.6726 417.207 35.7001C417.882 33.2687 421.264 29.589 424.762 27.5538Z" fill="#C4C4C4"/>
<path d="M452.203 88.7057C450.696 87.4664 449.552 85.7797 448.894 83.9255C448.845 83.7858 448.807 83.6629 448.779 83.556C448.881 82.8551 448.575 82.7753 448.779 83.556C448.748 83.7685 448.68 84.0382 448.548 84.3583C447.687 86.4529 446.503 87.7243 444.1 87.7243C443.598 87.7243 445.128 88.1219 445.435 88.157C446.44 88.2721 447.381 89.8075 447.56 90.6575C447.765 91.6325 447.237 95.7981 448.005 93.1098C448.38 91.7954 450.259 89.806 452.203 88.7057Z" fill="#C4C4C4"/>
<path d="M144.797 75.7057C146.304 74.4664 147.448 72.7797 148.106 70.9255C148.155 70.7858 148.193 70.6629 148.221 70.556C148.119 69.8551 148.425 69.7753 148.221 70.556C148.252 70.7685 148.32 71.0382 148.452 71.3583C149.313 73.4529 150.497 74.7243 152.9 74.7243C153.402 74.7243 151.872 75.1219 151.565 75.157C150.56 75.2721 149.619 76.8075 149.44 77.6575C149.235 78.6325 149.763 82.7981 148.995 80.1098C148.62 78.7954 146.741 76.806 144.797 75.7057Z" fill="#C4C4C4"/>
<path d="M1034.24 93.4462C1036.95 95.7385 1039.01 98.8584 1040.19 102.288C1040.28 102.547 1040.35 102.774 1040.4 102.972C1040.22 104.268 1040.77 104.416 1040.4 102.972C1040.45 102.578 1040.58 102.08 1040.81 101.488C1042.36 97.6133 1044.5 95.2616 1048.82 95.2616C1049.72 95.2616 1046.97 94.526 1046.42 94.4611C1044.61 94.2483 1042.92 91.4082 1042.59 89.8361C1042.22 88.0325 1043.17 80.3274 1041.79 85.2999C1041.12 87.7313 1037.74 91.411 1034.24 93.4462Z" fill="#C4C4C4"/>
<path d="M983.8 59.7272C985.569 60.5495 987.099 61.896 988.2 63.5266C988.283 63.6494 988.35 63.759 988.404 63.8554C988.481 64.5595 988.798 64.56 988.404 63.8554C988.381 63.6419 988.379 63.3638 988.427 63.0209C988.736 60.7774 989.564 59.25 991.89 58.6483C992.376 58.5226 990.795 58.5207 990.49 58.5635C989.488 58.7038 988.192 57.453 987.806 56.6749C987.363 55.7823 986.831 51.6172 986.761 54.4121C986.727 55.7786 985.406 58.1752 983.8 59.7272Z" fill="#C4C4C4"/>
<path d="M898.807 56.7116C900.262 55.432 901.307 53.6997 902.064 51.4011C903.2 47.9558 901.248 46.3556 903.545 49.5164C904.938 51.4329 906.34 52.5531 908.683 52.8358C908.906 52.8627 909.086 52.8732 909.229 52.8728C909.64 52.5129 910.045 52.8705 909.229 52.8728C909.196 52.9014 909.163 52.9345 909.131 52.9728C907.803 54.5514 907.758 62.276 907.648 62.1173C905.052 58.3528 902.276 57.2349 898.807 56.7116Z" fill="#C4C4C4"/>
<path d="M1110.27 59.0677C1111.64 58.5579 1112.84 57.6191 1113.99 56.2047C1115.71 54.0847 1114.77 52.4345 1115.54 55.2758C1116 56.9986 1116.69 58.1635 1118.26 58.9915C1118.41 59.0705 1118.54 59.1261 1118.64 59.1641C1119.02 59.0212 1119.21 59.3817 1118.64 59.1641C1118.61 59.1754 1118.57 59.19 1118.54 59.2083C1117.18 59.9629 1115.08 65.3874 1115.04 65.2463C1114.23 61.8998 1112.57 60.3677 1110.27 59.0677Z" fill="#C4C4C4"/>
<path d="M1274.63 75.2652C1275.47 74.9515 1276.21 74.3738 1276.92 73.5034C1277.98 72.1988 1277.4 71.1832 1277.87 72.9317C1278.16 73.9919 1278.58 74.7088 1279.55 75.2183C1279.64 75.2669 1279.71 75.3011 1279.78 75.3245C1280.01 75.2366 1280.13 75.4584 1279.78 75.3245C1279.76 75.3315 1279.74 75.3405 1279.72 75.3517C1278.88 75.8161 1277.59 79.1543 1277.56 79.0674C1277.06 77.0081 1276.04 76.0652 1274.63 75.2652Z" fill="#C4C4C4"/>
<path d="M1003.37 3.26525C1002.53 2.95152 1001.79 2.37379 1001.08 1.50338C1000.02 0.19876 1000.6 -0.816775 1000.13 0.931733C999.845 1.99192 999.422 2.70879 998.454 3.21833C998.362 3.26693 998.286 3.30115 998.224 3.32453C997.986 3.23659 997.87 3.45844 998.224 3.32453C998.243 3.33152 998.262 3.34047 998.283 3.35172C999.119 3.81611 1000.41 7.15427 1000.44 7.06744C1000.94 5.00807 1001.96 4.06521 1003.37 3.26525Z" fill="#C4C4C4"/>
<path d="M245.668 231.044C247.485 230.367 249.078 229.121 250.605 227.243C252.894 224.429 251.641 222.238 252.66 226.01C253.278 228.297 254.189 229.843 256.277 230.942C256.477 231.047 256.641 231.121 256.774 231.172C257.287 230.982 257.538 231.46 256.774 231.172C256.733 231.187 256.691 231.206 256.647 231.23C254.844 232.232 252.048 239.433 252.003 239.246C250.919 234.803 248.724 232.769 245.668 231.044Z" fill="#C4C4C4"/>
<path d="M148 319.413C91.2489 332.424 0 337.413 0 337.413V868.413H1505V78.4131C1505 78.4131 1458.28 61.2433 1427 59.9131C1388.85 58.2909 1366.6 64.615 1331 78.4131C1303.94 88.8999 1292.62 102.861 1266 114.413C1219.17 134.738 1189.98 142.658 1139 145.413C1090.08 148.058 1062.1 141.538 1014.5 129.913C960.57 116.741 935.693 92.5227 882 78.4131C802.376 57.4891 753.213 46.4114 672 59.9131C611.242 70.0142 577.886 84.583 524 114.413C475.313 141.365 456.784 169.777 410 199.913C315.459 260.813 257.614 294.283 148 319.413Z" fill="#8ABAB5"/>
<path d="M318.458 295.969C333.62 288.782 346.688 279.288 363.533 273.766C367.675 272.408 371.443 271.601 375.05 270.892C383.778 266.946 391.22 263.787 401.225 259.527C404.087 256.126 406.425 252.471 411.379 250.091C419.165 246.351 436.594 231.366 436.594 231.366C436.594 231.366 416.193 253.145 405.159 257.851C403.802 258.43 402.493 258.987 401.225 259.527C399.32 261.791 397.183 263.941 393.887 265.528C387.324 268.687 381.439 269.636 375.05 270.892C371.578 272.462 367.903 274.156 363.781 276.094C353.139 281.099 343.428 289.802 332.404 294.483C319.075 300.143 276.482 321.414 284.557 313.018C290.111 307.244 309.633 300.151 318.458 295.969Z" fill="#A8CCC5"/>
<path d="M587.5 112.5C614.156 101.397 637.796 96.5408 659.5 95.665C664.983 95.4438 670.522 95.7155 676.022 96.0231C694.552 92.7449 715.294 88.7541 733.001 86.5002C735.492 86.183 741.288 86.6658 748.993 87.6238C758.226 86.5922 767.849 86.0401 777.001 86.5002C800.64 87.6888 813.908 90.9905 836.5 98.0504C868.685 108.108 786.374 92.272 748.993 87.6238C728.975 89.8604 710.793 94.3508 703.232 95.665C694.576 97.1697 685.354 96.5449 676.022 96.0231C671.96 96.7418 668.004 97.4262 664.21 98.0506C649.991 100.39 618.533 106.318 591 117C571.454 124.583 539.82 142.831 527.388 150.287C526.05 151.217 524.912 151.967 524 152.5C520.4 154.601 522.261 153.362 527.388 150.287C538.486 142.578 563.356 122.556 587.5 112.5Z" fill="#A8CCC5"/>
<path d="M34.2896 373.128C43.7856 373.454 49.1597 373.454 58.6557 373.128C69.8104 372.745 97.4724 367.32 87 371C78.6853 373.922 64.6229 373.926 64.6229 373.926C64.6229 373.926 43.9117 375.656 30.8087 374.725C23.8974 374.233 20.2415 373.327 13.4044 372.596C6.6419 371.874 -4 371 -4 371H5.94536C5.94536 371 23.135 372.745 34.2896 373.128Z" fill="#A8CCC5"/>
<path d="M32.2127 379.857C38.4466 380.525 41.9846 380.719 48.2542 380.736C55.6188 380.756 73.6307 376.408 67.0312 379.634C61.7536 382.213 52.139 381.748 52.139 381.748C52.139 381.748 38.4091 382.728 29.8337 381.325C25.3105 380.585 22.9532 379.548 18.4919 378.572C14.0794 377.607 2.62952 376.896 7.12108 376.35C9.66321 376.042 13.6686 376.709 13.6686 376.709C13.6686 376.709 24.89 379.072 32.2127 379.857Z" fill="#A8CCC5"/>
<path d="M18.13 391.173C13.8167 391.635 11.3688 391.769 7.03083 391.781C1.9352 391.795 -10.5272 388.786 -5.96102 391.018C-2.30948 392.803 4.34288 392.481 4.34288 392.481C4.34288 392.481 13.8427 393.159 19.776 392.188C22.9056 391.676 24.5366 390.959 27.6234 390.284C30.6765 389.616 38.5986 389.124 35.4909 388.746C33.732 388.533 30.9607 388.995 30.9607 388.995C30.9607 388.995 23.1966 390.629 18.13 391.173Z" fill="#A8CCC5"/>
<path d="M-17 362.34C-17 362.34 43.1308 361.892 72.2065 357.922C87.5984 355.821 111.297 350.946 111.297 350.946L116.309 350.052C116.309 350.052 136.915 342.86 150.387 338.927C169.094 333.466 199 327 199 327L153.896 343.345L116.309 350.052L111.297 350.946C111.297 350.946 93.2933 359.541 80.7262 362.34C67.3947 365.308 45.645 364.99 45.645 364.99L-17 362.34Z" fill="#A8CCC5"/>
<path d="M220.604 333.385C198.905 337.037 257.826 322.143 275.493 315.594C284.845 312.127 299.1 306.304 299.1 306.304L302.126 305.113C302.126 305.113 314.26 299.173 322.261 295.518C333.37 290.442 351.331 283 351.331 283L324.825 296.179L302.126 305.113L299.1 306.304C299.1 306.304 288.703 312.178 281.163 315.33C273.164 318.673 259.658 322.597 259.658 322.597C259.658 322.597 235.836 330.821 220.604 333.385Z" fill="#A8CCC5"/>
<path d="M422.859 269.28C422.859 269.28 347.595 307.074 310.193 323.358C290.394 331.978 259.47 344.38 259.47 344.38L252.967 347.076C252.967 347.076 210.089 353.87 192.197 360.303C167.353 369.237 90.0001 380.866 90.0001 380.866C90.0001 380.866 165.3 373.757 189 364.866C208.15 357.682 252.967 347.076 252.967 347.076L259.47 344.38C259.47 344.38 284.276 337.554 300.733 331.09C318.19 324.233 345.285 310.308 345.285 310.308L422.859 269.28Z" fill="#A8CCC5"/>
<path d="M285 343.866C293.935 339.422 307 330.866 307 330.866L280 349.866C280 349.866 261.672 356.873 249.5 359.866C233.035 363.915 206.5 365.866 206.5 365.866L236 359.866C236 359.866 266.976 352.831 285 343.866Z" fill="#A8CCC5"/>
<path d="M861.79 93.8348C871.255 96.999 885.379 103.663 885.379 103.663L856.008 88.585C856.008 88.585 836.886 84.1835 824.417 82.9046C807.55 81.1747 781 82.9165 781 82.9165L811.047 84.7739C811.047 84.7739 842.699 87.4522 861.79 93.8348Z" fill="#A8CCC5"/>
<path d="M903 118.5C912.465 121.664 918.248 125.615 928.141 126.928C940.922 128.625 897.218 113.25 897.218 113.25C897.218 113.25 879.649 107.448 867.179 106.17C850.313 104.44 864.763 106.17 864.763 106.17L875.763 109.265C875.763 109.265 883.909 112.117 903 118.5Z" fill="#A8CCC5"/>
<path d="M801.037 109.066C810.633 111.805 815.098 116.963 825.04 117.833C837.884 118.958 795.026 104.079 795.026 104.079C795.026 104.079 775.728 100.534 763.214 99.8117C746.287 98.8351 660.75 106.435 677.5 109.066C689.114 110.89 749.94 102.275 749.94 102.275C749.94 102.275 781.68 103.54 801.037 109.066Z" fill="#A8CCC5"/>
<path d="M185.982 342.097C192.773 339.256 195.597 335.082 202.807 333.578C212.128 331.633 182.002 346.29 182.002 346.29C182.002 346.29 168.181 350.554 159.087 352.156C146.785 354.322 115.17 357.794 127.193 354.423C135.531 352.085 149.17 351.471 149.17 351.471C149.17 351.471 172.284 347.827 185.982 342.097Z" fill="#A8CCC5"/>
<path d="M601.628 127.034C594.837 129.874 575.71 138.996 568.5 140.5C559.179 142.445 605.608 122.84 605.608 122.84C605.608 122.84 619.429 118.576 628.524 116.975C640.825 114.809 672.44 111.336 660.417 114.707C652.079 117.045 638.44 117.659 638.44 117.659C638.44 117.659 615.326 121.303 601.628 127.034Z" fill="#A8CCC5"/>
<path d="M556.361 163.29C551.537 165.325 524.202 178.574 519.55 180.143C513.536 182.172 559 159.253 559 159.253C559 159.253 567.946 154.943 573.808 153.243C581.737 150.943 592.776 147.07 585 150.5C579.608 152.879 580.149 153.68 580.149 153.68C577.631 156.2 561.916 160.947 556.361 163.29Z" fill="#A8CCC5"/>
<path d="M694.822 128.849C689.601 129.242 647.41 138.494 642.5 138.5C636.153 138.509 698.609 125.862 698.609 125.862C698.609 125.862 708.462 124.625 714.56 124.879C722.809 125.223 770.464 132.328 762 133.104C756.131 133.642 720.432 127.313 720.432 127.313C717.243 128.9 700.834 128.396 694.822 128.849Z" fill="#A8CCC5"/>
<path d="M152.555 378.527C157.992 377.518 160.173 375.84 165.986 375.404C173.502 374.84 149.438 380.181 149.438 380.181C149.438 380.181 138.33 381.597 130.989 382.023C121.059 382.599 95.4809 383.2 105.152 382.11C111.859 381.354 122.918 381.466 122.918 381.466C122.918 381.466 141.588 380.563 152.555 378.527Z" fill="#A8CCC5"/>
<path d="M125.743 396.019C130.736 395.053 133.175 392.695 138.293 392.658C144.909 392.611 122.511 398.238 122.511 398.238C122.511 398.238 112.533 399.21 106.113 399.063C97.4288 398.864 75.3645 396.982 84.0036 396.357C89.9948 395.923 99.4064 397.313 99.4064 397.313C99.4064 397.313 115.672 397.966 125.743 396.019Z" fill="#A8CCC5"/>
<path d="M322.9 276.053C327.601 275.286 336.908 271.241 340.669 269.487C345.531 267.219 318.088 274.931 318.088 274.931C318.088 274.931 309.755 277.436 305.252 279.832C299.161 283.074 272.196 297.376 279.169 294.987C284.005 293.33 302.319 283.957 302.319 283.957C302.319 283.957 313.417 277.6 322.9 276.053Z" fill="#A8CCC5"/>
<path d="M1588.62 301.922C1566.69 306.768 1550.73 312.822 1536.31 317.885C1545.99 318.352 1555.63 319.322 1564.89 321.336C1590.37 326.874 1557.41 338.161 1547.2 338.161C1513.06 338.161 1480 343.896 1445.39 343.338C1382.69 342.326 1318.26 341.722 1256.43 330.971C1194.18 320.144 1310.55 312.021 1275.99 288.98C1211.76 246.16 1126.6 279.868 1057.7 273.306C966.402 264.611 999.089 213.771 1071.5 198.959C1100.44 193.04 1128.22 192.953 1157.5 196.946C1166.43 198.164 1232.56 197.719 1232.56 181.559C1232.56 159.229 1152.89 154.38 1134.78 154.38C1113.8 154.38 1085.05 153.124 1070.93 134.967C1051.93 110.541 1178.41 100.215 1192.3 100.023C1233.18 99.4548 1270.77 109.78 1310.79 114.978C1330.81 117.578 1351.05 124.164 1371.05 125.763C1391.56 127.404 1414.11 125.229 1434.18 129.79C1458.25 135.262 1486.87 138.85 1511.54 138.85C1545.6 138.85 1578.93 144.026 1612.92 144.026C1624.65 144.026 1695.74 144.097 1691.87 162.146C1697.03 184.827 1648.65 169.993 1608.47 180.265C1593.04 192.228 1618.45 201.288 1638.95 200.973C1653.03 200.973 1690.72 203.333 1690.72 224.269C1690.72 254.634 1597.88 240.065 1581.43 239.799C1567.92 239.582 1488.82 222.667 1488.82 248.859C1488.82 270.399 1550.33 266.816 1565.18 269.567C1573.62 271.129 1605.41 273.243 1607.89 283.803C1610.4 294.459 1600.28 299.346 1588.62 301.922Z" fill="#EEEDDB"/>
<path d="M1455.59 324.6C1514.02 336.552 1529.87 314.901 1588.62 301.922C1600.28 299.346 1610.4 294.459 1607.89 283.803C1605.41 273.243 1573.62 271.129 1565.18 269.567C1550.33 266.816 1488.82 270.399 1488.82 248.859C1488.82 222.667 1567.92 239.582 1581.43 239.799C1597.88 240.065 1690.72 254.634 1690.72 224.269C1690.72 203.333 1653.03 200.973 1638.95 200.973C1618.45 201.288 1593.04 192.228 1608.47 180.265C1648.65 169.993 1697.03 184.827 1691.87 162.146C1695.74 144.097 1624.65 144.026 1612.92 144.026C1578.93 144.026 1545.6 138.85 1511.54 138.85C1486.87 138.85 1458.25 135.262 1434.18 129.79C1414.11 125.229 1391.56 127.404 1371.05 125.763C1351.05 124.164 1330.81 117.578 1310.79 114.978C1270.77 109.78 1233.18 99.4549 1192.3 100.023C1178.41 100.215 1051.93 110.541 1070.93 134.967C1085.05 153.124 1113.8 154.38 1134.78 154.38C1152.89 154.38 1232.56 159.229 1232.56 181.559C1232.56 197.719 1166.43 198.164 1157.5 196.946C1128.22 192.953 1100.44 193.04 1071.5 198.959C999.089 213.771 966.402 264.611 1057.7 273.306C1126.6 279.868 1211.76 246.16 1275.99 288.98C1310.55 312.021 1194.18 320.144 1256.43 330.971C1318.26 341.722 1382.69 342.326 1445.39 343.338C1480 343.896 1513.06 338.161 1547.2 338.161C1557.41 338.161 1590.37 326.874 1564.89 321.336C1546.62 317.363 1526.88 317.453 1508.23 317.453" stroke="#EEEDDB" stroke-width="5" stroke-linecap="round" stroke-linejoin="round"/>
<path d="M1185.96 434.618C1193.17 434.517 1216.23 436.069 1235.36 438.806C1286.01 446.055 1226.3 452.833 1215.38 457.348C1191.81 467.09 1330.43 468 1348.87 457.351C1383.12 437.558 1428.54 453.139 1465.29 450.105C1513.99 446.086 1496.55 422.587 1457.93 415.741C1442.5 413.005 1427.68 412.965 1412.07 414.81C1407.3 415.373 1372.03 415.168 1372.03 407.698C1372.03 397.377 1414.52 395.136 1424.18 395.136C1435.37 395.136 1450.71 394.555 1458.24 386.162C1468.37 374.872 1400.91 370.1 1393.51 370.01C1371.7 369.748 1351.65 374.521 1330.31 376.923C1319.63 378.125 1308.84 381.169 1298.17 381.908C1287.23 382.667 1275.2 381.661 1264.5 383.769C1251.66 386.299 1236.39 387.957 1223.24 387.957C1205.07 387.957 1187.3 390.35 1169.17 390.35C1162.91 390.35 1125 390.382 1127.06 398.725C1124.31 409.209 1150.11 402.352 1171.54 407.1C1179.77 412.63 1166.22 416.818 1155.29 416.672C1147.78 416.672 1078 418.558 1078 428.235C1078 442.27 1177.19 434.741 1185.96 434.618Z" fill="#EEEDDB" fill-opacity="0.4" stroke="#EEEDDB" stroke-opacity="0.8" stroke-width="2" stroke-linecap="round" stroke-linejoin="round"/>
<path d="M-39.0362 164.618C-31.8314 164.517 -8.76566 166.069 10.3565 168.806C61.0055 176.055 1.29779 182.833 -9.62335 187.348C-33.1901 197.09 105.435 198 123.868 187.351C158.125 167.558 203.543 183.139 240.293 180.105C288.986 176.086 271.553 152.587 232.931 145.741C217.497 143.005 202.682 142.965 187.066 144.81C182.304 145.373 147.03 145.168 147.03 137.698C147.03 127.377 189.522 125.136 199.184 125.136C210.372 125.136 225.705 124.555 233.237 116.162C243.37 104.872 175.91 100.1 168.505 100.01C146.702 99.748 126.654 104.521 105.307 106.923C94.6288 108.125 83.8355 111.169 73.1711 111.908C62.2314 112.667 50.2045 111.661 39.5013 113.769C26.6589 116.299 11.3948 117.957 -1.7616 117.957C-19.9283 117.957 -37.7024 120.35 -55.8328 120.35C-62.0897 120.35 -100.002 120.382 -97.9393 128.725C-100.692 139.209 -74.8903 132.352 -53.4552 137.1C-45.2278 142.63 -58.7797 146.818 -69.7149 146.672C-77.223 146.672 -147 148.558 -147 158.235C-147 172.27 -47.8096 164.741 -39.0362 164.618Z" fill="#EEEDDB" fill-opacity="0.4" stroke="#EEEDDB" stroke-opacity="0.8" stroke-width="2" stroke-linecap="round" stroke-linejoin="round"/>
<path d="M174.689 624.023H-11.2029V858.59H1316C1316 858.59 1260.49 822.364 1220.04 813.624C1181.82 805.365 1147.02 812.362 1110.17 799.253C1091.16 792.485 1030.46 761.218 995.673 746.869C961.94 732.956 956.661 753.624 903.886 746.869C854.152 740.504 858.533 736.956 808.854 730.181C738.391 720.572 752.558 685.985 682.299 664.354C626.461 647.163 502.897 643.03 502.897 643.03H373.097L174.689 624.023Z" fill="#203039"/>
<path d="M379.587 666.208C414.716 666.208 465.856 665.658 498.3 681.416C516.615 690.312 536.448 697.346 556.809 699.964C575.098 702.315 593.825 705.509 612.26 705.509C623.955 705.509 635.77 712.226 647.059 715.451C665.332 720.672 683.279 729.4 699.068 739.926C709.86 747.12 723.33 748.886 735.206 753.693C755.586 761.942 780.32 770.852 801.842 774.439C809.658 775.742 816.324 780.687 823.736 782.948C834.35 786.186 845.239 788.933 856.145 790.692C875.509 793.815 895.564 793.322 914.751 796.81C941.1 801.601 975.174 797.513 997.257 814.688C1016.23 829.442 1048.39 831.132 1071.25 831.132C1076.95 831.132 1083.53 836.186 1089.32 837.633C1095.64 839.213 1101.14 842.662 1107.3 844.899C1115.13 847.749 1122.49 852.515 1130.62 855.224" stroke="#969D8D" stroke-width="0.927141" stroke-linecap="round" stroke-linejoin="round"/>
<path d="M377.733 681.969C411.714 681.969 491.693 687.545 522.51 702.953C535.385 709.391 553.003 712.147 567.252 714.522C585.218 717.516 603.078 721.701 620.6 726.568C634.848 730.525 649.315 734.657 662.856 740.813C670.631 744.347 678.98 744.557 686.757 748.557C693.241 751.891 700.36 754.437 707.504 755.536C733.062 759.468 755.097 778.572 781.023 779.532C793.824 780.006 804.706 788.536 816.874 791.578C827.052 794.123 838.16 801.904 848.615 801.904C856.509 801.904 866.473 805.817 873.95 808.405C884.829 812.171 897.663 811.159 907.985 815.288C920.736 820.388 936.977 818.423 949.955 823.414C962.064 828.072 976.955 823.038 989.822 827.717C993.378 829.01 1004.52 833.685 1006.07 837.181C1008.77 843.236 1016.82 848.187 1023.28 848.367C1036.45 848.733 1050.38 851.089 1062.86 855.251" stroke="#969D8D" stroke-width="0.927141" stroke-linecap="round" stroke-linejoin="round"/>
<path d="M513.273 726.258C525.925 726.258 538.576 726.258 551.228 726.258C569.523 726.258 587.421 733.922 605.024 740.723C611.106 743.073 618.358 744.209 623.954 747.607C627.007 749.461 631.509 753.63 634.949 754.49C648.317 757.832 659.887 763.095 673.955 763.095C684.376 763.095 694.502 772.649 704.922 772.649C713.822 772.649 722.269 776.167 729.875 780.393C737.237 784.483 745.596 786.137 753.107 789.475C760.674 792.838 770.111 795.07 778.06 796.837C785.941 798.588 792.47 805.506 800.527 806.971C817.054 809.976 834.898 806.234 850.336 814.81C856.493 818.231 868.327 817.392 875.289 817.392C883.932 817.392 894.25 818.145 902.058 821.694C908.983 824.841 918.961 825.004 926.533 827.334C933.886 829.597 941.363 831.461 948.426 834.6C958.753 839.19 969 844.488 979.88 847.985C990.534 851.409 1005.1 860.413 1016.4 860.413" stroke="#969D8D" stroke-width="0.927141" stroke-linecap="round" stroke-linejoin="round"/>
<path d="M429.189 744.088C455.275 744.088 534.072 738.042 559.464 744.088C579.845 748.941 600.44 760.17 620.18 766.339C631.384 769.841 646.543 778.284 658.193 779.319C667.237 780.123 675.817 779.548 684.771 781.04C705.074 784.424 728.317 800.881 748.326 804.007C784.962 809.732 816.636 829.438 854.638 829.438C876.315 829.438 893.931 838.059 914.869 841.866C923.363 843.411 934.251 846.45 940.682 852.574C944.615 856.32 947.147 861.525 951.007 865.385C953.672 868.05 956.688 868.853 957.89 872.459" stroke="#969D8D" stroke-width="0.927141" stroke-linecap="round" stroke-linejoin="round"/>
<path d="M429.189 754.921C442.036 754.921 475.485 753.493 488.332 754.921C498.216 756.019 525.803 750.496 534.42 754.921C551.415 763.648 554.557 766.527 573.36 769.121C581.926 770.302 586.89 774.283 595.827 774.283C603.571 774.283 607.337 784.419 615.081 784.419C622.244 784.419 635.39 793.971 642.542 794.501C655.684 795.474 667.334 802.654 680.21 804.635C693.266 806.644 705.774 805.72 718.929 806.451C722.59 806.655 729.25 811.904 732.696 813.717C743.04 819.161 756.809 821 768.452 823.278C785.968 826.705 799.829 826.276 815.681 836.662C824.958 842.741 839.95 852.915 851.436 852.915" stroke="#969D8D" stroke-width="0.927141" stroke-linecap="round" stroke-linejoin="round"/>
<path d="M-14 706.357C-1.30038 706.357 9.5166 706.528 21.1823 701.195C32.4078 696.063 49.9109 695.824 61.7184 699.474C71.617 702.534 81.8756 704.348 92.3116 702.533C97.7343 701.59 103.326 699.679 108.182 702.916" stroke="#969D8D" stroke-width="0.927141" stroke-linecap="round" stroke-linejoin="round"/>
<path d="M-24 752.636C-11.7601 752.636 0.585396 753.674 12.5207 750.533C25.493 747.119 38.2054 739.52 51.3359 737.531C72.4872 734.326 95.6923 737.149 117.111 737.149" stroke="#969D8D" stroke-width="0.927141" stroke-linecap="round" stroke-linejoin="round"/>
<path d="M-14 726C16.7829 726 45.2643 722.593 75.2705 718.241C96.0225 715.23 118.805 716.124 140 716.124" stroke="#969D8D" stroke-width="0.927141" stroke-linecap="round" stroke-linejoin="round"/>
<path d="M-11 772.372C14.7751 761.952 37.492 754.056 65.1008 753.442C74.1238 753.241 83.5855 750 92.2523 750" stroke="#969D8D" stroke-width="0.927141" stroke-linecap="round" stroke-linejoin="round"/>
<path d="M409 655C435.389 655 490.832 654.921 516 662C543.263 669.668 593.633 685.132 622.035 687.069C632.049 687.752 658.449 705.27 666.632 710.271C679.525 718.15 690.755 724.697 705.921 728.688C714.155 730.855 721.055 735.864 728.723 739.387C735.124 742.328 742.718 744.169 749.42 746.403C762.455 750.748 776.079 752.873 789.236 757.102C799.514 760.406 809.928 760.608 819.58 765.434C843.968 777.628 873.999 775.006 899.738 782.36C912.6 786.035 926.601 785.515 939.553 789.113C953.315 792.936 967.338 790.452 980.948 794.989C992.677 798.898 1003.49 805.408 1015.33 809.635C1031.3 815.341 1046.58 818.653 1063.56 821.123C1089.51 824.898 1118.94 825.252 1143.19 836.032C1149.65 838.902 1157.1 843.264 1163.71 845.153C1170.08 846.971 1183.05 853.425 1184.24 859.36" stroke="#969D8D" stroke-width="0.927141" stroke-linecap="round" stroke-linejoin="round"/>
<path d="M527.5 649C571 661 576.226 642.496 630 667C636.271 671.941 705.851 695.259 711.504 700.911C715.412 704.82 728.84 714.848 733.292 718.063C742.455 724.681 742.009 730.784 753.064 732.832C777.117 737.286 801.44 743.035 825.278 748.579C837.427 751.404 848.085 754.623 860.748 754.623C880.932 754.623 896.21 760.961 915.544 764.644C931.027 767.593 945.901 768.938 961.831 768.938C973.036 768.938 982.217 769.027 992.927 772.597C1003.27 776.043 1011.65 785.151 1021.56 789.775C1032.76 795.002 1045.2 797.679 1057.43 799.001C1069.65 800.322 1081.96 800.665 1093.85 804.011C1100.45 805.867 1107.3 805.898 1113.73 808.385C1118.77 810.332 1123.47 812.201 1128.77 813.316C1144.06 816.536 1157.24 824.856 1172.51 827.632C1184.25 829.768 1194.23 836.827 1205.51 839.084C1211.11 840.204 1215.28 842.013 1220.7 843.458C1231.4 846.312 1243.31 845.344 1246.95 856.263" stroke="#969D8D" stroke-width="0.927141" stroke-linecap="round" stroke-linejoin="round"/>
<path d="M538.428 728.836C509.735 735.167 488.864 743.078 469.995 749.694C482.66 750.304 495.269 751.571 507.387 754.202C540.713 761.438 497.602 776.186 484.247 776.186C439.578 776.186 396.326 783.679 351.054 782.95C269.022 781.629 184.733 780.839 103.856 766.791C22.4187 752.645 174.655 742.031 129.442 711.925C45.4137 655.975 -65.9916 700.019 -156.134 691.445C-275.571 680.083 -232.808 613.656 -138.074 594.302C-100.217 586.568 -63.8784 586.455 -25.5744 591.672C-13.8936 593.262 72.6274 592.682 72.6274 571.567C72.6274 542.39 -31.5996 536.054 -55.2984 536.054C-82.7415 536.054 -120.351 534.413 -138.826 510.688C-163.679 478.773 1.78888 465.281 19.9521 465.029C73.4318 464.288 122.607 477.779 174.968 484.571C201.16 487.968 227.635 496.573 253.793 498.663C280.627 500.807 304.453 498.913 336.38 503.924C400.068 513.921 433.265 565.5 492 559C618.21 549.72 701 578 676.5 615C652 652 550.541 648.011 529.021 647.665C511.349 647.38 407.868 625.279 407.868 659.502C407.868 687.646 488.333 682.965 507.763 686.559C518.803 688.601 560.386 691.363 563.637 705.161C566.917 719.085 553.685 725.469 538.428 728.836Z" fill="#EEEDDB"/>
<path d="M364.394 758.467C440.835 774.084 461.576 745.794 538.428 728.836C553.685 725.469 566.917 719.085 563.637 705.161C560.386 691.363 518.803 688.601 507.763 686.559C488.333 682.965 407.868 687.646 407.868 659.502C407.868 625.279 511.349 647.38 529.021 647.665C550.541 648.011 652 652 676.5 615C701 578 618.21 549.72 492 559C433.265 565.5 400.068 513.921 336.38 503.924C304.453 498.913 280.627 500.807 253.793 498.663C227.635 496.573 201.16 487.968 174.968 484.571C122.607 477.779 73.4318 464.288 19.9521 465.029C1.78888 465.281 -163.679 478.773 -138.826 510.688C-120.351 534.413 -82.7415 536.054 -55.2984 536.054C-31.5996 536.054 72.6274 542.39 72.6274 571.567C72.6274 592.682 -13.8937 593.262 -25.5744 591.672C-63.8784 586.455 -100.217 586.568 -138.074 594.302C-232.808 613.656 -275.571 680.083 -156.134 691.445C-65.9916 700.019 45.4137 655.975 129.442 711.925C174.655 742.031 22.4187 752.645 103.856 766.791C184.733 780.839 269.022 781.629 351.054 782.95C396.326 783.679 439.578 776.186 484.247 776.186C497.602 776.186 540.713 761.438 507.387 754.202C483.478 749.011 457.656 749.129 433.265 749.129" stroke="#EEEDDB" stroke-width="5" stroke-linecap="round" stroke-linejoin="round"/>
<path d="M1383 565.146C1422.21 572.555 1441.02 586 1441.02 586V686.717L1410.63 630.914L1370.77 609.489L1350.84 637.889L1311.98 677.748L1274 694C1274 694 1249.53 702.858 1240.23 704.155C1217.01 707.392 1202.95 697.57 1180.44 704.155C1171.17 706.869 1158.02 714.618 1158.02 714.618L1150.55 726.077L1141.58 729.565L1150.55 714.618L1132.11 726.077H1117.66C1117.66 726.077 1149.47 704.496 1172.47 696.681C1197.79 688.075 1240.23 686.717 1240.23 686.717C1240.23 686.717 1294.96 667.574 1311.98 638.387C1321.47 622.108 1320.45 599.525 1320.45 599.525L1294.54 592.051H1255.18C1255.18 592.051 1204.27 597.718 1172.47 592.051C1156.39 589.186 1132.11 581.09 1132.11 581.09H1087.27L1034.96 617.96C1034.96 617.96 1005.04 635.997 983.637 640.879C959.166 646.461 943.709 646.992 919.364 640.879C903.555 636.908 881 624.437 881 624.437V617.96C881 617.96 902.989 625.785 919.364 630.914C943.317 638.416 983.637 630.914 983.637 630.914C1020.57 609.976 1035.83 601.298 1066.84 570.627C1066.84 570.627 1047.99 563.174 1034.96 557.174C1025.64 552.887 1020.76 549.461 1013.03 542.725C1002.7 533.723 1000.47 525.336 991.111 515.322C976.212 499.376 948.262 479.449 948.262 479.449L958.5 472L1002 501.5L1034.96 536C1034.96 536 1127.38 569.677 1180.44 565.146C1215.66 562.139 1234.41 561.453 1269.5 557.174C1302.53 553.146 1350.31 558.969 1383 565.146Z" fill="#FFB5A6"/>
<path d="M1103.41 550.652C1103.73 551.822 1104.42 552.448 1105.12 553.383C1105.16 553.431 1105.2 553.48 1105.24 553.532C1105.72 554.142 1106.71 555.083 1106.56 555.923C1106.34 557.089 1104.72 557.89 1103.74 558.182C1102.39 558.585 1101.4 558.018 1100.86 556.77C1100.6 556.155 1100.47 555.49 1100.29 554.848C1100.08 554.123 1099.73 553.44 1099.44 552.743C1099.02 551.702 1098.67 550.52 1097.99 549.613C1097.13 548.473 1096.47 547.212 1095.36 546.287C1093.85 545.024 1091.99 544.448 1090.29 543.523C1086.43 541.413 1082.31 540.435 1077.99 539.736C1076.18 539.443 1074.32 539.104 1072.59 538.478C1071.59 538.114 1070.64 537.643 1069.65 537.227C1066.74 535.992 1063.21 534.304 1062.13 531.109C1061.77 530.029 1061.71 529.099 1062.34 528.143C1063.15 526.913 1064.12 525.898 1065.44 525.228C1067.78 524.048 1070.59 523.529 1073.18 523.242C1075.89 522.942 1078.62 522.897 1081.34 522.674C1082.86 522.548 1085.44 522.151 1084.49 520.02C1083.72 518.317 1081.96 517.302 1080.35 516.565C1076.73 514.918 1072.63 514.846 1069.21 512.672C1067.21 511.4 1065.71 510.022 1064.64 507.865C1063.75 506.071 1063.58 503.974 1064.61 502.152C1066.57 498.688 1071.19 500.327 1074.28 499.501C1075.31 499.224 1075.54 498.973 1075.4 497.993C1075.12 496.061 1073.49 494.429 1072.06 493.279C1070.97 492.4 1069.87 491.486 1069.07 490.318C1068.33 489.216 1067.7 487.976 1067.18 486.753C1065.92 483.799 1065.56 480.575 1066.44 477.45C1067.33 474.282 1071.32 473.361 1074.14 474.068C1077.6 474.937 1079.17 478.484 1080.56 481.402C1081.75 483.906 1082.76 486.519 1083.35 489.234C1083.93 491.868 1084.79 494.317 1085.75 496.837C1086.26 498.196 1086.92 499.91 1088.15 500.794C1088.69 501.18 1089.69 501.37 1090.19 500.783C1090.79 500.08 1090.93 498.652 1091.1 497.786C1091.31 496.625 1091.41 495.145 1092.08 494.134C1092.82 492.997 1094.53 492.951 1095.61 493.574C1097.31 494.556 1098.25 496.625 1098.39 498.524C1098.79 503.898 1097.16 509.078 1097.13 514.42C1097.12 515.487 1096.85 516.555 1097.13 517.602C1097.33 518.347 1097.7 519.072 1098.19 519.669C1098.59 520.154 1099.43 520.054 1099.95 519.843C1100.56 519.598 1100.9 518.932 1101.23 518.395C1101.59 517.782 1102 517.199 1102.36 516.58C1103.87 513.963 1105.15 511.222 1106.55 508.549C1107.11 507.484 1108.18 506.215 1109.53 506.227C1110.76 506.238 1111.87 506.14 1112.98 506.764C1113.6 507.112 1114.07 507.569 1114.6 508.033C1115.25 508.599 1115.64 508.971 1115.99 509.787C1116.41 510.766 1116.62 511.825 1116.98 512.83C1117.66 514.728 1117.41 517.708 1116.54 519.516C1115.83 520.988 1114.94 522.479 1113.85 523.704C1113.15 524.505 1112.19 525.036 1111.53 525.894C1109.75 528.199 1108 530.51 1106.32 532.899C1104.82 535.03 1103.5 537.337 1102.88 539.877C1102.34 542.076 1102.57 544.405 1102.76 546.625C1102.87 547.981 1103.06 549.333 1103.41 550.652Z" fill="#ECAA1E"/>
<path d="M1098.09 548.434C1098.35 549.11 1098.56 549.782 1098.8 550.451C1099.06 550.913 1099.26 551.434 1099.49 551.89C1099.91 552.728 1100.21 553.547 1100.56 554.408C1101.15 555.85 1101.02 559.64 1103.51 559.331C1106.1 559.011 1105.59 555.361 1104.88 553.617C1104.22 551.988 1103.11 550.573 1102.41 548.958C1101.97 547.958 1101.26 547.151 1100.88 546.109C1100.21 544.298 1099.24 542.608 1098.59 540.783C1097.34 537.277 1096.98 532.472 1099.57 529.336C1101.21 527.342 1103.74 526.337 1105.43 524.395C1106.5 523.172 1107.37 521.906 1108.04 520.426C1108.54 519.317 1108.72 517.845 1108.94 516.638C1109.12 515.677 1108.49 516.356 1108.25 516.718C1107.58 517.741 1107.44 518.992 1106.95 520.1C1105.58 523.239 1102.33 524.803 1099.77 526.844C1098.21 528.085 1096.84 529.617 1096.31 531.577C1096.12 532.273 1096.1 532.903 1096.28 533.604C1096.34 533.829 1096.08 532.879 1096.02 532.761C1095.34 531.294 1094.55 530.053 1094.3 528.422C1093.62 523.99 1093.67 519.458 1092.99 515.005C1092.05 510.375 1092.95 507.291 1093.38 505.576C1093.68 504.34 1092.64 504.611 1092.05 505.744C1091.38 507.053 1091.2 508.212 1091.26 509.688C1091.28 510.498 1091.25 511.306 1091.29 512.117C1091.3 512.397 1091.26 513.997 1091.22 513.908C1090.81 513.1 1090.15 512.405 1089.63 511.664C1089.37 511.293 1089.1 510.948 1088.82 510.615C1087.84 509.456 1086.81 508.336 1085.93 507.096C1083.9 504.239 1082.81 502.352 1081.66 499.263C1080.76 496.862 1078.61 493.432 1077.66 491.053C1076.62 488.46 1075.81 485.772 1074.51 483.289C1074.31 482.895 1074.61 484.037 1074.69 484.474C1074.92 485.729 1075.41 488.066 1075.46 488.614C1077.35 496.658 1080.52 502.29 1084.9 508.7C1085.38 509.4 1085.98 510.156 1085.85 510.994C1085.83 511.119 1085.1 510.587 1085.02 510.544C1084.32 510.193 1083.55 509.947 1082.81 509.687C1081.74 509.311 1080.58 509.032 1079.58 508.488C1075.35 506.189 1064.38 502.981 1072.36 507.583C1073.86 508.454 1075.3 509.137 1076.97 509.698C1079.95 510.701 1083.22 511.336 1086.04 512.739C1087.83 513.628 1091.1 516.522 1091.47 518.499C1091.91 520.915 1091.49 521.18 1091.88 523.608C1092.14 525.264 1091.63 528.106 1092.35 529.627C1092.85 530.667 1093.17 531.772 1093.75 532.773C1093.87 532.987 1094.21 533.849 1093.93 534.055C1093.7 534.225 1091.8 532.738 1091.51 532.589C1089.55 531.57 1087.39 530.958 1085.43 529.941C1083.08 528.725 1080.01 526.229 1077.38 528.068C1075.85 529.135 1078.99 530.267 1079.69 530.509C1081.58 531.163 1083.49 531.746 1085.43 532.215C1087.06 532.607 1088.84 533.044 1090.38 533.739C1092.58 534.739 1094.05 536.257 1095.05 538.443C1095.82 540.132 1096.99 541.856 1097.14 543.747C1097.2 544.483 1097.44 545.163 1097.54 545.897C1097.66 546.816 1097.77 547.562 1098.09 548.434Z" fill="#E14938"/>
<path d="M1100.26 554.322C1100.04 553.513 1099.75 552.785 1099.41 552.018C1098.88 550.833 1098.55 549.638 1098.09 548.434C1097.77 547.562 1097.66 546.816 1097.54 545.897C1097.44 545.163 1097.2 544.483 1097.14 543.747C1096.99 541.856 1095.82 540.132 1095.05 538.443C1094.05 536.257 1092.58 534.739 1090.38 533.739C1088.84 533.044 1087.06 532.607 1085.43 532.215C1083.49 531.746 1081.58 531.163 1079.69 530.509C1078.99 530.267 1075.85 529.135 1077.38 528.068C1080.01 526.229 1083.08 528.725 1085.43 529.941C1087.39 530.958 1089.55 531.57 1091.51 532.589C1091.8 532.738 1093.7 534.225 1093.93 534.055C1094.21 533.849 1093.87 532.987 1093.75 532.773C1093.17 531.772 1092.85 530.667 1092.35 529.627C1091.63 528.106 1092.14 525.264 1091.88 523.608C1091.49 521.18 1091.91 520.915 1091.47 518.499C1091.1 516.522 1087.83 513.628 1086.04 512.739C1083.22 511.336 1079.95 510.701 1076.97 509.698C1075.3 509.137 1073.86 508.454 1072.36 507.583C1064.38 502.981 1075.35 506.189 1079.58 508.488C1080.58 509.032 1081.74 509.311 1082.81 509.687C1083.55 509.947 1084.32 510.193 1085.02 510.544C1085.1 510.587 1085.83 511.119 1085.85 510.994V510.994C1085.98 510.156 1085.38 509.4 1084.9 508.7C1080.52 502.29 1077.35 496.658 1075.46 488.614C1075.41 488.066 1074.92 485.729 1074.69 484.474C1074.61 484.037 1074.31 482.895 1074.51 483.289V483.289C1075.81 485.772 1076.62 488.46 1077.66 491.053C1078.61 493.432 1080.76 496.862 1081.66 499.263C1082.81 502.352 1083.9 504.239 1085.93 507.096C1086.81 508.336 1087.84 509.456 1088.82 510.615C1089.1 510.948 1089.37 511.293 1089.63 511.664C1090.15 512.405 1090.81 513.1 1091.22 513.908C1091.26 513.997 1091.3 512.397 1091.29 512.117C1091.25 511.306 1091.28 510.498 1091.26 509.688C1091.2 508.212 1091.38 507.053 1092.05 505.744V505.744C1092.64 504.611 1093.68 504.34 1093.38 505.576C1092.95 507.291 1092.05 510.375 1092.99 515.005C1093.67 519.458 1093.62 523.99 1094.3 528.422C1094.55 530.053 1095.34 531.294 1096.02 532.761C1096.08 532.879 1096.34 533.829 1096.28 533.604C1096.1 532.903 1096.12 532.273 1096.31 531.577C1096.84 529.617 1098.21 528.085 1099.77 526.844C1102.33 524.803 1105.58 523.239 1106.95 520.1C1107.44 518.992 1107.58 517.741 1108.25 516.718C1108.49 516.356 1109.12 515.677 1108.94 516.638C1108.72 517.845 1108.54 519.317 1108.04 520.426C1107.37 521.906 1106.5 523.172 1105.43 524.395C1103.74 526.337 1101.21 527.342 1099.57 529.336C1096.98 532.472 1097.34 537.277 1098.59 540.783C1099.24 542.608 1100.21 544.298 1100.88 546.109C1101.26 547.151 1101.97 547.958 1102.41 548.958C1103.11 550.573 1104.22 551.988 1104.88 553.617C1105.59 555.361 1106.1 559.011 1103.51 559.331C1101.02 559.64 1101.15 555.85 1100.56 554.408C1100.21 553.547 1099.91 552.728 1099.49 551.89C1099.13 551.161 1098.83 550.265 1098.24 549.714" stroke="#E14938" stroke-width="0.615373" stroke-linecap="round" stroke-linejoin="round"/>
<path d="M1238.42 706.702C1239.1 706.026 1239.25 705.303 1239.61 704.458C1239.63 704.411 1239.65 704.364 1239.67 704.316C1239.9 703.75 1240.15 702.7 1240.78 702.476C1241.66 702.164 1242.85 702.955 1243.44 703.508C1244.25 704.274 1244.25 705.17 1243.61 706.032C1243.29 706.458 1242.89 706.806 1242.52 707.185C1242.11 707.614 1241.78 708.124 1241.42 708.593C1240.87 709.293 1240.2 710 1239.85 710.822C1239.41 711.855 1238.81 712.809 1238.61 713.929C1238.35 715.46 1238.69 716.961 1238.72 718.485C1238.81 721.958 1239.77 725.162 1240.99 728.387C1241.5 729.738 1242.01 731.144 1242.26 732.573C1242.41 733.404 1242.46 734.241 1242.57 735.077C1242.87 737.554 1243.11 740.637 1241.35 742.632C1240.76 743.307 1240.14 743.713 1239.24 743.662C1238.08 743.596 1237.01 743.33 1236.03 742.689C1234.3 741.56 1232.83 739.841 1231.61 738.184C1230.34 736.453 1229.23 734.602 1228.01 732.835C1227.32 731.843 1226.03 730.233 1224.95 731.728C1224.09 732.924 1224.09 734.525 1224.22 735.922C1224.53 739.047 1226.09 741.874 1225.96 745.069C1225.88 746.939 1225.53 748.509 1224.47 750.091C1223.6 751.407 1222.23 752.349 1220.58 752.363C1217.44 752.391 1216.74 748.587 1214.96 746.806C1214.36 746.208 1214.09 746.147 1213.48 746.631C1212.27 747.587 1211.8 749.343 1211.58 750.774C1211.41 751.868 1211.22 752.983 1210.73 753.986C1210.27 754.932 1209.67 755.848 1209.04 756.687C1207.52 758.714 1205.46 760.232 1202.98 760.864C1200.46 761.504 1198.25 759.141 1197.63 756.935C1196.85 754.23 1198.66 751.756 1200.11 749.655C1201.35 747.852 1202.73 746.13 1204.36 744.654C1205.93 743.221 1207.26 741.662 1208.61 740.015C1209.33 739.126 1210.24 738 1210.36 736.81C1210.41 736.292 1210.15 735.532 1209.55 735.422C1208.83 735.291 1207.8 735.754 1207.14 735.985C1206.27 736.295 1205.21 736.81 1204.26 736.756C1203.19 736.696 1202.49 735.547 1202.49 734.564C1202.49 733.014 1203.53 731.556 1204.77 730.709C1208.29 728.314 1212.47 727.383 1216.14 725.299C1216.87 724.883 1217.7 724.644 1218.31 724.039C1218.74 723.609 1219.09 723.072 1219.3 722.5C1219.48 722.036 1219.08 721.503 1218.73 721.227C1218.32 720.907 1217.73 720.936 1217.23 720.928C1216.67 720.92 1216.11 720.868 1215.55 720.868C1213.16 720.868 1210.78 721.078 1208.4 721.173C1207.45 721.211 1206.17 720.984 1205.64 720.053C1205.16 719.212 1204.66 718.489 1204.64 717.482C1204.64 716.919 1204.76 716.418 1204.87 715.874C1205.01 715.21 1205.1 714.791 1205.52 714.231C1206.03 713.559 1206.67 712.997 1207.21 712.354C1208.24 711.14 1210.38 710.139 1211.96 710.021C1213.24 709.925 1214.62 709.945 1215.88 710.202C1216.71 710.37 1217.45 710.811 1218.29 710.926C1220.57 711.236 1222.84 711.519 1225.14 711.724C1227.19 711.906 1229.29 711.902 1231.27 711.322C1232.98 710.819 1234.48 709.747 1235.93 708.74C1236.81 708.125 1237.66 707.464 1238.42 706.702Z" fill="#ECAA1E"/>
<path d="M1239 711.215C1239.36 710.775 1239.74 710.362 1240.1 709.938C1240.31 709.575 1240.59 709.231 1240.81 708.895C1241.22 708.278 1241.66 707.754 1242.11 707.172C1242.87 706.199 1245.51 704.796 1244.31 703.21C1243.07 701.569 1240.78 703.359 1239.87 704.531C1239.01 705.626 1238.49 706.942 1237.66 708.061C1237.15 708.752 1236.87 709.554 1236.31 710.229C1235.34 711.402 1234.57 712.728 1233.58 713.893C1231.67 716.133 1228.53 718.275 1225.37 717.744C1223.35 717.405 1221.67 716.075 1219.67 715.686C1218.42 715.44 1217.21 715.344 1215.93 715.471C1214.98 715.566 1213.9 716.023 1212.99 716.347C1212.26 716.604 1212.98 716.771 1213.32 716.789C1214.28 716.841 1215.19 716.445 1216.14 716.34C1218.83 716.041 1221.18 717.646 1223.58 718.589C1225.05 719.163 1226.64 719.501 1228.19 719.089C1228.74 718.942 1229.17 718.71 1229.58 718.304C1229.71 718.175 1229.17 718.733 1229.11 718.817C1228.37 719.86 1227.84 720.893 1226.82 721.706C1224.06 723.917 1220.94 725.675 1218.17 727.894C1215.37 730.365 1212.91 730.969 1211.57 731.353C1210.6 731.63 1211.2 732.239 1212.21 732.192C1213.37 732.136 1214.23 731.797 1215.22 731.179C1215.76 730.84 1216.33 730.546 1216.87 730.2C1217.05 730.081 1218.16 729.474 1218.12 729.54C1217.73 730.138 1217.51 730.86 1217.21 731.508C1217.06 731.832 1216.93 732.154 1216.81 732.477C1216.41 733.606 1216.05 734.754 1215.55 735.843C1214.39 738.355 1213.53 739.846 1211.88 741.853C1210.59 743.412 1209.1 746.238 1207.85 747.829C1206.48 749.561 1204.97 751.176 1203.78 753.041C1203.59 753.337 1204.25 752.679 1204.52 752.452C1205.29 751.8 1206.69 750.544 1207.05 750.294C1211.8 745.829 1214.4 741.438 1217.05 735.912C1217.34 735.309 1217.62 734.6 1218.24 734.36C1218.34 734.324 1218.26 735.03 1218.26 735.104C1218.3 735.724 1218.43 736.342 1218.55 736.951C1218.71 737.831 1218.98 738.734 1219 739.633C1219.1 743.435 1221.24 752.193 1221.24 744.929C1221.24 743.554 1221.14 742.3 1220.86 740.94C1220.37 738.509 1219.52 736.024 1219.36 733.539C1219.26 731.965 1219.95 728.59 1221.16 727.559C1222.63 726.299 1222.98 726.481 1224.49 725.262C1225.52 724.43 1227.66 723.656 1228.41 722.561C1228.93 721.814 1229.56 721.157 1230.01 720.366C1230.11 720.196 1230.57 719.625 1230.82 719.736C1231.02 719.827 1230.76 721.713 1230.77 721.968C1230.85 723.711 1231.28 725.425 1231.36 727.17C1231.46 729.254 1230.96 732.335 1233.26 733.412C1234.59 734.035 1234.13 731.445 1234.01 730.871C1233.72 729.32 1233.36 727.784 1232.91 726.269C1232.54 724.999 1232.13 723.611 1232 722.29C1231.82 720.387 1232.28 718.786 1233.37 717.238C1234.22 716.042 1234.94 714.568 1236.18 713.719C1236.66 713.388 1237.02 712.95 1237.49 712.596C1238.07 712.152 1238.54 711.783 1239 711.215Z" fill="#E14938"/>
<path d="M1242.17 707.414C1241.71 707.881 1241.32 708.365 1240.93 708.902C1240.33 709.731 1239.65 710.431 1239 711.215C1238.54 711.783 1238.07 712.152 1237.49 712.596C1237.02 712.95 1236.66 713.388 1236.18 713.719C1234.94 714.568 1234.22 716.042 1233.37 717.238C1232.28 718.786 1231.82 720.387 1232 722.29C1232.13 723.611 1232.54 724.999 1232.91 726.269C1233.36 727.784 1233.72 729.32 1234.01 730.871C1234.13 731.445 1234.59 734.035 1233.26 733.412C1230.96 732.335 1231.46 729.254 1231.36 727.17C1231.28 725.425 1230.85 723.711 1230.77 721.968C1230.76 721.713 1231.02 719.827 1230.82 719.736C1230.57 719.625 1230.11 720.196 1230.01 720.366C1229.56 721.157 1228.93 721.814 1228.41 722.561C1227.66 723.656 1225.52 724.43 1224.49 725.262C1222.98 726.481 1222.63 726.299 1221.16 727.559C1219.95 728.59 1219.26 731.965 1219.36 733.539C1219.52 736.024 1220.37 738.509 1220.86 740.94C1221.14 742.3 1221.24 743.554 1221.24 744.929C1221.24 752.193 1219.1 743.435 1219 739.633C1218.98 738.734 1218.71 737.831 1218.55 736.951C1218.43 736.342 1218.3 735.724 1218.26 735.104C1218.26 735.03 1218.34 734.324 1218.24 734.36V734.36C1217.62 734.6 1217.34 735.309 1217.05 735.912C1214.4 741.438 1211.8 745.829 1207.05 750.294C1206.69 750.544 1205.29 751.8 1204.52 752.452C1204.25 752.679 1203.59 753.337 1203.78 753.041V753.041C1204.97 751.176 1206.48 749.561 1207.85 747.829C1209.1 746.238 1210.59 743.412 1211.88 741.853C1213.53 739.846 1214.39 738.355 1215.55 735.843C1216.05 734.754 1216.41 733.606 1216.81 732.477C1216.93 732.154 1217.06 731.832 1217.21 731.508C1217.51 730.86 1217.73 730.138 1218.12 729.54C1218.16 729.474 1217.05 730.081 1216.87 730.2C1216.33 730.546 1215.76 730.84 1215.22 731.179C1214.23 731.797 1213.37 732.136 1212.21 732.192V732.192C1211.2 732.239 1210.6 731.63 1211.57 731.353C1212.91 730.969 1215.37 730.365 1218.17 727.894C1220.94 725.675 1224.06 723.917 1226.82 721.706C1227.84 720.893 1228.37 719.86 1229.11 718.817C1229.17 718.733 1229.71 718.175 1229.58 718.304C1229.17 718.71 1228.74 718.942 1228.19 719.089C1226.64 719.501 1225.05 719.163 1223.58 718.589C1221.18 717.646 1218.83 716.041 1216.14 716.34C1215.19 716.445 1214.28 716.841 1213.32 716.789C1212.98 716.771 1212.26 716.604 1212.99 716.347C1213.9 716.023 1214.98 715.566 1215.93 715.471C1217.21 715.344 1218.42 715.44 1219.67 715.686C1221.67 716.075 1223.35 717.405 1225.37 717.744C1228.53 718.275 1231.67 716.133 1233.58 713.893C1234.57 712.728 1235.34 711.402 1236.31 710.229C1236.87 709.554 1237.15 708.752 1237.66 708.061C1238.49 706.942 1239.01 705.626 1239.87 704.531C1240.78 703.359 1243.07 701.569 1244.31 703.21C1245.51 704.796 1242.87 706.199 1242.11 707.172C1241.66 707.754 1241.22 708.278 1240.81 708.895C1240.46 709.432 1239.96 709.99 1239.82 710.611" stroke="#E14938" stroke-width="0.485694" stroke-linecap="round" stroke-linejoin="round"/>
<path d="M961.813 649.125C962.313 648.653 962.437 648.136 962.715 647.536C962.728 647.503 962.742 647.469 962.757 647.435C962.933 647.033 963.134 646.283 963.595 646.135C964.236 645.929 965.073 646.52 965.482 646.929C966.049 647.496 966.031 648.139 965.555 648.747C965.32 649.046 965.022 649.288 964.752 649.553C964.446 649.853 964.2 650.213 963.929 650.543C963.524 651.035 963.029 651.53 962.76 652.114C962.421 652.847 961.972 653.521 961.809 654.322C961.586 655.416 961.803 656.501 961.798 657.597C961.789 660.095 962.414 662.416 963.23 664.757C963.572 665.738 963.905 666.758 964.059 667.79C964.149 668.39 964.171 668.993 964.229 669.596C964.399 671.382 964.511 673.602 963.207 675C962.766 675.473 962.317 675.753 961.671 675.698C960.839 675.628 960.07 675.416 959.379 674.936C958.16 674.09 957.141 672.825 956.298 671.611C955.418 670.342 954.657 668.989 953.813 667.695C953.339 666.969 952.443 665.787 951.639 666.84C950.995 667.681 950.963 668.832 951.033 669.838C951.188 672.09 952.257 674.152 952.096 676.446C952.002 677.787 951.719 678.908 950.932 680.024C950.277 680.952 949.275 681.602 948.088 681.58C945.83 681.537 945.401 678.79 944.157 677.475C943.739 677.033 943.55 676.984 943.1 677.32C942.213 677.983 941.838 679.235 941.65 680.259C941.506 681.042 941.348 681.839 940.979 682.55C940.631 683.22 940.181 683.867 939.712 684.457C938.578 685.883 937.067 686.934 935.269 687.338C933.447 687.748 931.911 686.006 931.503 684.409C931.003 682.449 932.349 680.708 933.43 679.227C934.358 677.956 935.389 676.746 936.584 675.718C937.743 674.72 938.731 673.626 939.73 672.469C940.269 671.845 940.946 671.054 941.056 670.201C941.103 669.83 940.928 669.279 940.5 669.188C939.988 669.079 939.236 669.392 938.76 669.545C938.122 669.75 937.356 670.099 936.673 670.041C935.904 669.976 935.421 669.137 935.44 668.431C935.471 667.317 936.25 666.29 937.159 665.706C939.732 664.055 942.757 663.47 945.432 662.045C945.966 661.76 946.571 661.605 947.018 661.182C947.335 660.882 947.598 660.503 947.763 660.097C947.898 659.766 947.622 659.376 947.375 659.17C947.088 658.932 946.663 658.941 946.309 658.926C945.904 658.909 945.501 658.86 945.096 658.849C943.382 658.802 941.67 658.905 939.957 658.926C939.275 658.935 938.355 658.746 937.995 658.067C937.67 657.453 937.32 656.924 937.331 656.2C937.336 655.795 937.437 655.437 937.526 655.048C937.635 654.574 937.713 654.275 938.026 653.881C938.402 653.408 938.873 653.017 939.278 652.566C940.041 651.714 941.597 651.037 942.734 650.984C943.661 650.94 944.645 650.982 945.549 651.192C946.139 651.329 946.661 651.66 947.269 651.76C948.9 652.028 950.526 652.277 952.171 652.469C953.638 652.641 955.147 652.679 956.582 652.302C957.823 651.975 958.925 651.235 959.981 650.54C960.626 650.115 961.251 649.658 961.813 649.125Z" fill="#ECAA1E"/>
<path d="M962.143 652.379C962.411 652.07 962.688 651.781 962.959 651.483C963.118 651.227 963.324 650.985 963.489 650.748C963.794 650.313 964.124 649.945 964.458 649.536C965.018 648.852 966.946 647.896 966.117 646.733C965.259 645.53 963.576 646.77 962.897 647.594C962.262 648.364 961.856 649.299 961.24 650.086C960.858 650.573 960.646 651.144 960.231 651.618C959.508 652.441 958.925 653.378 958.19 654.196C956.779 655.767 954.479 657.244 952.215 656.799C950.775 656.516 949.592 655.527 948.166 655.208C947.269 655.006 946.402 654.913 945.483 654.979C944.794 655.028 944.01 655.336 943.348 655.55C942.821 655.72 943.331 655.854 943.575 655.874C944.265 655.93 944.928 655.664 945.612 655.608C947.55 655.446 949.208 656.646 950.917 657.372C951.956 657.813 953.093 658.087 954.214 657.822C954.612 657.728 954.932 657.569 955.231 657.286C955.327 657.195 954.926 657.586 954.882 657.645C954.333 658.38 953.929 659.111 953.182 659.676C951.153 661.209 948.879 662.411 946.84 663.95C944.784 665.67 943.003 666.055 942.031 666.304C941.331 666.484 941.749 666.934 942.472 666.919C943.308 666.903 943.933 666.676 944.655 666.252C945.052 666.019 945.465 665.819 945.86 665.581C945.996 665.499 946.803 665.085 946.771 665.132C946.479 665.554 946.309 666.068 946.079 666.527C945.964 666.758 945.865 666.986 945.775 667.216C945.462 668.019 945.182 668.837 944.8 669.61C943.921 671.391 943.274 672.446 942.044 673.855C941.088 674.949 939.958 676.951 939.028 678.068C938.014 679.286 936.892 680.417 936.003 681.733C935.862 681.942 936.35 681.482 936.546 681.324C937.11 680.871 938.145 679.997 938.405 679.824C941.909 676.71 943.863 673.607 945.878 669.689C946.098 669.261 946.313 668.758 946.767 668.598C946.835 668.574 946.765 669.079 946.766 669.133C946.781 669.579 946.865 670.026 946.934 670.465C947.035 671.101 947.21 671.755 947.209 672.401C947.205 675.136 948.563 681.471 948.708 676.251C948.735 675.263 948.687 674.36 948.517 673.378C948.214 671.621 947.648 669.818 947.585 668.03C947.545 666.897 948.108 664.485 948.995 663.768C950.08 662.892 950.325 663.03 951.434 662.184C952.189 661.607 953.745 661.093 954.309 660.322C954.694 659.795 955.158 659.335 955.501 658.776C955.575 658.656 955.913 658.254 956.092 658.339C956.239 658.409 956.011 659.759 956.014 659.942C956.035 661.196 956.311 662.436 956.334 663.692C956.361 665.191 955.943 667.395 957.573 668.214C958.518 668.689 958.237 666.819 958.168 666.404C957.984 665.283 957.759 664.173 957.467 663.075C957.223 662.155 956.961 661.15 956.894 660.198C956.797 658.827 957.159 657.686 957.979 656.595C958.613 655.753 959.159 654.708 960.063 654.122C960.414 653.894 960.686 653.587 961.027 653.341C961.453 653.034 961.796 652.778 962.143 652.379Z" fill="#E14938"/>
<path d="M964.497 649.711C964.152 650.037 963.866 650.377 963.576 650.756C963.128 651.34 962.622 651.829 962.143 652.379C961.796 652.778 961.453 653.034 961.027 653.341C960.686 653.587 960.414 653.894 960.063 654.122C959.159 654.708 958.613 655.753 957.979 656.595C957.159 657.686 956.797 658.827 956.894 660.198C956.961 661.15 957.223 662.155 957.467 663.075C957.759 664.173 957.984 665.283 958.168 666.404C958.237 666.819 958.518 668.689 957.573 668.214C955.943 667.395 956.361 665.191 956.334 663.692C956.311 662.436 956.035 661.196 956.014 659.942C956.011 659.759 956.239 658.409 956.092 658.339C955.913 658.254 955.575 658.656 955.501 658.776C955.158 659.335 954.694 659.795 954.309 660.322C953.745 661.093 952.189 661.607 951.434 662.184C950.325 663.03 950.08 662.892 948.995 663.768C948.108 664.485 947.545 666.897 947.585 668.03C947.648 669.818 948.214 671.621 948.517 673.378C948.687 674.36 948.735 675.263 948.708 676.251C948.563 681.471 947.205 675.136 947.209 672.401C947.21 671.755 947.035 671.101 946.934 670.465C946.865 670.026 946.781 669.579 946.766 669.133C946.765 669.079 946.835 668.574 946.767 668.598V668.598C946.313 668.758 946.098 669.261 945.878 669.689C943.863 673.607 941.909 676.71 938.405 679.824C938.145 679.997 937.11 680.871 936.546 681.324C936.35 681.482 935.862 681.942 936.003 681.733V681.733C936.892 680.417 938.014 679.286 939.028 678.068C939.958 676.951 941.088 674.949 942.044 673.855C943.274 672.446 943.921 671.391 944.8 669.61C945.182 668.837 945.462 668.019 945.775 667.216C945.865 666.986 945.964 666.758 946.079 666.527C946.309 666.068 946.479 665.554 946.771 665.132C946.803 665.085 945.996 665.499 945.86 665.581C945.465 665.819 945.052 666.019 944.655 666.252C943.933 666.676 943.308 666.903 942.472 666.919V666.919C941.749 666.934 941.331 666.484 942.031 666.304C943.003 666.055 944.784 665.67 946.84 663.95C948.879 662.411 951.153 661.209 953.182 659.676C953.929 659.111 954.333 658.38 954.882 657.645C954.926 657.586 955.327 657.195 955.231 657.286C954.932 657.569 954.612 657.728 954.214 657.822C953.093 658.087 951.956 657.813 950.917 657.372C949.208 656.646 947.55 655.446 945.612 655.608C944.928 655.664 944.265 655.93 943.575 655.874C943.331 655.854 942.821 655.72 943.348 655.55C944.01 655.336 944.794 655.028 945.483 654.979C946.402 654.913 947.269 655.006 948.166 655.208C949.592 655.527 950.775 656.516 952.215 656.799C954.479 657.244 956.779 655.767 958.19 654.196C958.925 653.378 959.508 652.441 960.231 651.618C960.646 651.144 960.858 650.573 961.24 650.086C961.856 649.299 962.262 648.364 962.897 647.594C963.576 646.77 965.259 645.53 966.117 646.733C966.946 647.896 965.018 648.852 964.458 649.536C964.124 649.945 963.794 650.313 963.489 650.748C963.224 651.127 962.858 651.518 962.742 651.962" stroke="#E14938" stroke-width="0.349122" stroke-linecap="round" stroke-linejoin="round"/>
<path d="M555.198 247.63C554.473 247.516 553.956 247.748 553.267 247.904C553.231 247.915 553.194 247.925 553.155 247.935C552.701 248.048 551.936 248.367 551.509 248.074C550.917 247.668 550.871 246.574 550.95 245.961C551.059 245.113 551.615 244.708 552.438 244.715C552.844 244.718 553.243 244.812 553.644 244.868C554.097 244.93 554.561 244.903 555.017 244.917C555.696 244.939 556.437 245.034 557.106 244.881C557.947 244.689 558.809 244.629 559.592 244.244C560.662 243.719 561.438 242.829 562.367 242.118C564.484 240.497 566.037 238.455 567.484 236.239C568.09 235.31 568.735 234.364 569.506 233.56C569.954 233.092 570.45 232.681 570.921 232.239C572.32 230.931 574.122 229.388 576.155 229.578C576.842 229.643 577.371 229.839 577.746 230.421C578.229 231.17 578.551 231.958 578.597 232.856C578.677 234.437 578.273 236.123 577.796 237.627C577.297 239.198 576.651 240.723 576.108 242.28C575.803 243.154 575.388 244.682 576.803 244.676C577.934 244.671 578.927 243.947 579.732 243.232C581.533 241.633 582.579 239.384 584.622 238.025C585.817 237.23 586.949 236.737 588.405 236.675C589.617 236.623 590.819 237.046 591.574 238.064C593.01 239.999 590.969 242.154 590.669 244.063C590.568 244.703 590.649 244.895 591.227 245.056C592.366 245.374 593.669 244.874 594.656 244.365C595.411 243.976 596.188 243.59 597.029 243.438C597.823 243.295 598.663 243.253 599.468 243.265C601.412 243.294 603.286 243.886 604.799 245.141C606.334 246.413 605.864 248.847 604.78 250.233C603.45 251.934 601.101 251.932 599.144 251.984C597.466 252.029 595.771 251.947 594.123 251.608C592.524 251.279 590.955 251.158 589.326 251.068C588.447 251.02 587.337 250.963 586.545 251.426C586.2 251.629 585.849 252.136 586.051 252.556C586.293 253.061 587.048 253.492 587.487 253.795C588.076 254.2 588.871 254.619 589.268 255.234C589.714 255.926 589.32 256.882 588.711 257.326C587.749 258.027 586.373 258.038 585.287 257.65C582.214 256.553 579.747 254.379 576.799 253.047C576.21 252.781 575.684 252.372 575.036 252.27C574.574 252.197 574.083 252.222 573.632 252.348C573.265 252.449 573.115 252.937 573.102 253.281C573.088 253.678 573.373 254.031 573.591 254.34C573.841 254.694 574.062 255.065 574.317 255.415C575.395 256.894 576.598 258.273 577.733 259.707C578.185 260.278 578.627 261.179 578.287 261.926C577.98 262.601 577.761 263.242 577.142 263.705C576.796 263.964 576.428 264.112 576.042 264.29C575.57 264.508 575.267 264.637 574.729 264.629C574.084 264.62 573.446 264.477 572.802 264.429C571.584 264.34 569.997 263.466 569.211 262.54C568.57 261.786 567.964 260.927 567.551 260.026C567.282 259.438 567.222 258.78 566.91 258.202C566.072 256.649 565.222 255.113 564.312 253.597C563.5 252.245 562.549 250.945 561.294 249.979C560.208 249.143 558.865 248.695 557.589 248.256C556.809 247.987 556.015 247.758 555.198 247.63Z" fill="#ECAA1E"/>
<path d="M557.733 245.23C557.297 245.204 556.871 245.159 556.443 245.124C556.123 245.157 555.785 245.141 555.476 245.155C554.91 245.181 554.384 245.143 553.82 245.127C552.877 245.1 550.812 244.095 550.37 245.553C549.912 247.063 552.058 247.676 553.197 247.713C554.261 247.747 555.317 247.481 556.384 247.488C557.044 247.493 557.665 247.3 558.336 247.342C559.503 247.415 560.675 247.298 561.845 247.385C564.094 247.553 566.842 248.533 567.942 250.736C568.642 252.137 568.577 253.782 569.237 255.196C569.652 256.085 570.139 256.879 570.794 257.612C571.285 258.163 572.055 258.624 572.668 259.044C573.156 259.379 572.937 258.86 572.794 258.64C572.392 258.021 571.735 257.634 571.241 257.093C569.841 255.561 569.774 253.377 569.272 251.46C568.967 250.294 568.458 249.155 567.502 248.38C567.164 248.106 566.821 247.938 566.386 247.87C566.247 247.848 566.839 247.933 566.918 247.931C567.896 247.916 568.778 247.781 569.742 248.044C572.361 248.758 574.859 249.896 577.49 250.615C580.284 251.231 581.771 252.485 582.615 253.144C583.223 253.618 583.331 252.971 582.847 252.37C582.288 251.675 581.689 251.294 580.86 250.961C580.404 250.777 579.965 250.559 579.507 250.38C579.35 250.318 578.473 249.906 578.533 249.903C579.08 249.875 579.626 249.683 580.164 249.577C581.592 249.297 582.959 248.756 584.391 248.496C586.041 248.197 587.258 248.104 588.987 248.209C590.536 248.303 592.963 247.953 594.515 248.01C596.205 248.072 597.892 248.283 599.584 248.176C599.852 248.159 599.146 248.047 598.884 247.984C598.134 247.803 596.72 247.498 596.405 247.391C591.488 246.461 587.592 246.834 582.967 247.686C582.462 247.779 581.896 247.925 581.465 247.646C581.4 247.605 581.873 247.334 581.917 247.298C582.285 246.994 582.608 246.632 582.934 246.287C583.405 245.787 583.844 245.213 584.391 244.792C586.704 243.012 591.171 237.733 586.667 241.015C585.814 241.637 585.082 242.266 584.363 243.05C583.076 244.452 581.922 246.106 580.451 247.325C579.52 248.097 577.115 249.195 575.931 248.913C574.483 248.567 574.439 248.27 573.002 247.885C572.021 247.623 570.573 246.644 569.553 246.67C568.856 246.688 568.165 246.596 567.469 246.671C567.32 246.687 566.76 246.662 566.715 246.456C566.678 246.286 567.968 245.599 568.12 245.477C569.166 244.641 570.034 243.599 571.08 242.761C572.329 241.76 574.464 240.676 574.094 238.764C573.879 237.657 572.482 239.114 572.176 239.442C571.349 240.329 570.557 241.243 569.82 242.206C569.202 243.012 568.523 243.889 567.763 244.567C566.667 245.542 565.467 245.98 564.011 245.999C562.885 246.012 561.646 246.232 560.562 245.851C560.141 245.703 559.703 245.673 559.273 245.545C558.736 245.386 558.296 245.263 557.733 245.23Z" fill="#E14938"/>
<path d="M553.943 244.981C554.443 245.059 554.917 245.079 555.426 245.077C556.212 245.075 556.955 245.184 557.733 245.23C558.296 245.263 558.736 245.386 559.273 245.545C559.703 245.673 560.141 245.703 560.562 245.851C561.646 246.232 562.885 246.012 564.011 245.999C565.467 245.98 566.667 245.542 567.763 244.567C568.523 243.889 569.202 243.012 569.82 242.206C570.557 241.243 571.349 240.329 572.176 239.442C572.482 239.114 573.879 237.657 574.094 238.764C574.464 240.676 572.329 241.76 571.08 242.761C570.034 243.599 569.166 244.641 568.12 245.477C567.968 245.599 566.678 246.286 566.715 246.456C566.76 246.662 567.32 246.687 567.469 246.671C568.165 246.596 568.856 246.688 569.553 246.67C570.573 246.644 572.021 247.623 573.002 247.885C574.439 248.27 574.483 248.567 575.931 248.913C577.115 249.195 579.52 248.097 580.451 247.325C581.922 246.106 583.076 244.452 584.363 243.05C585.082 242.266 585.814 241.637 586.667 241.015C591.171 237.733 586.704 243.012 584.391 244.792C583.844 245.213 583.405 245.787 582.934 246.287C582.608 246.632 582.285 246.994 581.917 247.298C581.873 247.334 581.4 247.605 581.465 247.646V247.646C581.896 247.925 582.462 247.779 582.967 247.686C587.592 246.834 591.488 246.461 596.405 247.391C596.72 247.498 598.134 247.803 598.884 247.984C599.146 248.047 599.852 248.159 599.584 248.176V248.176C597.892 248.283 596.205 248.072 594.515 248.01C592.963 247.953 590.536 248.303 588.987 248.209C587.258 248.104 586.041 248.197 584.391 248.496C582.959 248.756 581.592 249.297 580.164 249.577V249.577C579.626 249.683 579.08 249.875 578.533 249.903C578.473 249.906 579.35 250.318 579.507 250.38C579.965 250.559 580.404 250.777 580.86 250.961C581.689 251.294 582.288 251.675 582.847 252.37V252.37C583.331 252.971 583.223 253.618 582.615 253.144C581.771 252.485 580.284 251.231 577.49 250.615C574.859 249.896 572.361 248.758 569.742 248.044C568.778 247.781 567.896 247.916 566.918 247.931C566.839 247.933 566.247 247.848 566.386 247.87C566.821 247.938 567.164 248.106 567.502 248.38C568.458 249.155 568.967 250.294 569.272 251.46C569.774 253.377 569.841 255.561 571.241 257.093C571.735 257.634 572.392 258.021 572.794 258.64C572.937 258.86 573.156 259.379 572.668 259.044C572.055 258.624 571.285 258.163 570.794 257.612C570.139 256.879 569.652 256.085 569.237 255.196C568.577 253.782 568.642 252.137 567.942 250.736C566.842 248.533 564.094 247.553 561.845 247.385C560.675 247.298 559.503 247.415 558.336 247.342C557.665 247.3 557.044 247.493 556.384 247.488C555.317 247.481 554.261 247.747 553.197 247.713C552.058 247.676 549.912 247.063 550.37 245.553C550.812 244.095 552.877 245.1 553.82 245.127C554.384 245.143 554.91 245.181 555.476 245.155C555.969 245.132 556.539 245.187 556.989 244.995" stroke="#E14938" stroke-width="0.633538" stroke-linecap="round" stroke-linejoin="round"/>
<path d="M91 241.5L-56 280.5V341L31 308.5L91 286.5H136.5L201 303.5L217.5 321L244 359.5C244 359.5 263.688 402.472 289 409.5C301.606 413 322.5 416.5 322.5 416.5C322.5 416.5 345.263 414.237 358.5 409.5C372.2 404.597 374.798 393.427 387 385.5C396.594 379.267 413 372 413 372L409 365C409 365 386.427 376.475 373 385.5C364.314 391.339 361.1 397.33 351.5 401.5C328.829 411.349 309.742 404.945 289 391.5C272.674 380.917 258 352.5 258 352.5L233 303.5C233 303.5 266.104 321.854 289 321C302.441 320.499 326.962 314.805 340 311.5C370.731 303.711 400.5 290.5 400.5 290.5L451.5 321H517L528.5 308.5C528.5 308.5 478.519 321.698 451.5 308.5C436.314 301.082 418.5 280.5 418.5 280.5C418.5 280.5 436.012 259.772 451.5 254C468.699 247.591 498.5 254 498.5 254C498.5 254 520.651 257.742 534 254C548.81 249.848 553.938 240.622 567 232.5C580.679 223.994 602.5 211.5 602.5 211.5V201L528.5 241.5C495.617 250.048 441.5 241.5 441.5 241.5L379.5 280.5C379.5 280.5 329.58 299.755 296.5 298C256.56 295.881 239.474 271.929 201 261C159.033 249.079 91 241.5 91 241.5Z" fill="#FFB5A6"/>
<path d="M449.426 239.851C448.918 240.955 448.122 241.456 447.275 242.263C447.227 242.303 447.178 242.345 447.129 242.39C446.556 242.913 445.414 243.675 445.426 244.532C445.444 245.722 446.91 246.789 447.828 247.244C449.098 247.872 450.166 247.477 450.913 246.335C451.282 245.772 451.518 245.136 451.81 244.532C452.139 243.85 452.603 243.234 453.002 242.592C453.596 241.635 454.145 240.525 454.97 239.743C456.007 238.76 456.882 237.626 458.131 236.898C459.839 235.904 461.779 235.651 463.613 235.023C467.792 233.591 472.035 233.322 476.421 233.362C478.259 233.378 480.157 233.358 481.974 233.032C483.03 232.843 484.053 232.538 485.095 232.292C488.184 231.565 491.967 230.495 493.571 227.516C494.113 226.509 494.327 225.599 493.87 224.548C493.28 223.194 492.489 222.025 491.292 221.138C489.184 219.576 486.487 218.585 483.975 217.862C481.35 217.107 478.652 216.599 476.005 215.918C474.519 215.536 472.031 214.705 473.339 212.76C474.384 211.204 476.294 210.499 478.02 210.044C481.88 209.028 485.942 209.651 489.693 208.08C491.888 207.161 493.606 206.052 495.029 204.1C496.213 202.476 496.734 200.43 496.023 198.453C494.672 194.695 489.825 195.533 486.916 194.194C485.94 193.745 485.75 193.456 486.058 192.512C486.666 190.649 488.552 189.31 490.161 188.415C491.39 187.731 492.636 187.014 493.618 185.993C494.544 185.029 495.373 183.909 496.096 182.787C497.842 180.079 498.745 176.951 498.404 173.711C498.058 170.426 494.268 168.839 491.361 169.061C487.794 169.334 485.639 172.577 483.771 175.228C482.168 177.503 480.725 179.916 479.679 182.501C478.664 185.009 477.391 187.284 476.019 189.615C475.279 190.872 474.338 192.455 472.971 193.122C472.376 193.412 471.353 193.431 470.958 192.766C470.485 191.969 470.583 190.532 470.569 189.647C470.551 188.462 470.703 186.982 470.219 185.869C469.674 184.618 467.993 184.283 466.821 184.717C464.972 185.4 463.694 187.288 463.231 189.142C461.922 194.389 462.657 199.789 461.786 205.079C461.612 206.135 461.695 207.237 461.24 208.224C460.916 208.928 460.431 209.583 459.844 210.09C459.366 210.503 458.556 210.262 458.071 209.964C457.51 209.618 457.284 208.901 457.057 208.316C456.799 207.647 456.49 207.001 456.241 206.328C455.19 203.483 454.393 200.556 453.457 197.674C453.084 196.526 452.247 195.09 450.905 194.873C449.691 194.677 448.606 194.391 447.4 194.819C446.724 195.058 446.182 195.43 445.581 195.8C444.848 196.25 444.392 196.551 443.909 197.299C443.329 198.197 442.941 199.208 442.414 200.141C441.42 201.904 441.168 204.894 441.724 206.83C442.176 208.406 442.804 210.032 443.668 211.428C444.232 212.34 445.084 213.026 445.595 213.987C446.968 216.569 448.307 219.152 449.563 221.799C450.682 224.161 451.602 226.667 451.783 229.284C451.94 231.55 451.323 233.815 450.758 235.979C450.413 237.301 449.999 238.607 449.426 239.851Z" fill="#ECAA1E"/>
<path d="M455.065 238.559C454.7 239.184 454.372 239.812 454.027 240.434C453.687 240.846 453.399 241.328 453.096 241.74C452.54 242.498 452.11 243.258 451.614 244.05C450.785 245.376 450.276 249.148 447.858 248.419C445.355 247.664 446.479 244.141 447.474 242.536C448.404 241.035 449.741 239.824 450.711 238.346C451.31 237.431 452.147 236.752 452.705 235.787C453.675 234.11 454.914 232.6 455.868 230.906C457.7 227.65 458.872 222.959 456.843 219.418C455.552 217.167 453.224 215.745 451.88 213.537C451.034 212.147 450.387 210.747 449.976 209.17C449.667 207.988 449.738 206.501 449.722 205.27C449.708 204.289 450.222 205.069 450.394 205.467C450.879 206.591 450.81 207.853 451.102 209.031C451.931 212.369 454.882 214.467 457.065 216.919C458.394 218.41 459.498 220.159 459.689 222.188C459.757 222.908 459.673 223.534 459.368 224.197C459.271 224.408 459.697 223.514 459.772 223.407C460.692 222.071 461.688 220.979 462.21 219.407C463.629 215.138 464.353 210.647 465.776 206.358C467.492 201.938 467.128 198.735 466.994 196.966C466.898 195.691 467.889 196.137 468.275 197.356C468.721 198.766 468.695 199.942 468.394 201.392C468.229 202.189 468.128 202.995 467.954 203.791C467.894 204.065 467.657 205.653 467.717 205.573C468.259 204.844 469.024 204.267 469.663 203.622C469.984 203.299 470.31 203.003 470.645 202.722C471.813 201.742 473.024 200.809 474.103 199.732C476.589 197.248 477.989 195.567 479.653 192.707C480.945 190.484 483.658 187.457 485.003 185.264C486.469 182.876 487.727 180.355 489.428 178.118C489.698 177.763 489.205 178.841 489.051 179.26C488.612 180.462 487.733 182.691 487.591 183.225C484.361 190.862 480.269 195.894 474.847 201.492C474.255 202.103 473.533 202.75 473.522 203.601C473.52 203.728 474.327 203.324 474.418 203.297C475.174 203.068 475.97 202.955 476.747 202.823C477.868 202.632 479.064 202.552 480.146 202.185C484.725 200.628 496.11 199.312 487.446 202.513C485.806 203.119 484.265 203.55 482.523 203.823C479.409 204.311 476.066 204.385 473.034 205.294C471.114 205.87 467.392 208.179 466.694 210.072C465.841 212.386 466.211 212.72 465.422 215.056C464.884 216.65 464.904 219.547 463.931 220.929C463.267 221.874 462.76 222.912 462.017 223.804C461.858 223.995 461.377 224.79 461.62 225.041C461.821 225.249 463.953 224.1 464.262 224.001C466.375 223.326 468.61 223.086 470.727 222.412C473.255 221.608 476.71 219.658 479.007 221.925C480.338 223.238 477.044 223.827 476.31 223.948C474.328 224.275 472.34 224.527 470.335 224.661C468.656 224.773 466.823 224.904 465.189 225.331C462.837 225.946 461.131 227.2 459.769 229.192C458.716 230.732 457.276 232.24 456.806 234.085C456.624 234.802 456.263 235.434 456.044 236.143C455.771 237.032 455.537 237.751 455.065 238.559Z" fill="#E14938"/>
<path d="M451.929 244.016C452.28 243.253 452.688 242.581 453.157 241.881C453.882 240.799 454.414 239.673 455.065 238.559C455.537 237.751 455.771 237.032 456.044 236.143C456.263 235.434 456.624 234.802 456.806 234.085C457.276 232.24 458.716 230.732 459.769 229.192C461.131 227.2 462.837 225.946 465.189 225.331C466.823 224.904 468.656 224.773 470.335 224.661C472.34 224.527 474.328 224.275 476.31 223.948C477.044 223.827 480.338 223.238 479.007 221.925C476.71 219.658 473.255 221.608 470.727 222.412C468.61 223.086 466.375 223.326 464.262 224.001C463.953 224.1 461.821 225.249 461.62 225.041C461.377 224.79 461.858 223.995 462.017 223.804C462.76 222.912 463.267 221.874 463.931 220.929C464.904 219.547 464.884 216.65 465.422 215.056C466.211 212.72 465.841 212.386 466.694 210.072C467.392 208.179 471.114 205.87 473.034 205.294C476.066 204.385 479.409 204.311 482.523 203.823C484.265 203.55 485.806 203.119 487.446 202.513C496.11 199.312 484.725 200.628 480.146 202.185C479.064 202.552 477.868 202.632 476.747 202.823C475.97 202.955 475.174 203.068 474.418 203.297C474.327 203.324 473.52 203.728 473.522 203.601V203.601C473.533 202.75 474.255 202.103 474.847 201.492C480.269 195.894 484.361 190.862 487.591 183.225C487.733 182.691 488.612 180.462 489.051 179.26C489.205 178.841 489.698 177.763 489.428 178.118V178.118C487.727 180.355 486.469 182.876 485.003 185.264C483.658 187.457 480.945 190.484 479.653 192.707C477.989 195.567 476.589 197.248 474.103 199.732C473.024 200.809 471.813 201.742 470.645 202.722C470.31 203.003 469.984 203.299 469.663 203.622C469.024 204.267 468.259 204.844 467.717 205.573C467.657 205.653 467.894 204.065 467.954 203.791C468.128 202.995 468.229 202.189 468.394 201.392C468.695 199.942 468.721 198.766 468.275 197.356V197.356C467.889 196.137 466.898 195.691 466.994 196.966C467.128 198.735 467.492 201.938 465.776 206.358C464.353 210.647 463.629 215.138 462.21 219.407C461.688 220.979 460.692 222.071 459.772 223.407C459.697 223.514 459.271 224.408 459.368 224.197C459.673 223.534 459.757 222.908 459.689 222.188C459.498 220.159 458.394 218.41 457.065 216.919C454.882 214.467 451.931 212.369 451.102 209.031C450.81 207.853 450.879 206.591 450.394 205.467C450.222 205.069 449.708 204.289 449.722 205.27C449.738 206.501 449.667 207.988 449.976 209.17C450.387 210.747 451.034 212.147 451.88 213.537C453.224 215.745 455.552 217.167 456.843 219.418C458.872 222.959 457.7 227.65 455.868 230.906C454.914 232.6 453.675 234.11 452.705 235.787C452.147 236.752 451.31 237.431 450.711 238.346C449.741 239.824 448.404 241.035 447.474 242.536C446.479 244.141 445.355 247.664 447.858 248.419C450.276 249.148 450.785 245.376 451.614 244.05C452.11 243.258 452.54 242.498 453.096 241.74C453.58 241.081 454.028 240.245 454.706 239.8" stroke="#E14938" stroke-width="0.617548" stroke-linecap="round" stroke-linejoin="round"/>
<path d="M371.221 409.401C370.047 409.086 369.419 408.387 368.48 407.688C368.433 407.647 368.383 407.606 368.331 407.566C367.719 407.089 366.774 406.092 365.932 406.249C364.762 406.467 363.958 408.092 363.665 409.073C363.26 410.431 363.829 411.418 365.081 411.961C365.699 412.23 366.366 412.355 367.01 412.541C367.738 412.75 368.423 413.103 369.123 413.388C370.167 413.812 371.353 414.166 372.264 414.847C373.408 415.703 374.673 416.373 375.601 417.482C376.869 418.997 377.447 420.867 378.376 422.569C380.493 426.446 381.474 430.583 382.175 434.912C382.469 436.727 382.81 438.594 383.438 440.33C383.803 441.339 384.276 442.295 384.694 443.281C385.933 446.203 387.626 449.751 390.834 450.829C391.917 451.193 392.851 451.251 393.809 450.622C395.044 449.812 396.063 448.835 396.735 447.506C397.919 445.164 398.44 442.339 398.728 439.741C399.029 437.025 399.075 434.281 399.298 431.557C399.424 430.028 399.823 427.435 401.961 428.395C403.671 429.163 404.689 430.926 405.428 432.55C407.082 436.184 407.154 440.293 409.335 443.725C410.612 445.732 411.995 447.239 414.159 448.312C415.96 449.205 418.064 449.373 419.893 448.338C423.369 446.372 421.724 441.736 422.553 438.643C422.831 437.605 423.083 437.369 424.066 437.513C426.005 437.798 427.643 439.43 428.797 440.865C429.679 441.961 430.596 443.068 431.768 443.864C432.874 444.614 434.118 445.241 435.346 445.765C438.31 447.028 441.546 447.39 444.682 446.507C447.861 445.611 448.786 441.608 448.075 438.78C447.204 435.31 443.644 433.734 440.716 432.34C438.203 431.144 435.581 430.129 432.856 429.535C430.212 428.958 427.755 428.088 425.226 427.129C423.862 426.611 422.143 425.952 421.255 424.717C420.869 424.179 420.677 423.174 421.266 422.673C421.972 422.072 423.405 421.926 424.274 421.763C425.439 421.545 426.924 421.444 427.939 420.779C429.08 420.031 429.126 418.318 428.501 417.236C427.516 415.529 425.439 414.588 423.533 414.445C418.141 414.041 412.942 415.676 407.581 415.712C406.51 415.719 405.439 415.986 404.388 415.705C403.641 415.504 402.913 415.136 402.314 414.643C401.827 414.242 401.927 413.403 402.139 412.874C402.385 412.263 403.054 411.919 403.592 411.598C404.208 411.229 404.792 410.816 405.414 410.457C408.04 408.941 410.791 407.661 413.473 406.252C414.542 405.691 415.815 404.623 415.803 403.263C415.792 402.034 415.89 400.916 415.265 399.799C414.915 399.174 414.457 398.703 413.991 398.172C413.423 397.526 413.05 397.127 412.231 396.777C411.248 396.357 410.185 396.146 409.177 395.784C407.272 395.102 404.281 395.359 402.467 396.233C400.99 396.945 399.494 397.839 398.264 398.925C397.46 399.636 396.927 400.591 396.067 401.257C393.754 403.047 391.434 404.803 389.037 406.487C386.898 407.989 384.583 409.319 382.034 409.939C379.827 410.476 377.491 410.251 375.263 410.06C373.902 409.942 372.545 409.755 371.221 409.401Z" fill="#ECAA1E"/>
<path d="M373.447 414.74C372.769 414.486 372.095 414.269 371.423 414.034C370.96 413.769 370.437 413.565 369.979 413.337C369.138 412.916 368.316 412.621 367.452 412.266C366.005 411.673 362.201 411.808 362.512 409.302C362.833 406.707 366.495 407.22 368.246 407.93C369.881 408.594 371.3 409.706 372.922 410.413C373.925 410.849 374.735 411.559 375.781 411.946C377.598 412.619 379.294 413.585 381.125 414.239C384.644 415.496 389.466 415.858 392.613 413.261C394.614 411.608 395.622 409.074 397.571 407.376C398.798 406.307 400.069 405.433 401.554 404.761C402.667 404.258 404.145 404.077 405.355 403.853C406.32 403.674 405.638 404.312 405.275 404.549C404.249 405.217 402.994 405.361 401.882 405.848C398.731 407.228 397.162 410.491 395.114 413.058C393.868 414.619 392.331 416.003 390.364 416.534C389.666 416.722 389.034 416.745 388.329 416.556C388.104 416.496 389.057 416.766 389.176 416.821C390.648 417.502 391.893 418.3 393.53 418.549C397.977 419.226 402.526 419.182 406.994 419.86C411.641 420.805 414.736 419.905 416.457 419.475C417.697 419.165 417.425 420.217 416.288 420.803C414.975 421.481 413.811 421.654 412.33 421.602C411.517 421.574 410.706 421.61 409.892 421.573C409.612 421.56 408.006 421.595 408.096 421.641C408.906 422.051 409.603 422.708 410.347 423.23C410.719 423.491 411.066 423.763 411.4 424.045C412.563 425.031 413.687 426.067 414.931 426.949C417.799 428.98 419.692 430.076 422.792 431.232C425.201 432.131 428.643 434.293 431.032 435.249C433.633 436.291 436.33 437.105 438.822 438.404C439.218 438.61 438.071 438.306 437.633 438.226C436.374 437.995 434.028 437.506 433.479 437.456C425.406 435.561 419.754 432.378 413.322 427.979C412.619 427.499 411.86 426.897 411.02 427.029C410.894 427.049 411.428 427.776 411.471 427.861C411.824 428.568 412.07 429.333 412.331 430.076C412.709 431.15 412.989 432.314 413.534 433.319C415.841 437.57 419.061 448.569 414.443 440.57C413.568 439.055 412.883 437.61 412.32 435.939C411.314 432.951 410.677 429.67 409.269 426.835C408.377 425.039 405.472 421.76 403.488 421.392C401.063 420.942 400.797 421.363 398.361 420.98C396.699 420.718 393.847 421.228 392.32 420.502C391.277 420.007 390.168 419.683 389.164 419.101C388.948 418.977 388.084 418.637 387.877 418.919C387.707 419.151 389.199 421.059 389.348 421.347C390.371 423.316 390.985 425.478 392.006 427.451C393.226 429.806 395.731 432.883 393.885 435.529C392.815 437.063 391.679 433.916 391.435 433.213C390.779 431.315 390.194 429.398 389.724 427.444C389.33 425.808 388.891 424.024 388.195 422.486C387.191 420.271 385.667 418.801 383.474 417.795C381.778 417.017 380.049 415.852 378.15 415.701C377.413 415.642 376.73 415.393 375.993 415.298C375.071 415.178 374.322 415.069 373.447 414.74Z" fill="#E14938"/>
<path d="M367.539 412.571C368.35 412.788 369.081 413.077 369.851 413.421C371.039 413.952 372.239 414.287 373.447 414.74C374.322 415.069 375.071 415.178 375.993 415.298C376.73 415.393 377.413 415.642 378.15 415.701C380.049 415.852 381.778 417.017 383.474 417.795C385.667 418.801 387.191 420.271 388.195 422.486C388.891 424.024 389.33 425.808 389.724 427.444C390.194 429.398 390.779 431.315 391.435 433.213C391.679 433.916 392.815 437.063 393.885 435.529C395.731 432.883 393.226 429.806 392.006 427.451C390.985 425.478 390.371 423.316 389.348 421.347C389.199 421.059 387.707 419.151 387.877 418.919C388.084 418.637 388.948 418.977 389.164 419.101C390.168 419.683 391.277 420.007 392.32 420.502C393.847 421.228 396.699 420.718 398.361 420.98C400.797 421.363 401.063 420.942 403.488 421.392C405.472 421.76 408.377 425.039 409.269 426.835C410.677 429.67 411.314 432.951 412.32 435.939C412.883 437.61 413.568 439.055 414.443 440.57C419.061 448.569 415.841 437.57 413.534 433.319C412.989 432.314 412.709 431.15 412.331 430.076C412.07 429.333 411.824 428.568 411.471 427.861C411.428 427.776 410.894 427.049 411.02 427.029V427.029C411.86 426.897 412.619 427.499 413.322 427.979C419.754 432.378 425.406 435.561 433.479 437.456C434.028 437.506 436.374 437.995 437.633 438.226C438.071 438.306 439.218 438.61 438.822 438.404V438.404C436.33 437.105 433.633 436.291 431.032 435.249C428.643 434.293 425.201 432.131 422.792 431.232C419.692 430.076 417.799 428.98 414.931 426.949C413.687 426.067 412.563 425.031 411.4 424.045C411.066 423.763 410.719 423.491 410.347 423.23C409.603 422.708 408.906 422.051 408.096 421.641C408.006 421.595 409.612 421.56 409.892 421.573C410.706 421.61 411.517 421.574 412.33 421.602C413.811 421.654 414.975 421.481 416.288 420.803V420.803C417.425 420.217 417.697 419.165 416.457 419.475C414.736 419.905 411.641 420.805 406.994 419.86C402.526 419.182 397.977 419.226 393.53 418.549C391.893 418.3 390.648 417.502 389.176 416.821C389.057 416.766 388.104 416.496 388.329 416.556C389.034 416.745 389.666 416.722 390.364 416.534C392.331 416.003 393.868 414.619 395.114 413.058C397.162 410.491 398.731 407.228 401.882 405.848C402.994 405.361 404.249 405.217 405.275 404.549C405.638 404.312 406.32 403.674 405.355 403.853C404.145 404.077 402.667 404.258 401.554 404.761C400.069 405.433 398.798 406.307 397.571 407.376C395.622 409.074 394.614 411.608 392.613 413.261C389.466 415.858 384.644 415.496 381.125 414.239C379.294 413.585 377.598 412.619 375.781 411.946C374.735 411.559 373.925 410.849 372.922 410.413C371.3 409.706 369.881 408.594 368.246 407.93C366.495 407.22 362.833 406.707 362.512 409.302C362.201 411.808 366.005 411.673 367.452 412.266C368.316 412.621 369.138 412.916 369.979 413.337C370.71 413.702 371.61 414.003 372.163 414.596" stroke="#E14938" stroke-width="0.617548" stroke-linecap="round" stroke-linejoin="round"/>
<path d="M371.221 409.401C370.047 409.086 369.419 408.387 368.48 407.688C368.433 407.647 368.383 407.606 368.331 407.566C367.719 407.089 366.774 406.092 365.932 406.249C364.762 406.467 363.958 408.092 363.665 409.073C363.26 410.431 363.829 411.418 365.081 411.961C365.699 412.23 366.366 412.355 367.01 412.541C367.738 412.75 368.423 413.103 369.123 413.388C370.167 413.812 371.353 414.166 372.264 414.847C373.408 415.703 374.673 416.373 375.601 417.482C376.869 418.997 377.447 420.867 378.376 422.569C380.493 426.446 381.474 430.583 382.175 434.912C382.469 436.727 382.81 438.594 383.438 440.33C383.803 441.339 384.276 442.295 384.694 443.281C385.933 446.203 387.626 449.751 390.834 450.829C391.917 451.193 392.851 451.251 393.809 450.622C395.044 449.812 396.063 448.835 396.735 447.506C397.919 445.164 398.44 442.339 398.728 439.741C399.029 437.025 399.075 434.281 399.298 431.557C399.424 430.028 399.823 427.435 401.961 428.395C403.671 429.163 404.689 430.926 405.428 432.55C407.082 436.184 407.154 440.293 409.335 443.725C410.612 445.732 411.995 447.239 414.159 448.312C415.96 449.205 418.064 449.373 419.893 448.338C423.369 446.372 421.724 441.736 422.553 438.643C422.831 437.605 423.083 437.369 424.066 437.513C426.005 437.798 427.643 439.43 428.797 440.865C429.679 441.961 430.596 443.068 431.768 443.864C432.874 444.614 434.118 445.241 435.346 445.765C438.31 447.028 441.546 447.39 444.682 446.507C447.861 445.611 448.786 441.608 448.075 438.78C447.204 435.31 443.644 433.734 440.716 432.34C438.203 431.144 435.581 430.129 432.856 429.535C430.212 428.958 427.755 428.088 425.226 427.129C423.862 426.611 422.143 425.952 421.255 424.717C420.869 424.179 420.677 423.174 421.266 422.673C421.972 422.072 423.405 421.926 424.274 421.763C425.439 421.545 426.924 421.444 427.939 420.779C429.08 420.031 429.126 418.318 428.501 417.236C427.516 415.529 425.439 414.588 423.533 414.445C418.141 414.041 412.942 415.676 407.581 415.712C406.51 415.719 405.439 415.986 404.388 415.705C403.641 415.504 402.913 415.136 402.314 414.643C401.827 414.242 401.927 413.403 402.139 412.874C402.385 412.263 403.054 411.919 403.592 411.598C404.208 411.229 404.792 410.816 405.414 410.457C408.04 408.941 410.791 407.661 413.473 406.252C414.542 405.691 415.815 404.623 415.803 403.263C415.792 402.034 415.89 400.916 415.265 399.799C414.915 399.174 414.457 398.703 413.991 398.172C413.423 397.526 413.05 397.127 412.231 396.777C411.248 396.357 410.185 396.146 409.177 395.784C407.272 395.102 404.281 395.359 402.467 396.233C400.99 396.945 399.494 397.839 398.264 398.925C397.46 399.636 396.927 400.591 396.067 401.257C393.754 403.047 391.434 404.803 389.037 406.487C386.898 407.989 384.583 409.319 382.034 409.939C379.827 410.476 377.491 410.251 375.263 410.06C373.902 409.942 372.545 409.755 371.221 409.401Z" fill="#ECAA1E"/>
<path d="M373.447 414.74C372.769 414.486 372.095 414.269 371.423 414.034C370.96 413.769 370.437 413.565 369.979 413.337C369.138 412.916 368.316 412.621 367.452 412.266C366.005 411.673 362.201 411.808 362.512 409.302C362.833 406.707 366.495 407.22 368.246 407.93C369.881 408.594 371.3 409.706 372.922 410.413C373.925 410.849 374.735 411.559 375.781 411.946C377.598 412.619 379.294 413.585 381.125 414.239C384.644 415.496 389.466 415.858 392.613 413.261C394.614 411.608 395.622 409.074 397.571 407.376C398.798 406.307 400.069 405.433 401.554 404.761C402.667 404.258 404.145 404.077 405.355 403.853C406.32 403.674 405.638 404.312 405.275 404.549C404.249 405.217 402.994 405.361 401.882 405.848C398.731 407.228 397.162 410.491 395.114 413.058C393.868 414.619 392.331 416.003 390.364 416.534C389.666 416.722 389.034 416.745 388.329 416.556C388.104 416.496 389.057 416.766 389.176 416.821C390.648 417.502 391.893 418.3 393.53 418.549C397.977 419.226 402.526 419.182 406.994 419.86C411.641 420.805 414.736 419.905 416.457 419.475C417.697 419.165 417.425 420.217 416.288 420.803C414.975 421.481 413.811 421.654 412.33 421.602C411.517 421.574 410.706 421.61 409.892 421.573C409.612 421.56 408.006 421.595 408.096 421.641C408.906 422.051 409.603 422.708 410.347 423.23C410.719 423.491 411.066 423.763 411.4 424.045C412.563 425.031 413.687 426.067 414.931 426.949C417.799 428.98 419.692 430.076 422.792 431.232C425.201 432.131 428.643 434.293 431.032 435.249C433.633 436.291 436.33 437.105 438.822 438.404C439.218 438.61 438.071 438.306 437.633 438.226C436.374 437.995 434.028 437.506 433.479 437.456C425.406 435.561 419.754 432.378 413.322 427.979C412.619 427.499 411.86 426.897 411.02 427.029C410.894 427.049 411.428 427.776 411.471 427.861C411.824 428.568 412.07 429.333 412.331 430.076C412.709 431.15 412.989 432.314 413.534 433.319C415.841 437.57 419.061 448.569 414.443 440.57C413.568 439.055 412.883 437.61 412.32 435.939C411.314 432.951 410.677 429.67 409.269 426.835C408.377 425.039 405.472 421.76 403.488 421.392C401.063 420.942 400.797 421.363 398.361 420.98C396.699 420.718 393.847 421.228 392.32 420.502C391.277 420.007 390.168 419.683 389.164 419.101C388.948 418.977 388.084 418.637 387.877 418.919C387.707 419.151 389.199 421.059 389.348 421.347C390.371 423.316 390.985 425.478 392.006 427.451C393.226 429.806 395.731 432.883 393.885 435.529C392.815 437.063 391.679 433.916 391.435 433.213C390.779 431.315 390.194 429.398 389.724 427.444C389.33 425.808 388.891 424.024 388.195 422.486C387.191 420.271 385.667 418.801 383.474 417.795C381.778 417.017 380.049 415.852 378.15 415.701C377.413 415.642 376.73 415.393 375.993 415.298C375.071 415.178 374.322 415.069 373.447 414.74Z" fill="#E14938"/>
<path d="M367.539 412.571C368.35 412.788 369.081 413.077 369.851 413.421C371.039 413.952 372.239 414.287 373.447 414.74C374.322 415.069 375.071 415.178 375.993 415.298C376.73 415.393 377.413 415.642 378.15 415.701C380.049 415.852 381.778 417.017 383.474 417.795C385.667 418.801 387.191 420.271 388.195 422.486C388.891 424.024 389.33 425.808 389.724 427.444C390.194 429.398 390.779 431.315 391.435 433.213C391.679 433.916 392.815 437.063 393.885 435.529C395.731 432.883 393.226 429.806 392.006 427.451C390.985 425.478 390.371 423.316 389.348 421.347C389.199 421.059 387.707 419.151 387.877 418.919C388.084 418.637 388.948 418.977 389.164 419.101C390.168 419.683 391.277 420.007 392.32 420.502C393.847 421.228 396.699 420.718 398.361 420.98C400.797 421.363 401.063 420.942 403.488 421.392C405.472 421.76 408.377 425.039 409.269 426.835C410.677 429.67 411.314 432.951 412.32 435.939C412.883 437.61 413.568 439.055 414.443 440.57C419.061 448.569 415.841 437.57 413.534 433.319C412.989 432.314 412.709 431.15 412.331 430.076C412.07 429.333 411.824 428.568 411.471 427.861C411.428 427.776 410.894 427.049 411.02 427.029V427.029C411.86 426.897 412.619 427.499 413.322 427.979C419.754 432.378 425.406 435.561 433.479 437.456C434.028 437.506 436.374 437.995 437.633 438.226C438.071 438.306 439.218 438.61 438.822 438.404V438.404C436.33 437.105 433.633 436.291 431.032 435.249C428.643 434.293 425.201 432.131 422.792 431.232C419.692 430.076 417.799 428.98 414.931 426.949C413.687 426.067 412.563 425.031 411.4 424.045C411.066 423.763 410.719 423.491 410.347 423.23C409.603 422.708 408.906 422.051 408.096 421.641C408.006 421.595 409.612 421.56 409.892 421.573C410.706 421.61 411.517 421.574 412.33 421.602C413.811 421.654 414.975 421.481 416.288 420.803V420.803C417.425 420.217 417.697 419.165 416.457 419.475C414.736 419.905 411.641 420.805 406.994 419.86C402.526 419.182 397.977 419.226 393.53 418.549C391.893 418.3 390.648 417.502 389.176 416.821C389.057 416.766 388.104 416.496 388.329 416.556C389.034 416.745 389.666 416.722 390.364 416.534C392.331 416.003 393.868 414.619 395.114 413.058C397.162 410.491 398.731 407.228 401.882 405.848C402.994 405.361 404.249 405.217 405.275 404.549C405.638 404.312 406.32 403.674 405.355 403.853C404.145 404.077 402.667 404.258 401.554 404.761C400.069 405.433 398.798 406.307 397.571 407.376C395.622 409.074 394.614 411.608 392.613 413.261C389.466 415.858 384.644 415.496 381.125 414.239C379.294 413.585 377.598 412.619 375.781 411.946C374.735 411.559 373.925 410.849 372.922 410.413C371.3 409.706 369.881 408.594 368.246 407.93C366.495 407.22 362.833 406.707 362.512 409.302C362.201 411.808 366.005 411.673 367.452 412.266C368.316 412.621 369.138 412.916 369.979 413.337C370.71 413.702 371.61 414.003 372.163 414.596" stroke="#E14938" stroke-width="0.617548" stroke-linecap="round" stroke-linejoin="round"/>
</svg>
