<svg width="41" height="41" viewBox="0 0 41 41" fill="none" xmlns="http://www.w3.org/2000/svg">
<g id="insta_icon">
<g id="Group">
<g id="Group_2">
<path id="Vector" d="M29.5126 0H11.1805C5.238 0 0.40332 4.86326 0.40332 10.8409V29.2814C0.40332 35.259 5.238 40.1223 11.1805 40.1223H29.5126C35.4551 40.1223 40.2898 35.259 40.2898 29.2814V10.8409C40.2898 4.86326 35.4551 0 29.5126 0ZM37.0674 29.2814C37.0674 33.4717 33.6784 36.8809 29.5126 36.8809H11.1805C7.01481 36.8809 3.62571 33.4718 3.62571 29.2814V10.8409C3.62571 6.65059 7.01474 3.24144 11.1805 3.24144H29.5126C33.6783 3.24144 37.0674 6.65051 37.0674 10.8409V29.2814Z" fill="#2F4246"/>
</g>
</g>
<g id="Group_3">
<g id="Group_4">
<path id="Vector_2" d="M29.2744 18.6612C28.9909 16.7376 28.1184 14.9941 26.7514 13.6191C25.3845 12.2441 23.6513 11.3664 21.7391 11.0813C20.8684 10.9514 19.9857 10.9514 19.1151 11.0813C16.7519 11.4338 14.6666 12.6909 13.2434 14.6211C11.8202 16.5513 11.2293 18.9235 11.5798 21.3006C11.9303 23.6778 13.18 25.7754 15.0988 27.2071C16.6566 28.3693 18.5037 28.9796 20.4082 28.9796C20.8496 28.9796 21.2943 28.9468 21.739 28.8805C24.1023 28.5279 26.1875 27.2708 27.6107 25.3406C29.034 23.4105 29.6249 21.0383 29.2744 18.6612ZM21.2664 25.674C19.7546 25.8999 18.246 25.5194 17.0185 24.6036C15.791 23.6877 14.9916 22.3458 14.7674 20.8252C14.5432 19.3045 14.9211 17.787 15.8316 16.5522C16.7421 15.3175 18.0761 14.5133 19.5878 14.2878C19.8663 14.2462 20.1467 14.2255 20.427 14.2255C20.7074 14.2255 20.9879 14.2462 21.2663 14.2878C23.7772 14.6623 25.7144 16.6109 26.0868 19.1368C26.5495 22.2759 24.3872 25.2086 21.2664 25.674Z" fill="#2F4246"/>
</g>
</g>
<g id="Group_5">
<g id="Group_6">
<path id="Vector_3" d="M31.5692 8.77307C31.2691 8.47129 30.8538 8.29834 30.4299 8.29834C30.0059 8.29834 29.5906 8.47121 29.2905 8.77307C28.9905 9.07493 28.8186 9.49198 28.8186 9.91914C28.8186 10.3463 28.9905 10.7634 29.2905 11.0652C29.5906 11.367 30.0059 11.5399 30.4299 11.5399C30.8538 11.5399 31.2691 11.3671 31.5692 11.0652C31.8692 10.7634 32.0411 10.3456 32.0411 9.91914C32.0411 9.4926 31.8692 9.07485 31.5692 8.77307Z" fill="#2F4246"/>
</g>
</g>
</g>
</svg>
