<svg width="47" height="36" viewBox="0 0 47 36" fill="none" xmlns="http://www.w3.org/2000/svg">
<g id="medium_icon">
<g id="Group">
<path id="Vector" d="M46.7709 5.46911H44.1917C43.5202 5.46911 41.7629 6.20295 41.7629 6.82767V29.514C41.7629 30.1403 43.5202 30.6537 44.1917 30.6537H46.7709V35.6906H30.0775V30.6537H33.417V7.14726H32.8359L24.8001 35.6905H18.5784L10.6466 7.14726H10.0458V30.6536H13.3838V35.6905H0.0297852V30.6536H1.8819C2.60902 30.6536 3.36791 30.1403 3.36791 29.5139V6.82767C3.36791 6.20285 2.60911 5.46911 1.8819 5.46911H0.0297852V0.431641H17.3362L22.987 20.5794H23.139L28.8455 0.431641H46.7709V5.46911Z" fill="#2F4246"/>
</g>
</g>
</svg>
