<svg width="27" height="23" viewBox="0 0 27 23" fill="none" xmlns="http://www.w3.org/2000/svg">
<path d="M26.7522 3.07012C25.7861 3.50576 24.7495 3.80121 23.6603 3.93311C24.7724 3.2554 25.6237 2.18046 26.0272 0.903522C24.984 1.53112 23.8325 1.98684 22.6056 2.23388C21.6231 1.16728 20.2255 0.50293 18.6754 0.50293C15.7016 0.50293 13.2904 2.95663 13.2904 5.9812C13.2904 6.41016 13.338 6.82913 13.4299 7.22977C8.95522 7.00106 4.98741 4.81945 2.3318 1.50441C1.86759 2.31232 1.60351 3.2537 1.60351 4.25858C1.60351 6.1598 2.55488 7.83734 3.99834 8.81878C3.11585 8.78875 2.28587 8.54171 1.55925 8.13108V8.19952C1.55925 10.8535 3.41605 13.0685 5.87808 13.5726C5.427 13.6962 4.95133 13.7646 4.45924 13.7646C4.11153 13.7646 3.77526 13.7296 3.44556 13.6628C4.13117 15.8411 6.11921 17.4251 8.47466 17.4685C6.63262 18.9374 4.30998 19.8104 1.78726 19.8104C1.3526 19.8104 0.924463 19.7837 0.50293 19.7353C2.88626 21.2927 5.71574 22.2007 8.7568 22.2007C18.6624 22.2007 24.077 13.8514 24.077 6.6105L24.0589 5.90111C25.1169 5.13323 26.0321 4.16845 26.7522 3.07012Z" fill="#2C0A92"/>
</svg>
