<svg width="44" height="36" viewBox="0 0 44 36" fill="none" xmlns="http://www.w3.org/2000/svg">
<g id="twitter_icon">
<g id="Group">
<g id="Group_2">
<path id="Vector" d="M43.0544 4.15957C41.4912 4.86444 39.8139 5.34247 38.0516 5.55589C39.8511 4.45936 41.2285 2.72011 41.8813 0.654019C40.1934 1.66948 38.3303 2.40683 36.3451 2.80654C34.7554 1.08078 32.4942 0.00585951 29.9862 0.00585951C25.1745 0.00585951 21.2732 3.97596 21.2732 8.86971C21.2732 9.56377 21.3502 10.2417 21.4988 10.8899C14.2588 10.5198 7.83889 6.98999 3.54213 1.62626C2.79104 2.93345 2.36375 4.4566 2.36375 6.08251C2.36375 9.15869 3.90307 11.8729 6.23858 13.4609C4.81072 13.4123 3.4678 13.0126 2.29214 12.3482V12.4589C2.29214 16.7531 5.29644 20.337 9.28001 21.1527C8.55015 21.3525 7.78053 21.4633 6.98433 21.4633C6.42172 21.4633 5.87764 21.4065 5.34418 21.2985C6.45351 24.823 9.67016 27.386 13.4813 27.4562C10.5009 29.8329 6.74282 31.2454 2.66106 31.2454C1.95778 31.2454 1.26505 31.2022 0.583008 31.1238C4.43923 33.6437 9.01734 35.1129 13.9378 35.1129C29.9651 35.1129 38.7258 21.6037 38.7258 9.88792L38.6966 8.74012C40.4084 7.49768 41.8893 5.93668 43.0544 4.15957Z" fill="#2F4246"/>
</g>
</g>
</g>
</svg>
