<svg width="1440" height="1188" viewBox="0 0 1440 1188" fill="none" xmlns="http://www.w3.org/2000/svg">
<rect width="1440" height="1067" fill="#2F4246"/>
<path d="M622.189 47.6236C631.56 40.276 635.817 34.7469 646.001 28.5741C658.191 21.1854 690.161 12.1224 701.417 14.72V0H0V779.728V1002.26C0 1002.26 82.3617 934.517 127.5 912.5C174.094 889.773 197.204 895.182 259.114 895.182C342.364 895.182 501.978 883.878 509.191 800.942C511.378 775.797 503.242 761.975 497.935 737.299C488.358 692.775 478.452 671.492 465.897 625.168C453.342 578.843 440.353 539.012 433.426 503.944C436.38 480.084 443.817 451.125 443.817 451.125C443.817 451.125 434.693 460.27 426.499 467.577C419.139 472.339 414.81 475.803 410.48 473.205C407.623 468.443 360.259 419.52 349.868 408.697C351.6 392.678 349.436 378.824 344.24 356.744C342.508 343.756 341.25 340.292 343.807 327.737C348.57 304.358 364.156 272.579 373.68 271.887C385.803 271.454 404.852 282.278 404.852 282.278C422.436 306.456 446.414 320.81 448.146 327.737C449.878 334.664 463.732 273.619 500.099 223.831C526.826 187.24 506.564 149.364 533.003 112.565C558.142 77.5751 588.283 74.2064 622.189 47.6236Z" fill="#E9E8E0"/>
<path d="M701.417 14.72V0L1440 -5.5V773.795C1440 773.795 1416.42 919.263 1369.54 880.731C1322.67 842.2 1292.27 962.788 1264.23 938.992C1205.78 889.39 1207 996.971 1165.95 963.856C1124.9 930.741 1108.69 1003.18 1056.85 963.856C1005 924.536 1012.3 998.212 962.899 963.856C913.5 929.5 903.5 987.712 861.5 963.856C819.5 940 818.5 1022.5 788.659 1009C762.268 997.061 752.144 1063.05 725.662 1048.15C670.823 1017.3 641.649 827.86 687.563 752.885C704.86 724.639 746.443 691.841 746.443 691.841L749.101 689.512C785.925 657.243 806.028 639.627 838.226 603.088C868.532 566.721 911.394 506.109 911.394 506.109C911.394 506.109 967.902 386.575 964.212 298.73C963.08 271.767 962.609 256.508 958.151 229.892C953.397 201.501 924.158 167.548 911.394 142.871C891.105 103.647 837.36 76.1977 837.36 76.1977L701.417 14.72Z" fill="#E9E8E0"/>
<path d="M340.171 184.433C349.207 144.428 359.089 117.212 371.475 96.979" stroke="#CEA273" stroke-width="1.29882"/>
<path d="M412.213 778.429C417.907 754.598 419.657 738.22 417.229 718.683" stroke="#929E81" stroke-width="1.29882"/>
<path d="M308.381 536.848C306.392 547.349 305.311 556.4 305.364 564.556C305.474 581.484 310.465 594.552 322.338 608.716" stroke="#CEA273" stroke-width="1.29882"/>
<path d="M287.266 512.603C286.006 544.443 255.679 565.14 271.68 592.697C287.266 619.539 259.664 641.938 257.393 658.937" stroke="#929E81" stroke-width="1.29882"/>
<path d="M398.531 193.958C401.066 215.643 396.76 228.808 377.577 247.412" stroke="#85927A" stroke-width="1.29882"/>
<path d="M988.025 77.4966C1024.05 110.999 1040.2 139.077 1048.74 195.257M936.918 613.965C916.176 645.133 856.408 672.159 856.408 672.159" stroke="#CEA273" stroke-width="1.29882"/>
<path fill-rule="evenodd" clip-rule="evenodd" d="M373.248 97.8448C375.161 97.8448 376.711 96.2941 376.711 94.3813C376.711 92.4684 375.161 90.9177 373.248 90.9177C371.335 90.9177 369.784 92.4684 369.784 94.3813C369.784 96.2941 371.335 97.8448 373.248 97.8448ZM373.247 96.9789C374.682 96.9789 375.845 95.8159 375.845 94.3813C375.845 92.9466 374.682 91.7836 373.247 91.7836C371.813 91.7836 370.65 92.9466 370.65 94.3813C370.65 95.8159 371.813 96.9789 373.247 96.9789Z" fill="#CEA273"/>
<path fill-rule="evenodd" clip-rule="evenodd" d="M323.892 614.777C325.805 614.777 327.356 613.226 327.356 611.314C327.356 609.401 325.805 607.85 323.892 607.85C321.98 607.85 320.429 609.401 320.429 611.314C320.429 613.226 321.98 614.777 323.892 614.777ZM323.892 613.911C325.327 613.911 326.49 612.748 326.49 611.314C326.49 609.879 325.327 608.716 323.892 608.716C322.458 608.716 321.295 609.879 321.295 611.314C321.295 612.748 322.458 613.911 323.892 613.911Z" fill="#CEA273"/>
<path fill-rule="evenodd" clip-rule="evenodd" d="M937.441 616.541C939.354 616.541 940.904 614.991 940.904 613.078C940.904 611.165 939.354 609.614 937.441 609.614C935.528 609.614 933.977 611.165 933.977 613.078C933.977 614.991 935.528 616.541 937.441 616.541ZM937.441 615.675C938.876 615.675 940.039 614.512 940.039 613.078C940.039 611.643 938.876 610.48 937.441 610.48C936.006 610.48 934.843 611.643 934.843 613.078C934.843 614.512 936.006 615.675 937.441 615.675Z" fill="#CEA273"/>
<path fill-rule="evenodd" clip-rule="evenodd" d="M1048.64 201.751C1050.55 201.751 1052.1 200.2 1052.1 198.287C1052.1 196.374 1050.55 194.824 1048.64 194.824C1046.72 194.824 1045.17 196.374 1045.17 198.287C1045.17 200.2 1046.72 201.751 1048.64 201.751ZM1048.64 200.885C1050.07 200.885 1051.23 199.722 1051.23 198.287C1051.23 196.853 1050.07 195.69 1048.64 195.69C1047.2 195.69 1046.04 196.853 1046.04 198.287C1046.04 199.722 1047.2 200.885 1048.64 200.885Z" fill="#CEA273"/>
<path fill-rule="evenodd" clip-rule="evenodd" d="M206.998 654.608C208.911 654.608 210.462 653.057 210.462 651.144C210.462 649.231 208.911 647.681 206.998 647.681C205.085 647.681 203.535 649.231 203.535 651.144C203.535 653.057 205.085 654.608 206.998 654.608ZM206.998 653.742C208.433 653.742 209.596 652.579 209.596 651.144C209.596 649.709 208.433 648.546 206.998 648.546C205.564 648.546 204.401 649.709 204.401 651.144C204.401 652.579 205.564 653.742 206.998 653.742Z" fill="#FFB5A6"/>
<path fill-rule="evenodd" clip-rule="evenodd" d="M188.815 221.666C190.727 221.666 192.278 220.115 192.278 218.203C192.278 216.29 190.727 214.739 188.815 214.739C186.902 214.739 185.351 216.29 185.351 218.203C185.351 220.115 186.902 221.666 188.815 221.666ZM188.815 220.8C190.249 220.8 191.412 219.637 191.412 218.203C191.412 216.768 190.249 215.605 188.815 215.605C187.38 215.605 186.217 216.768 186.217 218.203C186.217 219.637 187.38 220.8 188.815 220.8Z" fill="#FFB5A6"/>
<path fill-rule="evenodd" clip-rule="evenodd" d="M1167.26 530.786C1169.18 530.786 1170.73 529.236 1170.73 527.323C1170.73 525.41 1169.18 523.859 1167.26 523.859C1165.35 523.859 1163.8 525.41 1163.8 527.323C1163.8 529.236 1165.35 530.786 1167.26 530.786ZM1167.26 529.92C1168.7 529.92 1169.86 528.757 1169.86 527.323C1169.86 525.888 1168.7 524.725 1167.26 524.725C1165.83 524.725 1164.66 525.888 1164.66 527.323C1164.66 528.757 1165.83 529.92 1167.26 529.92Z" fill="#FFB5A6"/>
<path fill-rule="evenodd" clip-rule="evenodd" d="M1080.67 202.617C1082.59 202.617 1084.14 201.066 1084.14 199.153C1084.14 197.24 1082.59 195.69 1080.67 195.69C1078.76 195.69 1077.21 197.24 1077.21 199.153C1077.21 201.066 1078.76 202.617 1080.67 202.617ZM1080.67 201.751C1082.11 201.751 1083.27 200.588 1083.27 199.153C1083.27 197.719 1082.11 196.556 1080.67 196.556C1079.24 196.556 1078.08 197.719 1078.08 199.153C1078.08 200.588 1079.24 201.751 1080.67 201.751Z" fill="#FFB5A6"/>
<path fill-rule="evenodd" clip-rule="evenodd" d="M416.542 719.549C418.455 719.549 420.005 717.998 420.005 716.085C420.005 714.173 418.455 712.622 416.542 712.622C414.629 712.622 413.078 714.173 413.078 716.085C413.078 717.998 414.629 719.549 416.542 719.549ZM416.542 718.683C417.976 718.683 419.139 717.52 419.139 716.085C419.139 714.651 417.976 713.488 416.542 713.488C415.107 713.488 413.944 714.651 413.944 716.085C413.944 717.52 415.107 718.683 416.542 718.683Z" fill="#929E81"/>
<path fill-rule="evenodd" clip-rule="evenodd" d="M1271.17 383.586C1273.08 383.586 1274.63 382.036 1274.63 380.123C1274.63 378.21 1273.08 376.659 1271.17 376.659C1269.26 376.659 1267.71 378.21 1267.71 380.123C1267.71 382.036 1269.26 383.586 1271.17 383.586ZM1271.17 382.72C1272.6 382.72 1273.77 381.557 1273.77 380.123C1273.77 378.688 1272.6 377.525 1271.17 377.525C1269.73 377.525 1268.57 378.688 1268.57 380.123C1268.57 381.557 1269.73 382.72 1271.17 382.72Z" fill="#929E81"/>
<path fill-rule="evenodd" clip-rule="evenodd" d="M1086.74 647.68C1088.65 647.68 1090.2 646.13 1090.2 644.217C1090.2 642.304 1088.65 640.753 1086.74 640.753C1084.82 640.753 1083.27 642.304 1083.27 644.217C1083.27 646.13 1084.82 647.68 1086.74 647.68ZM1086.74 646.815C1088.17 646.815 1089.33 645.652 1089.33 644.217C1089.33 642.782 1088.17 641.619 1086.74 641.619C1085.3 641.619 1084.14 642.782 1084.14 644.217C1084.14 645.652 1085.3 646.815 1086.74 646.815Z" fill="#929E81"/>
<path fill-rule="evenodd" clip-rule="evenodd" d="M287.525 513.469C289.438 513.469 290.989 511.918 290.989 510.005C290.989 508.092 289.438 506.542 287.525 506.542C285.612 506.542 284.062 508.092 284.062 510.005C284.062 511.918 285.612 513.469 287.525 513.469ZM287.525 512.603C288.96 512.603 290.123 511.44 290.123 510.005C290.123 508.571 288.96 507.408 287.525 507.408C286.09 507.408 284.927 508.571 284.927 510.005C284.927 511.44 286.09 512.603 287.525 512.603Z" fill="#929E81"/>
<path fill-rule="evenodd" clip-rule="evenodd" d="M375.845 252.838C377.758 252.838 379.309 251.287 379.309 249.374C379.309 247.462 377.758 245.911 375.845 245.911C373.933 245.911 372.382 247.462 372.382 249.374C372.382 251.287 373.933 252.838 375.845 252.838ZM375.845 251.972C377.28 251.972 378.443 250.809 378.443 249.374C378.443 247.94 377.28 246.777 375.845 246.777C374.41 246.777 373.247 247.94 373.247 249.374C373.247 250.809 374.41 251.972 375.845 251.972Z" fill="#929E81"/>
<path d="M1159.47 253.704C1159.47 253.704 1107.89 245.863 1089.77 222.099C1084.72 215.488 1082.37 208.882 1081.33 202.184M1173.76 640.32C1169.24 658.128 1159.39 671.158 1168.56 687.078C1172.8 694.434 1184.15 702.231 1184.15 702.231" stroke="#F2AEA0" stroke-width="1.29882"/>
<path d="M1335.24 391.379C1335.24 391.379 1322.73 405.362 1311.87 408.697C1296.81 413.319 1282.59 398.202 1272.44 382.72M1067 602C1067 602 1080.42 617.638 1086.26 641.186" stroke="#929E81" stroke-width="1.29882"/>
<path d="M987.592 77.4965C1029.8 116.753 1044.73 148.563 1052.1 226.861M1052.1 42.5C1052.1 42.5 1089.77 84.4235 1076.78 149.798C1071.16 178.098 1072.27 199.591 1089.77 222.532C1107.89 246.296 1159.47 254.137 1159.47 254.137M1145.62 236.819C1155.93 243.624 1161.72 244.789 1172.03 243.746M1089.77 84.4235C1098.08 98.7306 1101.53 106.868 1100.16 122.089M1197.39 77.4965C1193.81 42.6044 1198.95 26.645 1215.14 1.73169M1152.54 130.315L1194.54 158.024M987.592 254.137C978.926 272.293 976.958 282.709 979.366 301.76M1027.42 226.861C1032.9 256.117 1032.81 272.501 1027.42 301.76M1078.94 290.071C1117.48 354.579 1131.77 337.096 1168.56 354.579M1156.26 283.746L1197.39 301.064M1238.7 208.678C1238.7 208.678 1282.43 221.856 1282.43 243.746C1282.43 265.393 1278.5 290.071 1299.31 297.431C1317.01 303.69 1341.31 320.81 1341.31 320.81M1238.7 181.402C1251.53 178.876 1255.06 183.2 1257.75 196.555M1238.7 73.1671C1244.03 75.7407 1246.89 77.3917 1249.52 84.4235M1249.52 265.393C1265.43 282.249 1250.82 297.431 1269.44 313.883M1257.75 354.579C1257.75 354.579 1283.5 417.972 1312.3 409.13C1323.16 405.795 1335.68 391.812 1335.68 391.812M1299.31 427.746C1320.31 449.344 1330.98 462.859 1346.5 491.389M1027.42 383.586C994.349 447.012 985.484 465.871 1003.5 529.92M966.901 512.603C966.901 512.603 962.868 542.066 954.712 571M853.812 674.09C853.812 674.09 875.438 663.952 897.5 649.276M858.142 706.994C847.637 710.337 844.391 713.665 845.586 723.445M926.98 726.994C926.98 726.994 882.386 733.055 872.429 748.208C867.862 755.157 871.098 767.913 868.965 778.947C866.447 791.97 854.602 806.489 853.812 802.325M932.608 697.469C965.598 700.333 979.139 695.449 989.324 668.462M1030.56 656.576C1035.06 704.648 1033.06 724.327 1018 741M1070.5 605.5C1083 629 1092.91 640.066 1090.63 697.469M1111 607C1111 607 1131.93 630.751 1130.03 668.462M1037.81 786.222C1037.28 821.333 1024.3 839.777 989.324 871.511M946.029 760.678C961.039 759.067 967.653 755.108 977.202 744.227M1052.97 760.678C1061.89 759.171 1065.38 756.783 1067.25 748.123M1094.1 459.351C1094.1 459.351 1142.8 499.239 1168.56 529.92M1173.76 640.753C1169.24 658.561 1159.39 671.591 1168.56 687.511C1172.8 694.867 1184.15 702.664 1184.15 702.664M1250.82 613.478C1250.82 613.478 1262.88 682.123 1233.07 697.469C1227.51 700.332 1231.77 691.841 1217.92 702.664C1204.06 713.488 1225.71 778.429 1225.71 778.429M1277.23 697.469C1323.25 713.362 1328.96 734.314 1327.88 778.429M1299.31 640.753C1307.8 646.8 1311.69 655.951 1318.36 674.09M1332.21 546.805C1316.73 598.214 1316.96 625.21 1341.31 668.462M720.467 776.264C753.415 810.295 697.097 882.17 733.888 899.653M901.869 810.9C901.869 810.9 933.229 827.906 945.596 845.968C958.012 864.102 948.07 883.059 962.48 899.653C974.788 913.824 1004.48 923.031 1004.48 923.031M912.692 867.615C928.602 884.47 934.847 894.606 932.607 916.104M1120.94 734.702C1120.94 734.702 1132.99 803.346 1103.19 818.692C1097.63 821.556 1101.89 813.064 1088.04 823.888C1074.18 834.711 1095.83 899.653 1095.83 899.653M1169.43 761.977C1177.92 768.023 1181.81 777.175 1188.48 795.314M1230.04 819.558C1230.04 819.558 1185.45 825.62 1175.49 840.772C1170.92 847.722 1174.16 860.478 1172.02 871.511C1169.51 884.535 1157.66 899.054 1156.87 894.89M1235.67 810.034C1268.66 812.898 1282.2 808.014 1292.38 781.027M802.293 781.892C769.218 845.318 765.66 881.062 783.676 945.111M833.464 838.608C848.474 836.996 855.087 833.037 864.636 822.156M857.709 877.573C849.043 895.729 847.075 906.145 849.483 925.196M1250.39 512.603C1266.3 529.458 1272.54 539.594 1270.3 561.092M26.0002 243.746C58.9482 277.777 2.63042 349.652 39.4212 367.134M442.5 196.555C447.982 225.811 447.884 242.195 442.5 271.454M513.117 33.3365C480.043 96.7621 476.485 132.506 494.5 196.555M412.346 100.442C458.369 116.335 464.072 137.287 463 181.402M1407.99 269.29C1407.46 304.4 1394.48 322.845 1359.5 354.579M1359.06 184.866C1363.56 232.937 1361.56 252.616 1346.5 269.29M1390.5 687.511C1390.5 687.511 1350.5 763.893 1370.5 758.947C1390.5 754 1378 835 1378 835M1364.5 529.92C1379.21 532.822 1382.32 538.878 1384 553M1359.5 618.24C1367.99 648.772 1377.36 651.008 1398.5 640.753M1312.3 130.315C1317.78 159.571 1317.68 175.955 1312.3 205.214M1363.95 115.949C1363.95 115.949 1389.7 179.342 1418.5 170.5M1364.1 427.469C1397.09 430.333 1410.63 425.449 1420.81 398.462M945.596 122.089C991.618 137.982 997.322 158.934 996.25 203.05M837.085 15.5106C870 29.5 819 46 870 67" stroke="#300000" stroke-opacity="0.5" stroke-width="3.46353" stroke-dasharray="4.33 4.33"/>
<path d="M186.089 219.068C134.569 232.49 152.319 252.405 128.507 289.638C104.696 326.871 135.002 344.621 134.569 368.433" stroke="#FFB5A6" stroke-width="1.29882"/>
<path d="M398.359 194.391C401.278 219.365 395.124 233.039 367.62 256.734M440.354 38.0989C387.733 66.3759 361.682 89.5346 340.344 184M280.598 32.0377C268.864 61.205 269.03 78.2043 275.403 109.101M261.549 189.195C250.361 197.767 246.444 202.828 242.067 212.141M225.182 115.595C225.182 115.595 216.15 211.591 185.784 219.501C134.264 232.923 152.015 252.838 128.203 290.071C104.391 327.304 134.697 345.054 134.264 368.866C133.831 392.678 128.203 403.935 128.203 403.935M367.62 38.0989L348.137 55.8495M327.356 38.0989C344.964 20.6708 357.323 15.3366 379.742 6.49414M327.356 126.852C329.919 149.683 329.28 157.272 327.356 168.847M313.069 132.047C317.55 144.344 317.066 150.137 313.069 159.323M242.067 790.857C189.446 819.134 157.334 789.907 135.996 884.373M220.852 723.445C209.664 732.017 205.748 737.078 201.37 746.391M339.046 652.876C287.525 666.297 305.276 686.212 281.464 723.445C257.652 760.678 281.897 797.045 281.464 820.857C281.031 844.669 275.403 855.926 275.403 855.926M327.356 793.582C329.919 816.413 329.28 824.002 327.356 835.577M313.069 798.777C317.55 811.074 317.066 816.867 313.069 826.053" stroke="#300000" stroke-opacity="0.5" stroke-width="3.46353" stroke-dasharray="4.33 4.33"/>
<path d="M440.354 38.0989C387.733 66.3759 361.682 89.5346 340.344 184M280.598 32.0377C268.863 61.205 269.029 78.2043 275.403 109.101M367.619 38.0989L348.137 55.8495M327.356 38.0989C344.963 20.6708 357.322 15.3366 379.742 6.49414M327.356 126.852C329.918 149.683 329.279 157.272 327.356 168.847M313.069 132.047C317.549 144.344 317.065 150.137 313.069 159.323M29.5981 828.038C17.8633 857.205 18.0293 874.204 24.4028 905.101M116.619 834.099L97.137 851.849M76.3558 834.099C93.9634 816.671 106.322 811.337 128.742 802.494" stroke="#300000" stroke-opacity="0.5" stroke-width="3.46353" stroke-dasharray="4.33 4.33"/>
<path d="M223.017 326.438L191.845 405.666M316.099 206.946L306.575 223.831M145.52 310.419L158.076 368M172.796 447.661C175.866 474.967 179.155 489.579 191.845 512.603M316.099 300.028C310.952 308.305 309.181 313.181 308.306 322.541M298.349 310.419C298.349 310.419 273.971 370.623 271.939 411.294C269.942 451.273 289.108 472.605 287.525 512.603C286.265 544.443 255.939 565.14 271.939 592.697C287.525 619.539 259.924 641.938 257.652 658.937C255.917 671.925 227.346 697.036 227.346 697.036M105.224 496.024C133.541 539.43 142.677 563.566 138.128 605.991M172.796 537.28C172.796 537.28 209.596 584.038 223.017 609.582C236.438 635.125 191.845 663.266 191.845 663.266M340.344 474.937C342.707 487.448 342.196 494.464 340.344 506.975M308.306 537.28C300.888 576.44 306.112 595.435 335.582 623.003M375.412 502.212C377.585 508.129 377.801 511.448 375.412 517.365M335.582 537.28V549.403M370.65 555.031C380.444 573.64 385.955 581.851 395.761 592.697M370.65 609.582C408.185 631.767 422.867 649.381 429.097 697.036M447.714 692.706C452.811 713.672 454.233 725.426 447.714 746.391M412.212 692.706C420.427 726.184 420.212 744.953 412.212 778.429M181.455 635.991C161.596 682.014 151.615 707.988 141.624 755.483M172.796 715.219C162.537 739.719 159.369 753.572 158.076 778.429M145.52 426.014C136.035 430.778 132.632 434.568 127.77 442.033M106.989 381.854C105.248 393.703 102.741 399.042 94.8662 405.666M237.652 502.56C236.768 531.941 237.551 548.434 242.415 577.892M340.344 761.977C340.344 761.977 377.144 808.735 390.565 834.278M357.662 669.761C350.243 708.92 355.467 727.915 384.937 755.483M126.713 168.707C131.811 189.672 133.232 201.426 126.713 222.391M91.2122 168.707C99.4272 202.184 99.2114 220.953 91.2122 254.429M36.6615 145.761C29.2426 184.92 34.467 203.915 63.9368 231.483M62.3437 619.937C64.707 632.448 64.1956 639.464 62.3437 651.975M30.306 682.28C22.8871 721.44 28.1115 740.435 57.5813 768.003M57.5813 682.28V694.403M92.6496 700.031C102.443 718.641 107.954 726.851 117.76 737.697M23.2241 453.024C51.5408 496.43 60.6767 520.566 56.1277 562.991M63.5205 383.014C54.0353 387.778 50.6325 391.568 45.7699 399.033M245.097 242.447L257.652 300.028M1404.5 467C1406.86 479.511 1406.35 486.527 1404.5 499.038M150.377 50.7776C142.958 89.9369 148.182 108.932 177.652 136.5M210.462 27.4187L223.017 85" stroke="#300000" stroke-opacity="0.5" stroke-width="3.46353" stroke-dasharray="4.33 4.33"/>
<path d="M459.836 430.344C459.836 430.344 474.556 539.878 516.118 572.782C557.68 605.685 563.43 608.249 591.017 634.692C674.575 714.787 713.539 703.53 713.539 703.53" stroke="white" stroke-width="1.29882"/>
<path d="M746.01 691.408C821.259 628.067 858.383 581.206 910.961 505.676" stroke="#2F4246" stroke-width="1.29882"/>
<path d="M404.419 282.711C404.419 282.711 379.309 269.29 371.516 273.186C363.723 277.082 352.027 300.037 345.972 319.944C335.925 352.982 355.232 373.832 350.302 408.264C350.302 408.264 404.419 464.113 410.481 472.339C416.542 480.565 442.951 451.125 442.951 451.125" stroke="#2F4246" stroke-width="1.29882"/>
<path d="M440.787 466.278C440.787 466.278 434.495 487.059 433.859 503.944C433.224 520.829 513.521 780.161 513.521 780.161" stroke="#2F4246" stroke-width="1.29882"/>
<path d="M415.243 311.718C415.243 311.718 401.149 299.454 390.132 298.73C382.772 298.246 361.558 332.051 361.558 357.61C361.558 361.073 380.607 382.72 390.132 393.977C393.596 397.44 407.45 384.885 407.45 384.885" stroke="white" stroke-width="1.29882"/>
<path d="M836.928 76.1978C903.399 114.486 921.398 145.69 929.577 213.44" stroke="#2F4246" stroke-width="1.29882"/>
<path d="M716.57 468.881C695.356 464.309 629.549 497.022 629.549 497.022C629.549 497.022 633.463 499.332 639.074 502.088C639.074 502.088 658.507 541.78 680.203 558.062C689.11 564.746 692.522 569.754 703.582 571.05C710.706 571.885 715.894 569.528 723.064 569.751C733.069 570.062 740.331 577.823 750.34 577.977C773.608 578.336 796.231 542.043 796.231 542.043L801.86 543.347C804.89 543.613 834.33 538.585 834.33 538.585C834.33 538.585 773.285 475.808 765.925 475.808C756.863 475.808 751.174 482.059 742.114 481.869C728.572 481.586 729.811 471.734 716.57 468.881Z" fill="#FFB5A6"/>
<path d="M629.549 497.883C629.549 497.883 633.463 500.193 639.074 502.949C646.093 506.397 655.767 510.543 663.751 511.737C678.271 513.908 686.263 504.898 700.551 508.274C713.651 511.369 716.204 525.209 729.558 526.89C739.857 528.187 745.156 521.143 755.535 521.262C775.722 521.493 781.748 542.444 801.86 544.208C804.89 544.474 834.33 539.445 834.33 539.445" stroke="#515F62" stroke-width="2.59765"/>
<path d="M740.382 211.708C744.788 203.175 745.87 198.446 746.443 190.061M733.455 211.708C739.773 200.437 741.905 194.984 742.114 187.464M728.693 209.977C734.033 198.445 734.946 192.899 733.455 184.433M722.198 206.513C726.179 195.019 726.913 188.573 725.662 177.073M716.57 204.781C717.464 193.852 716.952 187.78 713.54 177.073M709.643 202.184C711.288 191.845 710.346 186.381 706.18 177.073M706.18 200.452C701.933 194.172 696.68 188.063 694.923 172.744M698.387 197.854C693.268 188.738 689.167 182.518 690.161 172.744M687.13 193.958C684.361 185.058 683.411 180.049 684.965 171.012M680.203 192.226C675.44 182.684 673.199 177.083 672.843 164.951M682.801 192.226C672.147 181.633 666.589 175.505 661.587 162.353M671.977 188.762C661.116 181.048 655.132 175.423 644.702 162.353" stroke="white" stroke-width="1.29882"/>
<path d="M735.745 212.4C735.745 212.4 661.93 185.532 641.933 178.451C613.614 175.086 552.918 187.896 552.918 187.896C552.918 187.896 625.336 152.384 648.598 160.621C671.86 168.859 714.812 183.879 743.923 194.188" stroke="url(#paint0_linear)" stroke-width="1.29882"/>
<path d="M792.767 319.511C783.252 281.502 789.52 263.199 826.537 237.252C826.537 237.252 874.16 237.252 896.24 239.417C909.637 245.183 926.979 260.631 926.979 260.631" stroke="white" stroke-width="1.29882"/>
<path d="M830.433 207.812C827.53 219.298 826.918 225.755 827.403 237.252M838.226 212.141C834.732 221.875 834.231 227.381 835.196 237.252M859.873 214.306C849.879 222.411 845.002 227.319 838.659 237.252M867.666 219.068C857.242 225.402 851.846 229.24 844.72 237.685M883.685 219.068C872.521 223.05 866.383 224.805 852.946 237.685M879.789 225.996C871.851 230.178 867.779 232.646 862.471 237.685M897.972 225.996C887.443 227.284 881.647 229.577 871.563 237.685M849.483 210.41C846.139 221.389 840.845 227.093 831.299 237.252M832.598 210.41C830.254 220.818 829.841 226.712 829.568 237.252" stroke="white" stroke-width="1.29882"/>
<path d="M803.626 293.642C797.751 298.841 791.013 300.844 789.272 308.493C786.96 318.652 798.006 324.905 805.092 329.21C812.178 333.516 816.305 335.687 823.237 340.235C839.738 351.062 852.708 364.547 862.195 368.978C875.134 375.022 890.221 376.823 900.598 373.355C922.295 366.106 932.132 353.132 958.429 343.579C963.174 341.856 966.237 337.151 968.545 330.109C973.652 314.524 954.136 305.582 943.551 293.055C933.576 281.249 930.577 276.171 916.929 268.915C901.099 260.498 887.077 257.873 869.154 258.305C855.371 258.638 850.303 259.68 837.776 265.437C821.917 272.726 816.696 282.074 803.626 293.642Z" fill="#8ABAB5"/>
<path d="M937.557 291.931C932.584 300.488 929.073 303.877 921.71 307.749M932.234 288.143C927.598 295.184 924.254 297.689 917.882 301.372M925.468 282.809C921.985 290.123 918.903 292.799 912.51 296.438M918.104 276.927C914.792 284.04 911.644 286.973 905.544 291.801M909.048 271.69C907.005 278.905 904.668 282.321 899.175 287.713M898.944 268.793C897.841 275.876 896.125 279.508 891.858 285.615" stroke="white" stroke-width="1.08739"/>
<path d="M903.711 330.022C917.504 327.43 931.546 312.856 931.546 312.856C931.546 312.856 922.545 299.2 911.354 292.456C898.302 284.591 886.602 279.993 871.397 281.009C854.282 282.153 848.904 287.182 833.384 294.485C828.485 296.791 820.056 298.75 820.321 300.479C820.48 301.517 828.083 303.286 832.554 305.306C843.5 310.25 850.537 316.078 860.333 321.343C875.551 329.521 886.967 333.17 903.711 330.022Z" fill="#B08B63"/>
<path d="M889.976 283.391C916.594 288.806 927.736 309.062 927.736 309.062C927.736 309.062 921.735 330.403 884.139 322.754C846.543 315.105 839.534 296.942 839.534 296.942C839.534 296.942 854.147 276.101 889.976 283.391Z" fill="white"/>
<mask id="mask0" mask-type="alpha" maskUnits="userSpaceOnUse" x="839" y="281" width="89" height="44">
<path d="M889.976 283.391C916.594 288.807 927.736 309.062 927.736 309.062C927.736 309.062 921.735 330.403 884.139 322.754C846.543 315.105 839.534 296.942 839.534 296.942C839.534 296.942 854.147 276.101 889.976 283.391Z" fill="white"/>
</mask>
<g mask="url(#mask0)">
<ellipse cx="886.452" cy="298.34" rx="22.4344" ry="22.1093" transform="rotate(11.5 886.452 298.34)" fill="#D1B8B3"/>
</g>
<circle cx="886.003" cy="298.912" r="7.153" transform="rotate(11.5 886.003 298.912)" fill="#474747"/>
<path d="M538.711 233.897C551.699 228.702 560.661 204.926 584.17 198.396C607.549 191.902 656.904 203.591 708.424 217.878C725.513 222.617 734.471 231.184 743.492 246.452C755.259 266.368 749.409 277.389 751.285 293.643C753.011 308.591 755.301 320.611 748.255 333.907C739.825 349.812 716.964 346.295 699.332 349.925C669.892 355.986 666.408 368.236 638.287 370.274C617.813 371.757 613.741 371.708 594.993 363.346C569.766 352.095 565.399 331.208 548.668 309.229C538.18 295.45 523.339 289.278 522.259 271.996C521.325 257.038 528.753 237.88 538.711 233.897Z" fill="#E8C3B7"/>
<path d="M582.358 244.179C585.252 255.641 588.166 260.688 595.346 267.558M589.718 241.581C592.722 251.192 595.737 255.17 601.841 261.497M599.243 237.685C600.833 247.23 603.491 251.317 609.633 257.6M609.633 233.356C611.095 242.613 613.743 247.017 619.158 254.57M621.756 230.325C621.726 239.281 623.285 243.973 627.817 251.972M634.311 230.325C633.245 238.821 634.019 243.556 636.909 251.972" stroke="white" stroke-width="1.29882"/>
<path d="M621.533 297.915C607.434 290.372 589.682 268.284 589.682 268.284C589.682 268.284 611.609 253.092 626.079 249.598C642.955 245.523 654.161 247.511 670.333 253.824C688.537 260.93 694.723 272.231 709.085 285.484C713.618 289.667 722.105 294.683 721.225 296.472C720.696 297.545 711.829 296.862 706.279 297.525C692.692 299.147 684.085 300.98 671.638 303.344C652.302 307.017 638.647 307.07 621.533 297.915Z" fill="#C1A9A5"/>
<path d="M650.655 248.931C617.186 244.572 596.57 261.023 596.57 261.023C596.57 261.023 600.27 289.553 642.047 296.928C683.825 304.303 702.468 284.592 702.468 284.592C702.468 284.592 686.698 253.626 650.655 248.931Z" fill="white"/>
<mask id="mask1" mask-type="alpha" maskUnits="userSpaceOnUse" x="596" y="248" width="107" height="51">
<path d="M650.655 248.931C617.186 244.572 596.57 261.023 596.57 261.023C596.57 261.023 600.27 289.553 642.047 296.928C683.825 304.303 702.468 284.592 702.468 284.592C702.468 284.592 686.698 253.626 650.655 248.931Z" fill="white"/>
</mask>
<g mask="url(#mask1)">
<ellipse cx="646.928" cy="267.959" rx="26.2994" ry="25.5585" transform="rotate(4.5 646.928 267.959)" fill="#CEA273"/>
</g>
<circle cx="649.027" cy="269.611" r="9.26034" transform="rotate(4.5 649.027 269.611)" fill="#474747"/>
<path d="M391.873 398.52C391.36 403.067 389.38 407.467 385.933 411.72C382.56 415.973 376.877 418.1 368.883 418.1C361.697 418.1 355.757 416.01 351.063 411.83C346.443 407.65 344.133 401.38 344.133 393.02C344.133 384.22 346.663 377.583 351.723 373.11C356.783 368.637 362.907 366.4 370.093 366.4C372.807 366.4 375.703 366.767 378.783 367.5C381.937 368.16 385.017 369.297 388.023 370.91L390.223 385.98L378.893 387.19L377.243 379.05C374.383 378.097 371.89 377.62 369.763 377.62C366.757 377.62 364.19 378.793 362.063 381.14C359.937 383.413 358.873 387.153 358.873 392.36C358.873 402.04 362.65 406.88 370.203 406.88C375.777 406.88 379.04 403.36 379.993 396.32L391.873 398.52ZM457.731 417L430.341 417L430.341 406.33L436.941 406.33L436.941 389.06C436.941 384.807 436.171 381.763 434.631 379.93C433.164 378.097 431.037 377.18 428.251 377.18C425.024 377.18 422.494 378.17 420.661 380.15C418.901 382.13 417.947 384.733 417.801 387.96L417.801 406.33L424.401 406.33L424.401 417L397.011 417L397.011 406.33L403.611 406.33L403.611 352.1L397.011 352.1L397.011 341.32L417.801 341.32L417.801 374.98C421.101 369.26 426.417 366.4 433.751 366.4C438.444 366.4 442.514 367.793 445.961 370.58C449.407 373.367 451.131 377.693 451.131 383.56L451.131 406.33L457.731 406.33L457.731 417ZM468.297 370.91C472.623 369.15 476.217 367.977 479.077 367.39C482.01 366.73 485.493 366.4 489.527 366.4C494.88 366.4 499.5 367.793 503.387 370.58C507.273 373.367 509.217 377.583 509.217 383.23L509.217 404.79C509.217 407.357 510.353 408.64 512.627 408.64C513.287 408.64 513.983 408.53 514.717 408.31L514.827 415.79C511.967 417.33 508.997 418.1 505.917 418.1C499.39 418.1 495.76 414.837 495.027 408.31L495.027 408.2C493.633 410.693 491.617 412.967 488.977 415.02C486.41 417.073 483.11 418.1 479.077 418.1C475.483 418.1 472.037 417.037 468.737 414.91C465.437 412.783 463.787 409.117 463.787 403.91C463.787 397.823 466.207 393.79 471.047 391.81C475.96 389.83 481.24 388.84 486.887 388.84C490.04 388.84 492.753 388.987 495.027 389.28L495.027 387.63C495.027 385.063 494.66 382.57 493.927 380.15C493.267 377.73 490.92 376.52 486.887 376.52C485.42 376.52 484.063 376.63 482.817 376.85C481.643 376.997 480.47 377.363 479.297 377.95L477.427 384.99L466.097 383.78L468.297 370.91ZM495.027 396.76L495.027 396.1C493.853 395.953 492.643 395.807 491.397 395.66C490.223 395.513 489.05 395.44 487.877 395.44C485.383 395.44 483.183 395.917 481.277 396.87C479.37 397.75 478.417 399.547 478.417 402.26C478.417 403.873 478.857 405.23 479.737 406.33C480.617 407.43 482.12 407.98 484.247 407.98C486.74 407.98 489.05 407.1 491.177 405.34C493.377 403.507 494.66 400.647 495.027 396.76ZM582.021 417L554.631 417L554.631 406.33L561.231 406.33L561.231 389.06C561.231 384.807 560.498 381.763 559.031 379.93C557.638 378.097 555.548 377.18 552.761 377.18C549.388 377.18 546.784 378.243 544.951 380.37C543.118 382.423 542.164 385.137 542.091 388.51L542.091 406.33L548.691 406.33L548.691 417L521.301 417L521.301 406.33L527.901 406.33L527.901 378.17L520.751 378.17L520.751 367.39L542.091 367.39L542.091 374.98C545.391 369.26 550.708 366.4 558.041 366.4C562.734 366.4 566.804 367.793 570.251 370.58C573.698 373.367 575.421 377.693 575.421 383.56L575.421 406.33L582.021 406.33L582.021 417ZM646.016 378.17L639.416 378.17L639.416 414.47C639.416 422.39 637.18 428.843 632.706 433.83C628.233 438.89 621.34 441.42 612.026 441.42C606.893 441.42 601.98 440.357 597.286 438.23C592.593 436.177 589.183 432.29 587.056 426.57L597.946 420.41C601.466 426.937 606.196 430.2 612.136 430.2C615.95 430.2 619.066 428.807 621.486 426.02C623.98 423.307 625.226 419.457 625.226 414.47L625.226 407.98C623.906 410.473 621.963 412.6 619.396 414.36C616.83 416.12 613.346 417 608.946 417C603.153 417 598.093 414.983 593.766 410.95C589.44 406.917 587.276 400.977 587.276 393.13C587.276 385.723 589.256 379.417 593.216 374.21C597.176 369.003 602.64 366.4 609.606 366.4C613.493 366.4 616.72 367.207 619.286 368.82C621.853 370.433 623.833 372.523 625.226 375.09L625.226 367.39L646.016 367.39L646.016 378.17ZM625.226 391.92L625.226 390.71C625.226 386.603 624.163 383.413 622.036 381.14C619.983 378.793 617.343 377.62 614.116 377.62C610.963 377.62 608.323 378.793 606.196 381.14C604.143 383.487 603.116 387.19 603.116 392.25C603.116 397.017 604.033 400.463 605.866 402.59C607.773 404.717 610.23 405.78 613.236 405.78C617.123 405.78 620.093 404.387 622.146 401.6C624.2 398.813 625.226 395.587 625.226 391.92ZM700.066 401.38C699.699 405.78 697.536 409.667 693.576 413.04C689.616 416.413 684.079 418.1 676.966 418.1C669.559 418.1 663.436 416.01 658.596 411.83C653.829 407.65 651.446 401.417 651.446 393.13C651.446 385.503 653.609 379.16 657.936 374.1C662.336 368.967 668.459 366.4 676.306 366.4C683.199 366.4 688.772 368.38 693.026 372.34C697.352 376.3 699.552 381.507 699.626 387.96C699.626 390.38 699.369 392.763 698.856 395.11L666.296 395.11C667.102 402.957 670.989 406.88 677.956 406.88C681.769 406.88 684.336 405.963 685.656 404.13C687.049 402.297 687.892 400.647 688.186 399.18L700.066 401.38ZM684.996 386.86C685.289 384.367 684.739 382.02 683.346 379.82C682.026 377.62 679.679 376.52 676.306 376.52C673.372 376.52 671.099 377.473 669.486 379.38C667.872 381.287 666.846 383.78 666.406 386.86L684.996 386.86Z" fill="#E9E8E0"/>
<path d="M751.651 268.589C752.51 259.712 755.861 253.136 763.928 249.332C772.882 245.111 781.412 247.613 788.805 254.195C794.631 259.382 804.632 279.795 806.266 288.538C811.787 318.082 814.03 335.068 812.43 342.64C806.932 368.65 799.595 392.134 783.717 404.104C764.817 418.351 736.702 431.936 712.609 442.071C696.115 449.009 683.392 455.868 671.087 453.267C661.067 451.15 659.604 443.931 659.006 433.707C658.201 419.944 695.033 412.632 706.826 391.312C715.566 375.509 716.412 363.584 716.767 346.15C717.094 330.103 730.893 322.152 738.039 305.856C744.262 291.666 749.812 287.58 751.651 268.589Z" fill="#969D8D"/>
<path d="M741.069 403.387C744.5 398.889 749.898 395.968 755.992 395.914C766.467 395.823 775.032 404.24 775.124 414.715C775.215 425.189 766.798 433.755 756.323 433.846C751.061 433.892 746.281 431.791 742.815 428.36" stroke="white" stroke-width="0.917743"/>
<path d="M821.66 401.6C820.927 407.32 818.947 411.5 815.72 414.14C812.493 416.78 808.313 418.1 803.18 418.1C797.68 418.1 793.207 416.743 789.76 414.03C786.387 411.243 784.7 407.283 784.7 402.15V377.51H777.66V367.39H784.7V352.32H798.89V367.39H816.71V377.51H798.89V399.73C798.89 404.057 800.87 406.22 804.83 406.22C805.71 406.22 806.883 405.853 808.35 405.12C809.89 404.313 810.88 402.077 811.32 398.41L821.66 401.6ZM883.308 417H855.918V406.33H862.518V389.06C862.518 384.807 861.748 381.763 860.208 379.93C858.741 378.097 856.615 377.18 853.828 377.18C850.601 377.18 848.071 378.17 846.238 380.15C844.478 382.13 843.525 384.733 843.378 387.96V406.33H849.978V417H822.588V406.33H829.188V352.1H822.588V341.32H843.378V374.98C846.678 369.26 851.995 366.4 859.328 366.4C864.021 366.4 868.091 367.793 871.538 370.58C874.985 373.367 876.708 377.693 876.708 383.56V406.33H883.308V417ZM935.674 401.38C935.307 405.78 933.144 409.667 929.184 413.04C925.224 416.413 919.687 418.1 912.574 418.1C905.167 418.1 899.044 416.01 894.204 411.83C889.437 407.65 887.054 401.417 887.054 393.13C887.054 385.503 889.217 379.16 893.544 374.1C897.944 368.967 904.067 366.4 911.914 366.4C918.807 366.4 924.381 368.38 928.634 372.34C932.961 376.3 935.161 381.507 935.234 387.96C935.234 390.38 934.977 392.763 934.464 395.11H901.904C902.711 402.957 906.597 406.88 913.564 406.88C917.377 406.88 919.944 405.963 921.264 404.13C922.657 402.297 923.501 400.647 923.794 399.18L935.674 401.38ZM920.604 386.86C920.897 384.367 920.347 382.02 918.954 379.82C917.634 377.62 915.287 376.52 911.914 376.52C908.981 376.52 906.707 377.473 905.094 379.38C903.481 381.287 902.454 383.78 902.014 386.86H920.604Z" fill="#FFB924"/>
<path d="M1022.35 417H994.956V406.33H1001.56V389.06C1001.56 384.807 1000.82 381.763 999.356 379.93C997.962 378.097 995.872 377.18 993.086 377.18C989.712 377.18 987.109 378.243 985.276 380.37C983.442 382.423 982.489 385.137 982.416 388.51V406.33H989.016V417H961.626V406.33H968.226V378.17H961.076V367.39H982.416V374.98C985.716 369.26 991.032 366.4 998.366 366.4C1003.06 366.4 1007.13 367.793 1010.58 370.58C1014.02 373.367 1015.75 377.693 1015.75 383.56V406.33H1022.35V417ZM1078.97 392.25C1078.97 400.097 1076.4 406.367 1071.27 411.06C1066.14 415.753 1059.61 418.1 1051.69 418.1C1044.06 418.1 1037.83 415.9 1032.99 411.5C1028.22 407.027 1025.84 400.793 1025.84 392.8C1025.84 385.54 1028.04 379.307 1032.44 374.1C1036.84 368.893 1043.51 366.29 1052.46 366.29C1061.41 366.29 1068.04 368.893 1072.37 374.1C1076.77 379.233 1078.97 385.283 1078.97 392.25ZM1064.34 391.81C1064.34 386.75 1063.17 383.047 1060.82 380.7C1058.47 378.353 1055.61 377.18 1052.24 377.18C1048.57 377.18 1045.68 378.5 1043.55 381.14C1041.5 383.707 1040.47 387.337 1040.47 392.03C1040.47 396.283 1041.42 399.877 1043.33 402.81C1045.31 405.743 1048.24 407.21 1052.13 407.21C1055.8 407.21 1058.73 405.853 1060.93 403.14C1063.2 400.353 1064.34 396.577 1064.34 391.81ZM1115.76 366.73C1117.15 366.73 1118.69 366.95 1120.38 367.39C1122.14 367.757 1123.86 368.453 1125.55 369.48L1127.75 386.86L1116.97 388.07L1115.1 379.6C1113.63 378.72 1112.35 378.28 1111.25 378.28C1109.64 378.28 1108.21 378.903 1106.96 380.15C1105.79 381.397 1105.2 383.23 1105.2 385.65V406.33H1114V417H1084.41V406.33H1091.01V378.17H1083.86V367.39H1104.1V376.85C1104.91 373.99 1106.19 371.607 1107.95 369.7C1109.78 367.72 1112.39 366.73 1115.76 366.73ZM1224.81 417H1204.02V389.06C1204.02 384.807 1203.29 381.763 1201.82 379.93C1200.43 378.097 1198.34 377.18 1195.55 377.18C1192.18 377.18 1189.72 378.28 1188.18 380.48C1186.72 382.68 1185.98 385.503 1185.98 388.95V406.33H1192.58V417H1171.79V389.06C1171.79 384.807 1171.06 381.763 1169.59 379.93C1168.2 378.097 1166.11 377.18 1163.32 377.18C1159.88 377.18 1157.42 378.28 1155.95 380.48C1154.49 382.68 1153.75 385.503 1153.75 388.95V406.33H1163.21V417H1132.96V406.33H1139.56V378.17H1133.07V367.39H1153.75V374.87C1156.91 369.223 1161.93 366.4 1168.82 366.4C1172.42 366.4 1175.72 367.28 1178.72 369.04C1181.73 370.8 1183.82 373.477 1184.99 377.07C1187.93 369.957 1193.32 366.4 1201.16 366.4C1205.64 366.4 1209.6 367.793 1213.04 370.58C1216.49 373.367 1218.21 377.693 1218.21 383.56V406.33H1224.81V417Z" fill="#2F4246"/>
<defs>
<linearGradient id="paint0_linear" x1="625.219" y1="200.885" x2="664.184" y2="139.407" gradientUnits="userSpaceOnUse">
<stop stop-color="white"/>
<stop offset="1" stop-color="white" stop-opacity="0"/>
</linearGradient>
</defs>
</svg>
