<svg width="1440" height="2272" viewBox="0 0 1440 2272" fill="none" xmlns="http://www.w3.org/2000/svg">
<rect y="1067" width="1440" height="1205" fill="url(#paint0_linear)"/>
<path d="M54.3372 1914.92C42.6708 1918.26 16.0039 1923.26 -2.32935 1924.92C-36.7735 1999.37 -106.328 2149.92 -108.995 2156.59C-111.662 2163.25 957.663 2236.03 1492.66 2271.59C1487.1 2156.03 1471.66 1922.92 1454.33 1914.92C1432.66 1904.92 1417.66 1914.92 1372.66 1914.92C1327.66 1914.92 1332.66 1924.92 1192.66 1934.92C1052.66 1944.92 1079.01 1940.43 1031 1934.92C985.114 1929.66 985.313 1928.66 940.996 1924.92C898.298 1921.32 904.921 1923.42 871.587 1913.42C838.254 1903.42 848.086 1898.75 794.753 1898.75C769.343 1898.75 737.301 1910 702.74 1921.16C686.879 1926.28 616.311 1934.92 601.311 1934.92H569.333C560.999 1934.92 436.65 1930.73 406.65 1929.06C376.65 1927.39 277.676 1906.22 252.676 1891.22C227.676 1876.22 153.531 1891.22 140.198 1891.22C126.865 1891.22 66.0035 1911.59 54.3372 1914.92Z" fill="#203039"/>
<path d="M-12.2783 1934.23C-7.23024 1931.21 47.2891 1925.15 55.3657 1922.12C63.4424 1919.09 99.7883 1907.98 113.923 1904.96C128.057 1901.93 152.288 1894.86 174.499 1894.86C196.711 1894.86 219.932 1884.76 240.124 1894.86C256.278 1902.94 301.374 1916.4 321.902 1922.12L362.287 1928.18C378.104 1930.87 414.181 1937.06 431.95 1940.29C454.161 1944.33 497.574 1944.33 523.824 1945.34C550.074 1946.35 582.381 1945.34 593.487 1945.34C604.593 1945.34 636.9 1946.35 651.035 1940.29C665.169 1934.23 673.246 1934.23 698.486 1928.18C723.727 1922.12 744.928 1917.07 751.996 1914.04C759.063 1911.01 773.197 1904.96 792.38 1904.96C811.563 1904.96 817.62 1899.91 854.976 1914.04C892.331 1928.18 923.629 1928.18 941.802 1928.18C956.341 1928.18 1042.09 1939.62 1083.15 1945.34M-12.2783 1945.34C-4.53797 1943.66 13.9715 1940.29 26.0869 1940.29C41.231 1940.29 63.8816 1934.23 67.1291 1934.23C69.7271 1934.23 95.9239 1926.16 108.698 1922.12C120.389 1919.43 145.59 1914.04 152.864 1914.04C161.957 1914.04 182.741 1910.79 193.783 1910.14C204.825 1909.49 221.486 1910.14 230.805 1910.14C240.124 1910.14 252.888 1916.06 267.177 1922.12C281.467 1928.18 312.326 1934.23 321.902 1934.23C331.479 1934.23 363.305 1945.34 373.047 1945.34C382.79 1945.34 389.934 1940.92 406.822 1945.34C423.709 1949.76 440.596 1950.41 450.339 1951.71C460.081 1953 527.63 1956.25 544.517 1956.25C561.404 1956.25 571.147 1956.25 603.622 1956.25C636.098 1956.25 670.869 1945.34 676.24 1945.34C680.536 1945.34 711.45 1933.9 726.369 1928.18C743.341 1923.47 778.158 1914.04 781.652 1914.04C786.02 1914.04 797.251 1914.04 817.843 1914.04C838.434 1914.04 854.033 1916.06 865.265 1922.12C876.496 1928.18 955.118 1935.24 972.589 1940.29C986.566 1944.33 1042.89 1952.61 1069.31 1956.25M-12.2783 1960.21C-5.18377 1956.25 29.135 1951.71 40.3666 1951.71C49.3519 1951.71 76.5573 1947.46 89.0368 1945.34C99.4365 1941.64 121.234 1934.23 125.228 1934.23C130.219 1934.23 152.059 1928.18 157.05 1928.18C162.042 1928.18 173.898 1922.12 189.497 1922.12C205.097 1922.12 223.067 1928.18 226.936 1928.18C230.805 1928.18 241.287 1934.23 250.647 1934.23C260.007 1934.23 262.503 1935.24 277.478 1940.29C292.454 1945.34 286.214 1938.98 308.677 1945.34C331.14 1951.71 324.276 1947.16 350.483 1951.71C376.69 1956.25 389.17 1960.21 400.402 1960.21C411.633 1960.21 408.513 1960.21 427.233 1960.21C445.952 1960.21 439.088 1956.46 465.295 1960.21C491.502 1963.95 495.87 1964.57 515.837 1964.57C535.805 1964.57 522.077 1964.57 549.532 1964.57C576.987 1964.57 578.788 1960.83 593.487 1964.57C608.186 1968.32 669.416 1960.21 676.24 1960.21C683.063 1960.21 696.791 1950.39 707.399 1945.34C718.006 1940.29 742.341 1928.18 757.941 1928.18C773.54 1928.18 780.645 1922.12 792.38 1922.12C804.115 1922.12 816.595 1916.06 829.698 1922.12C842.802 1928.18 937.022 1935.24 945.134 1940.29C951.623 1944.33 991.932 1952.61 1011.28 1956.25M-5.80775 1964.57C-2.68786 1964.57 32.8789 1964.57 40.3666 1964.57C47.8543 1964.57 84.669 1960.21 89.0368 1960.21C93.4047 1960.21 108.234 1960.8 113.923 1956.25C118.474 1952.61 137.499 1947.46 146.443 1945.34C148.107 1943.66 157.3 1940.29 180.762 1940.29C210.088 1940.29 209.465 1935.24 226.936 1940.29C244.407 1945.34 248.775 1951.71 263.127 1951.71C277.478 1951.71 275.606 1955.84 295.573 1960.21C315.541 1964.57 314.293 1960.83 335.508 1964.57C356.723 1968.32 398.805 1967.07 415.377 1969.57C431.95 1972.06 454.688 1975.18 473.407 1975.18C492.126 1975.18 496.494 1975.18 515.837 1975.18C535.181 1975.18 530.813 1975.18 549.532 1975.18C568.252 1975.18 582.951 1972.06 588.219 1975.18C593.487 1978.3 610.058 1978.93 639.385 1978.93C668.712 1978.93 692.6 1974.56 695.543 1969.57C698.486 1964.57 716.134 1951.71 722.998 1951.71C729.862 1951.71 746.051 1940.29 751.996 1940.29C757.941 1940.29 778.532 1934.23 787.268 1934.23C796.003 1934.23 804.421 1931.97 829.698 1934.23C849.92 1936.04 861.835 1939.03 865.265 1940.29C878.368 1944.1 909.318 1951.71 928.287 1951.71C951.998 1951.71 956.99 1947.93 972.589 1956.25M-12.2783 1975.18C-0.191948 1975.18 -8.30366 1975.18 17.9034 1975.18C44.1105 1975.18 37.8707 1975.18 59.7099 1975.18C81.5491 1975.18 81.5491 1980.8 89.0368 1975.18C96.5246 1969.57 95.3497 1974.56 104.636 1969.57C113.923 1964.57 118.364 1968.94 125.228 1964.57C132.091 1960.21 148.678 1956.25 152.864 1956.25C157.05 1956.25 167.74 1960.8 180.762 1956.25C193.783 1951.71 194.489 1947.16 210.712 1951.71C226.936 1956.25 229.601 1955.84 240.124 1960.21C250.647 1964.57 256.877 1959.58 267.177 1964.57C277.478 1969.57 298.693 1975.18 303.685 1975.18C308.677 1975.18 320.533 1978.93 335.508 1978.93C350.483 1978.93 377.675 1985.17 406.822 1985.17C435.968 1985.17 447.2 1985.17 465.295 1985.17C483.391 1985.17 492.875 1985.17 508.35 1985.17C523.824 1985.17 537.677 1981.42 553.9 1985.17C570.124 1988.91 597.811 1990.78 603.622 1990.78C609.434 1990.78 630.025 1990.78 646.873 1990.78C663.72 1990.78 663.8 1997.02 676.24 1993.9C688.679 1990.78 714.886 1982.67 722.998 1978.93C731.11 1975.18 766.052 1969.57 769.796 1969.57C773.54 1969.57 791.012 1969.57 798.499 1969.57C805.987 1969.57 809.731 1964.57 826.578 1964.57C843.426 1964.57 842.802 1964.57 868.385 1964.57C893.968 1964.57 895.216 1963.95 904.576 1969.57C913.935 1975.18 943.886 1978.93 948.878 1978.93M-12.2783 1990.78C1.67999 1990.78 2.92794 1983.29 21.6473 1990.78C40.3666 1998.27 76.5573 1996.4 82.7971 1990.78C89.0368 1985.17 99.4982 1982.67 113.923 1978.93C128.347 1975.18 142.438 1975.18 152.864 1975.18C163.29 1975.18 190.121 1972.69 203.849 1978.93C214.831 1983.92 245.031 1978.51 258.759 1975.18C272.278 1976.64 302.936 1980.67 317.413 1985.17C335.508 1990.78 347.259 1996.4 362.287 1997.64C377.314 1998.89 403.522 2000.76 415.377 2000.76C427.233 2000.76 457.184 2000.76 465.295 2000.76C471.785 2000.76 501.694 1996.19 515.837 1993.9H523.824C549.033 1993.9 601.073 1993.9 607.562 1993.9C615.674 1993.9 642.465 2000.76 659.352 2000.76C676.24 2000.76 688.428 2000.76 707.399 2000.76C726.369 2000.76 739.187 2004.51 751.996 1997.64C764.805 1990.78 751.701 1985.17 781.652 1985.17C811.603 1985.17 825.954 1978.93 834.066 1978.93C842.178 1978.93 837.199 1978.93 854.976 1978.93C872.753 1978.93 880.864 1972.69 883.984 1978.93C886.48 1983.92 890.848 1985.17 892.72 1985.17L951.998 2000.76M-5.80775 1993.9C4.17589 1997.64 -8.92763 2000.76 11.6636 2000.76C32.2549 2000.76 21.6946 2000.76 55.3657 2000.76C89.0368 2000.76 85.9169 2007.63 101.516 2000.76C117.116 1993.9 115.868 1997.02 125.228 1993.9C134.587 1990.78 124.604 1985.17 146.443 1985.17C168.282 1985.17 172.486 1979.55 193.783 1985.17C215.08 1990.78 213.832 1993.9 236.296 1993.9C258.759 1993.9 242.535 1993.9 273.11 1993.9C303.685 1993.9 310.549 1987.04 330.516 1993.9C350.483 2000.76 360.044 2007.63 373.047 2008.88C386.05 2010.12 392.565 2005.76 412.257 2008.88C431.95 2012 472.783 2009.5 488.382 2005.13C503.982 2000.76 505.23 2003.88 532.685 2000.76C560.14 1997.64 570.471 1997.64 581.979 1997.64C593.487 1997.64 598.203 2005.13 622.538 2005.13C646.873 2005.13 644.377 2008.88 666.84 2008.88C689.303 2008.88 689.927 2005.13 712.39 2008.88C734.854 2012.62 776.036 2005.13 781.652 2005.13C787.268 2005.13 840.93 1990.16 860.897 1993.9C880.864 1997.64 923.919 2005.13 928.287 2008.88M-5.80775 2012.62C4.17589 2012.62 12.2876 2012.62 30.3829 2012.62C48.4783 2012.62 42.8625 2012.62 59.7099 2012.62C76.5573 2012.62 67.1976 2012.62 82.7971 2012.62C98.3965 2012.62 117.74 2012.62 121.484 2012.62C125.228 2012.62 123.98 2005.13 130.843 2005.13C137.707 2005.13 139.601 2000.76 157.05 2000.76C174.499 2000.76 176.854 2000.76 193.783 2000.76C210.712 2000.76 205.971 2005.13 230.805 2005.13C255.639 2005.13 258.759 2012.62 273.11 2012.62C287.462 2012.62 289.958 2012.62 303.685 2012.62C317.413 2012.62 303.061 2007 339.876 2015.74C376.69 2024.48 410.385 2015.74 437.84 2015.74C465.295 2015.74 474.031 2022.6 488.382 2015.74C502.734 2008.88 504.606 2008.88 527.069 2008.88C549.532 2008.88 558.892 2009.5 578.859 2012.62C598.826 2015.74 617.506 2015.74 646.873 2015.74C676.24 2015.74 694.295 2015.74 712.39 2015.74C730.486 2015.74 794.755 2008.88 798.499 2008.88C802.243 2008.88 837.81 2007 860.897 2012.62" stroke="#969D8D"/>
<g filter="url(#filter0_d)">
<path d="M400.207 1929.25C400.207 1928.19 399.263 1921.82 399.381 1918.98C399.499 1916.15 400.207 1916.03 400.207 1914.14C400.207 1912.26 401.033 1909.07 400.207 1905.77C399.381 1902.46 399.263 1901.64 400.207 1898.09C401.151 1894.55 402.685 1892.9 402.213 1890.31C401.741 1887.71 399.381 1881.93 399.381 1881.93C397.689 1881.14 393.881 1879.24 392.182 1877.91C390.058 1876.26 386.045 1873.55 384.747 1872.84C383.449 1872.13 377.549 1869.89 376.958 1869.06C376.368 1868.24 381.069 1868.44 381.069 1868.44C381.293 1867.43 381.824 1865.72 382.16 1866.93C382.58 1868.44 382.999 1869.78 383.419 1870.11C383.839 1870.45 387.196 1872.29 388.706 1872.84C390.217 1873.39 394.329 1876.58 395.336 1876.91C396.344 1877.25 396.549 1877.15 399.381 1877.91C402.213 1878.68 401.715 1879.68 404.233 1879.01C404.429 1878.34 404.703 1876.8 404.233 1875.99C403.645 1874.98 403.524 1874.76 403.453 1874.47C403.382 1874.19 402.782 1871.98 404.233 1870.32C405.684 1868.66 407.44 1869.16 408.389 1870.75C409.338 1872.34 408.46 1874 409.528 1874.64C410.596 1875.28 411.925 1875.66 411.925 1875.66C411.506 1875.9 410.439 1876.33 409.528 1876.18C408.692 1876.04 407.946 1875.9 407.467 1875.78C407.823 1875.9 408.314 1876.07 408.65 1876.18C408.587 1876.46 408.498 1877.1 408.65 1877.46C408.84 1877.91 408.697 1879.01 409.718 1879.01C410.738 1879.01 411.403 1878.48 412.352 1878.2C413.301 1877.91 415.2 1876.92 415.508 1876.63C415.817 1876.35 420.63 1872.6 421.676 1872.1C422.723 1871.61 426.41 1869.31 426.859 1868.96C427.307 1868.62 428.055 1867.67 428.055 1866.67C428.055 1865.68 427.684 1864.12 428.157 1863.98C428.629 1863.85 428.849 1864.71 429.068 1865.27C429.287 1865.82 429.405 1866.03 429.878 1866.09C430.351 1866.16 430.789 1865.96 431.245 1865.55C431.701 1865.15 434.452 1863.22 433.101 1865.43C431.434 1867.72 428.915 1868.78 427.161 1870.26C425.407 1871.74 421.01 1875.01 420.022 1875.82C419.034 1876.63 414.402 1880.28 413.377 1881.93C412.352 1883.58 411.114 1888.73 410.987 1890.59C410.86 1892.46 412.502 1896.77 412.94 1898.09C413.377 1899.42 414.043 1904.38 413.831 1905.77C413.619 1907.15 413.449 1912.65 413.831 1914.14C414.213 1915.64 414.468 1917.13 414.468 1918.06C414.468 1918.8 414.241 1923.97 414.128 1926.46C414.567 1927.99 415.402 1931.04 415.232 1931.04H411.199C411.482 1929.95 412.023 1927.45 411.921 1926.16C411.794 1924.55 410.52 1921.74 410.86 1918.98C410.775 1918.4 410.444 1916.62 409.799 1914.14C408.992 1911.05 408.228 1908.44 407.889 1907.1C407.549 1905.77 407.591 1904.13 406.488 1904.13C405.384 1904.13 405.809 1906.47 405.554 1907.1C405.299 1907.74 404.705 1911.94 404.365 1914.36C404.026 1916.78 404.365 1919.88 403.856 1921.66C403.347 1923.45 403.262 1927.65 403.262 1928.28C403.262 1928.92 402.583 1931.04 402.201 1931.04C401.895 1931.04 400.744 1929.85 400.207 1929.25Z" fill="#FFB5A6"/>
</g>
<g filter="url(#filter1_d)">
<path d="M632.818 1233.89C655.841 1237.37 680.556 1234.86 703.661 1239.56C702.887 1268.23 719.323 1283.42 663.103 1279.97C595.005 1275.79 622.398 1301.95 608.759 1310.31C588.153 1322.95 573.709 1321.32 527.4 1321.32C505.887 1321.32 503.813 1312.78 509.026 1305.56C517.358 1294.02 538.709 1305.45 547.751 1294.46C551.073 1290.42 547.658 1283.98 534.104 1281.81C498.948 1276.19 463.353 1269.62 427.993 1269.62C409.581 1269.62 400.793 1287.48 424.872 1287.48C428.514 1287.48 443.955 1289.94 454.267 1295.41C465.49 1301.38 459.207 1316.17 447.422 1320.93C404.877 1338.1 310.781 1322.55 289.169 1310.31C253.282 1290 336.385 1282.38 346.386 1282.38C372.003 1282.38 384.172 1272.77 351.356 1263.38C328.611 1256.87 240.015 1263.38 216.694 1263.38C176.783 1263.38 77.6965 1254.33 187.103 1237.01C236.34 1229.22 177.512 1216.74 155.316 1212.2C122.48 1205.49 27.8478 1230.03 10.8284 1192.92C-9.34613 1148.92 176.745 1169.72 192.883 1165.55C224.106 1157.49 203.978 1149.67 182.48 1149.67C172.159 1149.67 161.459 1150.37 151.617 1145.85C139.334 1140.2 130.801 1127.99 147.456 1117.77C168.718 1104.73 186.363 1108.84 209.181 1108.84C238.699 1108.84 268.477 1111.79 297.954 1113.95C346.771 1117.52 395.289 1119.05 444.175 1119.05C460.615 1119.05 493.932 1115.71 507.056 1131.81C519.956 1147.63 424.437 1134.59 418.861 1145.99C409.605 1164.91 634.654 1161.42 643.915 1185.4C647.663 1195.11 622.265 1198.08 618.485 1198.16C606.015 1198.44 593.942 1200.36 581.496 1200.72C576.773 1200.85 543.354 1207.62 556.297 1216.59C575.872 1230.17 610.773 1230.56 632.818 1233.89Z" fill="#2B3C46"/>
</g>
<path d="M1376.31 1301.3C1393.08 1297.58 1467.96 1291.82 1514.7 1288.94C1534.53 1287.72 1550.38 1303.68 1549.55 1323.53C1544.27 1450.14 1534.43 1648.17 1527.9 1648.17C1518.91 1648.17 1470.09 1641.75 1454.68 1636.61C1447.56 1634.23 1440.1 1630.04 1434.07 1626.09C1427.22 1621.6 1419.24 1618.51 1411.07 1618.93C1321.14 1623.49 1387.31 1677.72 1335.2 1677.72H1192.6C1139.92 1677.72 1080.83 1639.18 1058.99 1628.9C1037.15 1618.62 1039.72 1591.64 1041 1551.82C1042.25 1513.31 1090.34 1502.43 1135.33 1490.13C1138.38 1489.3 1141.54 1488.87 1144.71 1488.87H1228.57C1248.93 1488.87 1259.52 1485.27 1264.44 1480.68C1272.06 1473.56 1259.82 1465.12 1249.45 1464.04C1233.99 1462.43 1212.52 1460.17 1192.6 1458.04C1184.59 1457.18 1178.45 1455.64 1173.79 1453.74C1160.99 1448.53 1169.22 1435.78 1182.8 1433.18C1198.73 1430.13 1217.32 1426.62 1228.57 1424.63C1250.41 1420.78 1328.77 1415.64 1376.31 1414.36C1423.84 1413.07 1425.13 1410.5 1448.25 1397.66C1471.38 1384.81 1444.4 1379.67 1435.4 1371.96C1426.41 1364.25 1376.31 1374.53 1321.07 1371.96C1265.83 1369.39 1265.83 1344.98 1265.83 1327V1327C1265.83 1309.01 1353.18 1306.44 1376.31 1301.3Z" fill="#2B3C46"/>
<g filter="url(#filter2_d)">
<path d="M163.014 1077.28C154.527 1077.75 145.922 1078.25 137.356 1079.07C137.059 1079.01 136.762 1078.95 136.464 1078.91C129.952 1077.9 123.7 1078.97 117.018 1078.97C107.151 1078.97 97.7113 1078.43 87.8789 1078.91C71.8682 1079.69 55.7436 1081.8 39.8357 1083.84C25.055 1085.74 9.34967 1086.71 -4.95641 1090.95C-16.7311 1094.43 -31.866 1098.55 -42.0424 1105.52C-46.8617 1108.81 -49.2595 1117 -45.8353 1122.13C-39.5871 1131.5 -16.9899 1127.44 -7.60541 1128.81C6.45628 1130.88 20.7331 1132.32 34.899 1133.39C48.6215 1134.43 62.2593 1136.97 75.9584 1138.33C82.2172 1138.95 94.0638 1137.71 99.1974 1141.82C100.292 1142.69 109.043 1145.58 104.375 1147.48C96.6149 1150.64 88.2782 1152.72 79.9319 1153.5C66.3664 1154.76 52.7206 1154.63 39.1133 1154.82C30.7413 1154.94 22.8723 1156.67 14.6703 1158.07C8.91693 1159.06 2.52303 1159.27 -2.90946 1161.57C-9.09043 1164.17 -8.15891 1169.36 -4.47478 1174.27C-0.117592 1180.08 6.38527 1182.31 13.1049 1184.08C31.836 1189.03 52.5077 1186.98 71.6839 1187.39C94.2303 1187.88 115.962 1188.13 138.451 1186.19C165.761 1183.83 193.219 1181.51 220.57 1179.75C237.598 1178.65 255.444 1176.11 272.165 1172.76C281.712 1170.85 292.498 1169.74 302.207 1170.05C319.505 1170.61 340.395 1172.64 357.053 1167.29C363.932 1165.07 372.029 1160.4 369.395 1151.69C363.478 1132.12 338.076 1129 320.87 1127.73C295.805 1125.88 270.379 1126.65 245.253 1126.65C243.635 1126.65 227.138 1126.81 230.804 1120.99C235.283 1113.88 243.7 1110.67 250.792 1107.02C258.276 1103.17 266.389 1100.88 274.031 1097.39C276.494 1096.26 284.917 1093.36 285.109 1089.8C285.914 1074.9 235.406 1075.5 229.239 1075.35C207.281 1074.84 184.945 1076.05 163.014 1077.28Z" fill="#EEEDDB"/>
<path d="M110.034 1083.3C127.271 1079.32 145.395 1078.26 163.014 1077.28C184.945 1076.05 207.281 1074.84 229.239 1075.35C235.406 1075.5 285.914 1074.9 285.109 1089.8C284.917 1093.36 276.494 1096.26 274.031 1097.39C266.389 1100.88 258.276 1103.17 250.792 1107.02C243.7 1110.67 235.283 1113.88 230.804 1120.99C227.138 1126.81 243.635 1126.65 245.253 1126.65C270.379 1126.65 295.805 1125.88 320.87 1127.73C338.076 1129 363.478 1132.12 369.395 1151.69C372.029 1160.4 363.932 1165.07 357.053 1167.29C340.394 1172.64 319.505 1170.61 302.207 1170.05C292.498 1169.74 281.712 1170.85 272.165 1172.76C255.444 1176.11 237.598 1178.65 220.57 1179.75C193.219 1181.51 165.761 1183.83 138.451 1186.19C115.962 1188.13 94.2303 1187.88 71.6839 1187.39C52.5077 1186.98 31.836 1189.03 13.1049 1184.08C6.38527 1182.31 -0.11759 1180.08 -4.47478 1174.27C-8.15891 1169.36 -9.09043 1164.17 -2.90946 1161.57C2.52302 1159.27 8.91694 1159.06 14.6703 1158.07C22.8723 1156.67 30.7413 1154.94 39.1133 1154.82C52.7206 1154.63 66.3664 1154.76 79.9319 1153.5C88.2782 1152.72 96.6149 1150.64 104.375 1147.48C109.043 1145.58 100.292 1142.69 99.1974 1141.82C94.0638 1137.71 82.2172 1138.95 75.9584 1138.33C62.2593 1136.97 48.6215 1134.43 34.899 1133.39C20.7331 1132.32 6.45628 1130.88 -7.60541 1128.81C-16.9899 1127.44 -39.5871 1131.5 -45.8353 1122.13C-49.2595 1117 -46.8617 1108.81 -42.0424 1105.52C-31.866 1098.55 -16.7311 1094.43 -4.95641 1090.95C9.34967 1086.71 25.055 1085.74 39.8357 1083.84C55.7436 1081.8 71.8682 1079.69 87.8789 1078.91C97.7113 1078.43 107.151 1078.97 117.018 1078.97C123.7 1078.97 129.952 1077.9 136.464 1078.91C140.876 1079.58 145.218 1082.47 149.047 1084.38" stroke="#EEEDDB" stroke-width="5" stroke-linecap="round" stroke-linejoin="round"/>
</g>
<path d="M253.58 1189.07C254.514 1207.8 270.564 1218.48 285.241 1227.43C287.196 1227.56 290.032 1228.01 290.676 1229.04C292.491 1231.94 295.164 1231.27 298.62 1231.27H312.208C316.864 1231.27 321.289 1231 325.76 1229.47C330.314 1227.92 334.182 1224.15 338.485 1221.99C345.186 1218.64 351.546 1214.22 354.733 1207.19C355.987 1204.42 358.116 1202.07 358.83 1199.06C359.362 1196.82 359.118 1194.37 359.118 1192.09C359.118 1185.42 359.531 1178.67 357.716 1172.17C356.009 1166.07 353.407 1159.69 348.406 1155.57C341.34 1149.74 332.347 1144.6 324.178 1140.54C310.266 1133.63 288.574 1131.65 274.644 1140.18C258.413 1150.12 252.691 1171.23 253.58 1189.07Z" fill="#EBA91F"/>
<g style="mix-blend-mode:soft-light">
<path d="M306.599 1222.84C307.729 1223.6 310.431 1223.29 312.732 1222.72C314.545 1222.27 316.344 1221.74 318.189 1221.46L320.631 1221.09C322.427 1220.82 322.541 1220.43 325.46 1219.98C328.379 1219.54 328.184 1218.26 330.401 1217.73C332.619 1217.21 332.82 1215.38 335.18 1213.81C338.037 1211.92 339.259 1212.53 340.461 1210.37C342.325 1207.02 341.806 1208.11 343.268 1205.64C344.73 1203.16 346.126 1203.85 346.669 1200.8C347.399 1196.71 342.036 1195.91 340.693 1199.85C340.652 1199.97 340.623 1200.09 340.609 1200.22C340.41 1201.94 339.147 1202.69 338.05 1204.55C336.953 1206.41 336.224 1206.14 329.427 1211.31C325.888 1213.72 324.569 1214.11 320.273 1216.07C315.978 1218.04 318.253 1216.38 314.66 1216.92L314.66 1216.92C312.097 1217.31 311.477 1217.41 308.874 1218.28C306.003 1219.24 304.088 1221.15 306.599 1222.84Z" fill="white"/>
</g>
<path d="M858.713 1162.79C858.559 1166.81 856.149 1169.45 853.082 1171.44C855.725 1172.65 857.973 1174.47 859.124 1177.09C859.847 1178.74 859.944 1182.41 860.563 1179.31C861.06 1176.82 860.938 1172.11 863.893 1170.93C865.682 1170.21 869.483 1169.45 869.483 1169.45C869.483 1169.45 862.698 1169.26 861.385 1166.73C860.343 1164.73 858.996 1155.44 858.713 1162.79Z" fill="#C4C4C4"/>
<path d="M904.053 1181.48C906.56 1179.36 908.463 1176.48 909.557 1173.31C909.639 1173.07 909.701 1172.86 909.748 1172.68C909.579 1171.48 910.088 1171.34 909.748 1172.68C909.799 1173.04 909.913 1173.5 910.132 1174.05C911.564 1177.63 913.534 1179.8 917.531 1179.8C918.366 1179.8 915.821 1180.48 915.311 1180.54C913.639 1180.74 912.073 1183.37 911.776 1184.82C911.435 1186.49 912.313 1193.61 911.036 1189.01C910.412 1186.76 907.287 1183.36 904.053 1181.48Z" fill="#C4C4C4"/>
<path d="M861.591 1200.03C860.55 1204.71 858.504 1207.35 855.388 1208.93C858.111 1210.7 861.353 1214.1 863.482 1215.32C864.148 1215.7 863.81 1218.57 863.934 1217.21C864.204 1214.24 864.504 1210.25 867.346 1208.5C868.623 1207.71 873.062 1207.98 871.703 1207.35C868.704 1205.93 866.193 1206.62 863.646 1203.56C863.046 1202.84 861.794 1199.11 861.591 1200.03Z" fill="#C4C4C4"/>
<path d="M1039.45 1233.9C1038.75 1237.88 1037.4 1241.08 1035.16 1243.47C1039.23 1245.02 1043.13 1249.09 1043.89 1252.89C1044.9 1257.95 1043.91 1250.97 1044.13 1248.98C1044.52 1245.58 1044.06 1245.7 1052.19 1241.79C1045.57 1244.08 1047.28 1243.49 1045.57 1242.7C1041.95 1241.02 1040.52 1237.39 1039.78 1233.73C1039.5 1232.37 1039.67 1232.62 1039.45 1233.9Z" fill="#C4C4C4"/>
<path d="M1018.28 1303.82C1022.91 1302.91 1024.94 1303.03 1026.54 1297.94C1029.18 1301.43 1031.9 1302.62 1036.27 1303.46C1038.16 1302.94 1039.69 1304.02 1039.69 1304.02C1038.45 1303.84 1037.31 1303.66 1036.27 1303.46C1034.74 1303.88 1032.99 1305.37 1031.64 1309.37C1031.47 1309.85 1030.92 1311.77 1030.98 1313.13C1031.33 1313.61 1031.61 1314.08 1031.8 1314.55C1031.24 1314.45 1031.02 1313.87 1030.98 1313.13C1028.18 1309.3 1020.85 1305.18 1018.28 1303.82Z" fill="#C4C4C4"/>
<path d="M1015.24 1097.85C1015.87 1097.24 1016.45 1096.56 1016.96 1095.79C1017.56 1094.88 1018.03 1092.68 1018.19 1091.81C1018.19 1091.81 1018.2 1091.8 1018.2 1091.8C1018.28 1091.27 1018.28 1091.38 1018.19 1091.81C1017.87 1093.75 1018.54 1095.57 1019.96 1096.94C1021.36 1098.28 1022.94 1098.99 1024.81 1098.25C1025.31 1098.06 1026.67 1097.3 1026.29 1097.68C1024.85 1099.12 1022.8 1099.67 1021.57 1101.38C1020.56 1102.77 1019.3 1108.25 1019.92 1104.62C1020.45 1101.59 1018.22 1099.3 1015.24 1097.85Z" fill="#C4C4C4"/>
<path d="M649.458 1099.66C650.646 1099.07 651.687 1098.27 652.45 1097.18C654.021 1094.96 653.802 1088.8 654.916 1092.62C655.832 1095.76 656.371 1097.7 659.274 1099.45C660.079 1099.93 660.718 1099.87 661.014 1099.78C661.268 1099.64 661.242 1099.72 661.014 1099.78C660.916 1099.84 660.776 1099.93 660.589 1100.06C658.757 1101.39 657.435 1101.09 656.561 1103.68C655.814 1105.89 655.693 1113.33 655.204 1107.95C654.848 1104.04 652.517 1101.41 649.458 1099.66Z" fill="#C4C4C4"/>
<path d="M547.345 1217.8C549.161 1217.13 550.755 1215.88 552.282 1214C554.571 1211.19 553.318 1209 554.337 1212.77C554.955 1215.06 555.866 1216.6 557.954 1217.7C558.153 1217.81 558.318 1217.88 558.451 1217.93C558.963 1217.74 559.215 1218.22 558.451 1217.93C558.41 1217.95 558.368 1217.97 558.324 1217.99C556.521 1218.99 553.725 1226.19 553.679 1226.01C552.596 1221.56 550.401 1219.53 547.345 1217.8Z" fill="#C4C4C4"/>
<path d="M558.119 1196.08C557.401 1196.08 558.699 1195.32 559.346 1194.95C559.603 1195.06 559.849 1195.2 560.077 1195.4C560.94 1194.72 561.479 1193.61 561.819 1192.55C562.444 1190.6 561.815 1189.32 562.559 1191.48C562.964 1192.65 564.771 1194.3 566.323 1195.39C567.185 1195.19 568.178 1195.25 568.56 1195.92C569.178 1197 567.878 1196.48 566.323 1195.39C565.772 1195.52 565.275 1195.75 565.025 1196C563.878 1197.15 563.322 1201.62 562.559 1200.19C561.705 1198.59 561.702 1197.28 560.339 1195.67C560.255 1195.57 560.167 1195.48 560.077 1195.4C559.553 1195.82 558.91 1196.08 558.119 1196.08Z" fill="#C4C4C4"/>
<path d="M515.097 1095.26C514.355 1096.98 513.494 1098.21 512.45 1099.17C514.796 1099.83 516.926 1101.08 518.098 1103.27C518.649 1104.31 518.082 1106.63 518.345 1105.58C518.803 1103.74 519.541 1101.77 520.811 1100.35C521.51 1099.57 524.56 1098.5 523.565 1098.83C521.065 1099.67 518.181 1096.07 517.029 1094.39C515.255 1091.81 516.375 1092.3 515.097 1095.26Z" fill="#C4C4C4"/>
<path d="M721.758 1265.19C722.804 1264.14 723.699 1262.97 724.302 1261.52C724.316 1261.49 724.334 1261.41 724.352 1261.32C724.183 1260.99 724.105 1260.65 724.219 1260.29C724.634 1258.98 724.474 1260.68 724.352 1261.32C724.838 1262.26 726.073 1263.08 725.617 1263.91C723.058 1268.51 725.941 1267.23 721.758 1265.19Z" fill="#C4C4C4"/>
<path d="M906.246 1294C908.177 1292.74 910.146 1291.06 910.71 1289.25C910.533 1288.97 910.384 1288.74 910.297 1288.57C910.029 1288.03 910.576 1286.85 910.708 1287.25C910.933 1287.93 910.912 1288.6 910.71 1289.25C911.485 1290.44 912.785 1292.37 911.612 1293.17C910.313 1294.07 910.767 1295.93 910.133 1295.97C908.673 1296.05 907.319 1295.17 906.246 1294Z" fill="#C4C4C4"/>
<path d="M1199.3 1072.61C1197.79 1072.18 1199.48 1070.85 1201.44 1069.64C1203.52 1071.76 1206.37 1074.67 1206.37 1074.83C1206.37 1075.35 1205.3 1074.94 1204.85 1075.2C1204.07 1075.63 1203.38 1076.09 1202.67 1076.64C1200.6 1078.22 1201.67 1073.28 1199.3 1072.61Z" fill="#C4C4C4"/>
<path d="M1269.67 1212.77C1271.88 1211.12 1272.97 1209.66 1273.67 1207.7C1273.75 1208.13 1273.84 1208.52 1273.95 1208.82C1274.72 1210.97 1275.44 1211.9 1276.58 1213.84C1277.6 1215.58 1281.15 1214.14 1282.5 1215.48C1283 1215.99 1280.32 1216.34 1280.03 1216.47C1278.34 1217.26 1276.57 1218.04 1274.97 1219.02C1273.22 1220.09 1273.04 1224.79 1273.04 1221.61C1273.04 1219.96 1274.19 1217.83 1273.41 1216.43C1272.38 1214.58 1268.81 1214.58 1266.77 1214.58H1266.75C1265.3 1214.58 1269.07 1213.22 1269.67 1212.77Z" fill="#C4C4C4"/>
<path d="M1108.34 1434.12C1107.24 1436.6 1105.72 1438.19 1103.52 1438.98C1104.85 1439.7 1105.97 1440.63 1107.31 1442.42C1109.64 1445.53 1110.78 1440.66 1112.45 1439.34C1117.45 1435.37 1111.7 1440.64 1108.91 1436.59C1108.51 1435.99 1108.36 1434.07 1108.34 1434.12Z" fill="#C4C4C4"/>
<path d="M284.394 1010.26C285.582 1009.67 286.624 1008.87 287.387 1007.79C288.957 1005.56 288.739 999.402 289.853 1003.22C290.769 1006.36 291.308 1008.3 294.21 1010.05C295.015 1010.53 295.654 1010.47 295.951 1010.38C296.204 1010.24 296.178 1010.32 295.951 1010.38C295.852 1010.44 295.712 1010.53 295.525 1010.66C293.693 1011.99 292.372 1011.69 291.497 1014.28C290.75 1016.49 290.629 1023.93 290.141 1018.55C289.785 1014.64 287.453 1012.01 284.394 1010.26Z" fill="#C4C4C4"/>
<rect width="1440" height="1067" fill="#2F4246"/>
<path d="M622.189 47.6236C631.56 40.276 635.817 34.7469 646.001 28.5741C658.191 21.1854 690.161 12.1224 701.417 14.72V0H0V779.728V1002.26C0 1002.26 82.3617 934.517 127.5 912.5C174.094 889.773 197.204 895.182 259.114 895.182C342.364 895.182 501.978 883.878 509.191 800.942C511.378 775.797 503.242 761.975 497.935 737.299C488.358 692.775 478.452 671.492 465.897 625.168C453.342 578.843 440.353 539.012 433.426 503.944C436.38 480.084 443.817 451.125 443.817 451.125C443.817 451.125 434.693 460.27 426.499 467.577C419.139 472.339 414.81 475.803 410.48 473.205C407.623 468.443 360.259 419.52 349.868 408.697C351.6 392.678 349.436 378.824 344.24 356.744C342.508 343.756 341.25 340.292 343.807 327.737C348.57 304.358 364.156 272.579 373.68 271.887C385.803 271.454 404.852 282.278 404.852 282.278C422.436 306.456 446.414 320.81 448.146 327.737C449.878 334.664 463.732 273.619 500.099 223.831C526.826 187.24 506.564 149.364 533.003 112.565C558.142 77.5751 588.283 74.2064 622.189 47.6236Z" fill="#E9E8E0"/>
<path d="M701.417 14.72V0L1440 -5.5V773.795C1440 773.795 1416.42 919.263 1369.54 880.731C1322.67 842.2 1292.27 962.788 1264.23 938.992C1205.78 889.39 1207 996.971 1165.95 963.856C1124.9 930.741 1108.69 1003.18 1056.85 963.856C1005 924.536 1012.3 998.212 962.899 963.856C913.5 929.5 903.5 987.712 861.5 963.856C819.5 940 818.5 1022.5 788.659 1009C762.268 997.061 752.144 1063.05 725.662 1048.15C670.823 1017.3 641.649 827.86 687.563 752.885C704.86 724.639 746.443 691.841 746.443 691.841L749.101 689.512C785.925 657.243 806.028 639.627 838.226 603.088C868.532 566.721 911.394 506.109 911.394 506.109C911.394 506.109 967.902 386.575 964.212 298.73C963.08 271.767 962.609 256.508 958.151 229.892C953.397 201.501 924.158 167.548 911.394 142.871C891.105 103.647 837.36 76.1977 837.36 76.1977L701.417 14.72Z" fill="#E9E8E0"/>
<path d="M340.171 184.433C349.207 144.428 359.089 117.212 371.475 96.979" stroke="#CEA273" stroke-width="1.29882"/>
<path d="M412.213 778.429C417.907 754.598 419.657 738.22 417.229 718.683" stroke="#929E81" stroke-width="1.29882"/>
<path d="M308.381 536.848C306.392 547.349 305.311 556.4 305.364 564.556C305.474 581.484 310.465 594.552 322.338 608.716" stroke="#CEA273" stroke-width="1.29882"/>
<path d="M287.266 512.603C286.006 544.443 255.679 565.14 271.68 592.697C287.266 619.539 259.664 641.938 257.393 658.937" stroke="#929E81" stroke-width="1.29882"/>
<path d="M398.531 193.958C401.066 215.643 396.76 228.808 377.577 247.412" stroke="#85927A" stroke-width="1.29882"/>
<path d="M988.025 77.4966C1024.05 110.999 1040.2 139.077 1048.74 195.257M936.918 613.965C916.176 645.133 856.408 672.159 856.408 672.159" stroke="#CEA273" stroke-width="1.29882"/>
<path fill-rule="evenodd" clip-rule="evenodd" d="M373.248 97.8448C375.161 97.8448 376.711 96.2941 376.711 94.3813C376.711 92.4684 375.161 90.9177 373.248 90.9177C371.335 90.9177 369.784 92.4684 369.784 94.3813C369.784 96.2941 371.335 97.8448 373.248 97.8448ZM373.247 96.9789C374.682 96.9789 375.845 95.8159 375.845 94.3813C375.845 92.9466 374.682 91.7836 373.247 91.7836C371.813 91.7836 370.65 92.9466 370.65 94.3813C370.65 95.8159 371.813 96.9789 373.247 96.9789Z" fill="#CEA273"/>
<path fill-rule="evenodd" clip-rule="evenodd" d="M323.892 614.777C325.805 614.777 327.356 613.226 327.356 611.314C327.356 609.401 325.805 607.85 323.892 607.85C321.98 607.85 320.429 609.401 320.429 611.314C320.429 613.226 321.98 614.777 323.892 614.777ZM323.892 613.911C325.327 613.911 326.49 612.748 326.49 611.314C326.49 609.879 325.327 608.716 323.892 608.716C322.458 608.716 321.295 609.879 321.295 611.314C321.295 612.748 322.458 613.911 323.892 613.911Z" fill="#CEA273"/>
<path fill-rule="evenodd" clip-rule="evenodd" d="M937.441 616.541C939.354 616.541 940.904 614.991 940.904 613.078C940.904 611.165 939.354 609.614 937.441 609.614C935.528 609.614 933.977 611.165 933.977 613.078C933.977 614.991 935.528 616.541 937.441 616.541ZM937.441 615.675C938.876 615.675 940.039 614.512 940.039 613.078C940.039 611.643 938.876 610.48 937.441 610.48C936.006 610.48 934.843 611.643 934.843 613.078C934.843 614.512 936.006 615.675 937.441 615.675Z" fill="#CEA273"/>
<path fill-rule="evenodd" clip-rule="evenodd" d="M1048.64 201.751C1050.55 201.751 1052.1 200.2 1052.1 198.287C1052.1 196.374 1050.55 194.824 1048.64 194.824C1046.72 194.824 1045.17 196.374 1045.17 198.287C1045.17 200.2 1046.72 201.751 1048.64 201.751ZM1048.64 200.885C1050.07 200.885 1051.23 199.722 1051.23 198.287C1051.23 196.853 1050.07 195.69 1048.64 195.69C1047.2 195.69 1046.04 196.853 1046.04 198.287C1046.04 199.722 1047.2 200.885 1048.64 200.885Z" fill="#CEA273"/>
<path fill-rule="evenodd" clip-rule="evenodd" d="M206.998 654.608C208.911 654.608 210.462 653.057 210.462 651.144C210.462 649.231 208.911 647.681 206.998 647.681C205.085 647.681 203.535 649.231 203.535 651.144C203.535 653.057 205.085 654.608 206.998 654.608ZM206.998 653.742C208.433 653.742 209.596 652.579 209.596 651.144C209.596 649.709 208.433 648.546 206.998 648.546C205.564 648.546 204.401 649.709 204.401 651.144C204.401 652.579 205.564 653.742 206.998 653.742Z" fill="#FFB5A6"/>
<path fill-rule="evenodd" clip-rule="evenodd" d="M188.815 221.666C190.727 221.666 192.278 220.115 192.278 218.203C192.278 216.29 190.727 214.739 188.815 214.739C186.902 214.739 185.351 216.29 185.351 218.203C185.351 220.115 186.902 221.666 188.815 221.666ZM188.815 220.8C190.249 220.8 191.412 219.637 191.412 218.203C191.412 216.768 190.249 215.605 188.815 215.605C187.38 215.605 186.217 216.768 186.217 218.203C186.217 219.637 187.38 220.8 188.815 220.8Z" fill="#FFB5A6"/>
<path fill-rule="evenodd" clip-rule="evenodd" d="M1167.26 530.786C1169.18 530.786 1170.73 529.236 1170.73 527.323C1170.73 525.41 1169.18 523.859 1167.26 523.859C1165.35 523.859 1163.8 525.41 1163.8 527.323C1163.8 529.236 1165.35 530.786 1167.26 530.786ZM1167.26 529.92C1168.7 529.92 1169.86 528.757 1169.86 527.323C1169.86 525.888 1168.7 524.725 1167.26 524.725C1165.83 524.725 1164.66 525.888 1164.66 527.323C1164.66 528.757 1165.83 529.92 1167.26 529.92Z" fill="#FFB5A6"/>
<path fill-rule="evenodd" clip-rule="evenodd" d="M1080.67 202.617C1082.59 202.617 1084.14 201.066 1084.14 199.153C1084.14 197.24 1082.59 195.69 1080.67 195.69C1078.76 195.69 1077.21 197.24 1077.21 199.153C1077.21 201.066 1078.76 202.617 1080.67 202.617ZM1080.67 201.751C1082.11 201.751 1083.27 200.588 1083.27 199.153C1083.27 197.719 1082.11 196.556 1080.67 196.556C1079.24 196.556 1078.08 197.719 1078.08 199.153C1078.08 200.588 1079.24 201.751 1080.67 201.751Z" fill="#FFB5A6"/>
<path fill-rule="evenodd" clip-rule="evenodd" d="M416.542 719.549C418.455 719.549 420.005 717.998 420.005 716.085C420.005 714.173 418.455 712.622 416.542 712.622C414.629 712.622 413.078 714.173 413.078 716.085C413.078 717.998 414.629 719.549 416.542 719.549ZM416.542 718.683C417.976 718.683 419.139 717.52 419.139 716.085C419.139 714.651 417.976 713.488 416.542 713.488C415.107 713.488 413.944 714.651 413.944 716.085C413.944 717.52 415.107 718.683 416.542 718.683Z" fill="#929E81"/>
<path fill-rule="evenodd" clip-rule="evenodd" d="M1271.17 383.586C1273.08 383.586 1274.63 382.036 1274.63 380.123C1274.63 378.21 1273.08 376.659 1271.17 376.659C1269.26 376.659 1267.71 378.21 1267.71 380.123C1267.71 382.036 1269.26 383.586 1271.17 383.586ZM1271.17 382.72C1272.6 382.72 1273.77 381.557 1273.77 380.123C1273.77 378.688 1272.6 377.525 1271.17 377.525C1269.73 377.525 1268.57 378.688 1268.57 380.123C1268.57 381.557 1269.73 382.72 1271.17 382.72Z" fill="#929E81"/>
<path fill-rule="evenodd" clip-rule="evenodd" d="M1086.74 647.68C1088.65 647.68 1090.2 646.13 1090.2 644.217C1090.2 642.304 1088.65 640.753 1086.74 640.753C1084.82 640.753 1083.27 642.304 1083.27 644.217C1083.27 646.13 1084.82 647.68 1086.74 647.68ZM1086.74 646.815C1088.17 646.815 1089.33 645.652 1089.33 644.217C1089.33 642.782 1088.17 641.619 1086.74 641.619C1085.3 641.619 1084.14 642.782 1084.14 644.217C1084.14 645.652 1085.3 646.815 1086.74 646.815Z" fill="#929E81"/>
<path fill-rule="evenodd" clip-rule="evenodd" d="M287.525 513.469C289.438 513.469 290.989 511.918 290.989 510.005C290.989 508.092 289.438 506.542 287.525 506.542C285.612 506.542 284.062 508.092 284.062 510.005C284.062 511.918 285.612 513.469 287.525 513.469ZM287.525 512.603C288.96 512.603 290.123 511.44 290.123 510.005C290.123 508.571 288.96 507.408 287.525 507.408C286.09 507.408 284.927 508.571 284.927 510.005C284.927 511.44 286.09 512.603 287.525 512.603Z" fill="#929E81"/>
<path fill-rule="evenodd" clip-rule="evenodd" d="M375.845 252.838C377.758 252.838 379.309 251.287 379.309 249.374C379.309 247.462 377.758 245.911 375.845 245.911C373.933 245.911 372.382 247.462 372.382 249.374C372.382 251.287 373.933 252.838 375.845 252.838ZM375.845 251.972C377.28 251.972 378.443 250.809 378.443 249.374C378.443 247.94 377.28 246.777 375.845 246.777C374.41 246.777 373.247 247.94 373.247 249.374C373.247 250.809 374.41 251.972 375.845 251.972Z" fill="#929E81"/>
<path d="M1159.47 253.704C1159.47 253.704 1107.89 245.863 1089.77 222.099C1084.72 215.488 1082.37 208.882 1081.33 202.184M1173.76 640.32C1169.24 658.128 1159.39 671.158 1168.56 687.078C1172.8 694.434 1184.15 702.231 1184.15 702.231" stroke="#F2AEA0" stroke-width="1.29882"/>
<path d="M1335.24 391.379C1335.24 391.379 1322.73 405.362 1311.87 408.697C1296.81 413.319 1282.59 398.202 1272.44 382.72M1067 602C1067 602 1080.42 617.638 1086.26 641.186" stroke="#929E81" stroke-width="1.29882"/>
<path d="M987.592 77.4965C1029.8 116.753 1044.73 148.563 1052.1 226.861M1052.1 42.5C1052.1 42.5 1089.77 84.4235 1076.78 149.798C1071.16 178.098 1072.27 199.591 1089.77 222.532C1107.89 246.296 1159.47 254.137 1159.47 254.137M1145.62 236.819C1155.93 243.624 1161.72 244.789 1172.03 243.746M1089.77 84.4235C1098.08 98.7306 1101.53 106.868 1100.16 122.089M1197.39 77.4965C1193.81 42.6044 1198.95 26.645 1215.14 1.73169M1152.54 130.315L1194.54 158.024M987.592 254.137C978.926 272.293 976.958 282.709 979.366 301.76M1027.42 226.861C1032.9 256.117 1032.81 272.501 1027.42 301.76M1078.94 290.071C1117.48 354.579 1131.77 337.096 1168.56 354.579M1156.26 283.746L1197.39 301.064M1238.7 208.678C1238.7 208.678 1282.43 221.856 1282.43 243.746C1282.43 265.393 1278.5 290.071 1299.31 297.431C1317.01 303.69 1341.31 320.81 1341.31 320.81M1238.7 181.402C1251.53 178.876 1255.06 183.2 1257.75 196.555M1238.7 73.1671C1244.03 75.7407 1246.89 77.3917 1249.52 84.4235M1249.52 265.393C1265.43 282.249 1250.82 297.431 1269.44 313.883M1257.75 354.579C1257.75 354.579 1283.5 417.972 1312.3 409.13C1323.16 405.795 1335.68 391.812 1335.68 391.812M1299.31 427.746C1320.31 449.344 1330.98 462.859 1346.5 491.389M1027.42 383.586C994.349 447.012 985.484 465.871 1003.5 529.92M966.901 512.603C966.901 512.603 962.868 542.066 954.712 571M853.812 674.09C853.812 674.09 875.438 663.952 897.5 649.276M858.142 706.994C847.637 710.337 844.391 713.665 845.586 723.445M926.98 726.994C926.98 726.994 882.386 733.055 872.429 748.208C867.862 755.157 871.098 767.913 868.965 778.947C866.447 791.97 854.602 806.489 853.812 802.325M932.608 697.469C965.598 700.333 979.139 695.449 989.324 668.462M1030.56 656.576C1035.06 704.648 1033.06 724.327 1018 741M1070.5 605.5C1083 629 1092.91 640.066 1090.63 697.469M1111 607C1111 607 1131.93 630.751 1130.03 668.462M1037.81 786.222C1037.28 821.333 1024.3 839.777 989.324 871.511M946.029 760.678C961.039 759.067 967.653 755.108 977.202 744.227M1052.97 760.678C1061.89 759.171 1065.38 756.783 1067.25 748.123M1094.1 459.351C1094.1 459.351 1142.8 499.239 1168.56 529.92M1173.76 640.753C1169.24 658.561 1159.39 671.591 1168.56 687.511C1172.8 694.867 1184.15 702.664 1184.15 702.664M1250.82 613.478C1250.82 613.478 1262.88 682.123 1233.07 697.469C1227.51 700.332 1231.77 691.841 1217.92 702.664C1204.06 713.488 1225.71 778.429 1225.71 778.429M1277.23 697.469C1323.25 713.362 1328.96 734.314 1327.88 778.429M1299.31 640.753C1307.8 646.8 1311.69 655.951 1318.36 674.09M1332.21 546.805C1316.73 598.214 1316.96 625.21 1341.31 668.462M720.467 776.264C753.415 810.295 697.097 882.17 733.888 899.653M901.869 810.9C901.869 810.9 933.229 827.906 945.596 845.968C958.012 864.102 948.07 883.059 962.48 899.653C974.788 913.824 1004.48 923.031 1004.48 923.031M912.692 867.615C928.602 884.47 934.847 894.606 932.607 916.104M1120.94 734.702C1120.94 734.702 1132.99 803.346 1103.19 818.692C1097.63 821.556 1101.89 813.064 1088.04 823.888C1074.18 834.711 1095.83 899.653 1095.83 899.653M1169.43 761.977C1177.92 768.023 1181.81 777.175 1188.48 795.314M1230.04 819.558C1230.04 819.558 1185.45 825.62 1175.49 840.772C1170.92 847.722 1174.16 860.478 1172.02 871.511C1169.51 884.535 1157.66 899.054 1156.87 894.89M1235.67 810.034C1268.66 812.898 1282.2 808.014 1292.38 781.027M802.293 781.892C769.218 845.318 765.66 881.062 783.676 945.111M833.464 838.608C848.474 836.996 855.087 833.037 864.636 822.156M857.709 877.573C849.043 895.729 847.075 906.145 849.483 925.196M1250.39 512.603C1266.3 529.458 1272.54 539.594 1270.3 561.092M26.0002 243.746C58.9482 277.777 2.63042 349.652 39.4212 367.134M442.5 196.555C447.982 225.811 447.884 242.195 442.5 271.454M513.117 33.3365C480.043 96.7621 476.485 132.506 494.5 196.555M412.346 100.442C458.369 116.335 464.072 137.287 463 181.402M1407.99 269.29C1407.46 304.4 1394.48 322.845 1359.5 354.579M1359.06 184.866C1363.56 232.937 1361.56 252.616 1346.5 269.29M1390.5 687.511C1390.5 687.511 1350.5 763.893 1370.5 758.947C1390.5 754 1378 835 1378 835M1364.5 529.92C1379.21 532.822 1382.32 538.878 1384 553M1359.5 618.24C1367.99 648.772 1377.36 651.008 1398.5 640.753M1312.3 130.315C1317.78 159.571 1317.68 175.955 1312.3 205.214M1363.95 115.949C1363.95 115.949 1389.7 179.342 1418.5 170.5M1364.1 427.469C1397.09 430.333 1410.63 425.449 1420.81 398.462M945.596 122.089C991.618 137.982 997.322 158.934 996.25 203.05M837.085 15.5106C870 29.5 819 46 870 67" stroke="#300000" stroke-opacity="0.5" stroke-width="3.46353" stroke-dasharray="4.33 4.33"/>
<path d="M186.089 219.068C134.569 232.49 152.319 252.405 128.507 289.638C104.696 326.871 135.002 344.621 134.569 368.433" stroke="#FFB5A6" stroke-width="1.29882"/>
<path d="M398.359 194.391C401.278 219.365 395.124 233.039 367.62 256.734M440.354 38.0989C387.733 66.3759 361.682 89.5346 340.344 184M280.598 32.0377C268.864 61.205 269.03 78.2043 275.403 109.101M261.549 189.195C250.361 197.767 246.444 202.828 242.067 212.141M225.182 115.595C225.182 115.595 216.15 211.591 185.784 219.501C134.264 232.923 152.015 252.838 128.203 290.071C104.391 327.304 134.697 345.054 134.264 368.866C133.831 392.678 128.203 403.935 128.203 403.935M367.62 38.0989L348.137 55.8495M327.356 38.0989C344.964 20.6708 357.323 15.3366 379.742 6.49414M327.356 126.852C329.919 149.683 329.28 157.272 327.356 168.847M313.069 132.047C317.55 144.344 317.066 150.137 313.069 159.323M242.067 790.857C189.446 819.134 157.334 789.907 135.996 884.373M220.852 723.445C209.664 732.017 205.748 737.078 201.37 746.391M339.046 652.876C287.525 666.297 305.276 686.212 281.464 723.445C257.652 760.678 281.897 797.045 281.464 820.857C281.031 844.669 275.403 855.926 275.403 855.926M327.356 793.582C329.919 816.413 329.28 824.002 327.356 835.577M313.069 798.777C317.55 811.074 317.066 816.867 313.069 826.053" stroke="#300000" stroke-opacity="0.5" stroke-width="3.46353" stroke-dasharray="4.33 4.33"/>
<path d="M440.354 38.0989C387.733 66.3759 361.682 89.5346 340.344 184M280.598 32.0377C268.863 61.205 269.029 78.2043 275.403 109.101M367.619 38.0989L348.137 55.8495M327.356 38.0989C344.963 20.6708 357.322 15.3366 379.742 6.49414M327.356 126.852C329.918 149.683 329.279 157.272 327.356 168.847M313.069 132.047C317.549 144.344 317.065 150.137 313.069 159.323M29.5981 828.038C17.8633 857.205 18.0293 874.204 24.4028 905.101M116.619 834.099L97.137 851.849M76.3558 834.099C93.9634 816.671 106.322 811.337 128.742 802.494" stroke="#300000" stroke-opacity="0.5" stroke-width="3.46353" stroke-dasharray="4.33 4.33"/>
<path d="M223.017 326.438L191.845 405.666M316.099 206.946L306.575 223.831M145.52 310.419L158.076 368M172.796 447.661C175.866 474.967 179.155 489.579 191.845 512.603M316.099 300.028C310.952 308.305 309.181 313.181 308.306 322.541M298.349 310.419C298.349 310.419 273.971 370.623 271.939 411.294C269.942 451.273 289.108 472.605 287.525 512.603C286.265 544.443 255.939 565.14 271.939 592.697C287.525 619.539 259.924 641.938 257.652 658.937C255.917 671.925 227.346 697.036 227.346 697.036M105.224 496.024C133.541 539.43 142.677 563.566 138.128 605.991M172.796 537.28C172.796 537.28 209.596 584.038 223.017 609.582C236.438 635.125 191.845 663.266 191.845 663.266M340.344 474.937C342.707 487.448 342.196 494.464 340.344 506.975M308.306 537.28C300.888 576.44 306.112 595.435 335.582 623.003M375.412 502.212C377.585 508.129 377.801 511.448 375.412 517.365M335.582 537.28V549.403M370.65 555.031C380.444 573.64 385.955 581.851 395.761 592.697M370.65 609.582C408.185 631.767 422.867 649.381 429.097 697.036M447.714 692.706C452.811 713.672 454.233 725.426 447.714 746.391M412.212 692.706C420.427 726.184 420.212 744.953 412.212 778.429M181.455 635.991C161.596 682.014 151.615 707.988 141.624 755.483M172.796 715.219C162.537 739.719 159.369 753.572 158.076 778.429M145.52 426.014C136.035 430.778 132.632 434.568 127.77 442.033M106.989 381.854C105.248 393.703 102.741 399.042 94.8662 405.666M237.652 502.56C236.768 531.941 237.551 548.434 242.415 577.892M340.344 761.977C340.344 761.977 377.144 808.735 390.565 834.278M357.662 669.761C350.243 708.92 355.467 727.915 384.937 755.483M126.713 168.707C131.811 189.672 133.232 201.426 126.713 222.391M91.2122 168.707C99.4272 202.184 99.2114 220.953 91.2122 254.429M36.6615 145.761C29.2426 184.92 34.467 203.915 63.9368 231.483M62.3437 619.937C64.707 632.448 64.1956 639.464 62.3437 651.975M30.306 682.28C22.8871 721.44 28.1115 740.435 57.5813 768.003M57.5813 682.28V694.403M92.6496 700.031C102.443 718.641 107.954 726.851 117.76 737.697M23.2241 453.024C51.5408 496.43 60.6767 520.566 56.1277 562.991M63.5205 383.014C54.0353 387.778 50.6325 391.568 45.7699 399.033M245.097 242.447L257.652 300.028M1404.5 467C1406.86 479.511 1406.35 486.527 1404.5 499.038M150.377 50.7776C142.958 89.9369 148.182 108.932 177.652 136.5M210.462 27.4187L223.017 85" stroke="#300000" stroke-opacity="0.5" stroke-width="3.46353" stroke-dasharray="4.33 4.33"/>
<path d="M459.836 430.344C459.836 430.344 474.556 539.878 516.118 572.782C557.68 605.685 563.43 608.249 591.017 634.692C674.575 714.787 713.539 703.53 713.539 703.53" stroke="white" stroke-width="1.29882"/>
<path d="M746.01 691.408C821.259 628.067 858.383 581.206 910.961 505.676" stroke="#2F4246" stroke-width="1.29882"/>
<path d="M404.419 282.711C404.419 282.711 379.309 269.29 371.516 273.186C363.723 277.082 352.027 300.037 345.972 319.944C335.925 352.982 355.232 373.832 350.302 408.264C350.302 408.264 404.419 464.113 410.481 472.339C416.542 480.565 442.951 451.125 442.951 451.125" stroke="#2F4246" stroke-width="1.29882"/>
<path d="M440.787 466.278C440.787 466.278 434.495 487.059 433.859 503.944C433.224 520.829 513.521 780.161 513.521 780.161" stroke="#2F4246" stroke-width="1.29882"/>
<path d="M415.243 311.718C415.243 311.718 401.149 299.454 390.132 298.73C382.772 298.246 361.558 332.051 361.558 357.61C361.558 361.073 380.607 382.72 390.132 393.977C393.596 397.44 407.45 384.885 407.45 384.885" stroke="white" stroke-width="1.29882"/>
<path d="M836.928 76.1978C903.399 114.486 921.398 145.69 929.577 213.44" stroke="#2F4246" stroke-width="1.29882"/>
<path d="M716.57 468.881C695.356 464.309 629.549 497.022 629.549 497.022C629.549 497.022 633.463 499.332 639.074 502.088C639.074 502.088 658.507 541.78 680.203 558.062C689.11 564.746 692.522 569.754 703.582 571.05C710.706 571.885 715.894 569.528 723.064 569.751C733.069 570.062 740.331 577.823 750.34 577.977C773.608 578.336 796.231 542.043 796.231 542.043L801.86 543.347C804.89 543.613 834.33 538.585 834.33 538.585C834.33 538.585 773.285 475.808 765.925 475.808C756.863 475.808 751.174 482.059 742.114 481.869C728.572 481.586 729.811 471.734 716.57 468.881Z" fill="#FFB5A6"/>
<path d="M629.549 497.883C629.549 497.883 633.463 500.193 639.074 502.949C646.093 506.397 655.767 510.543 663.751 511.737C678.271 513.908 686.263 504.898 700.551 508.274C713.651 511.369 716.204 525.209 729.558 526.89C739.857 528.187 745.156 521.143 755.535 521.262C775.722 521.493 781.748 542.444 801.86 544.208C804.89 544.474 834.33 539.445 834.33 539.445" stroke="#515F62" stroke-width="2.59765"/>
<path d="M740.382 211.708C744.788 203.175 745.87 198.446 746.443 190.061M733.455 211.708C739.773 200.437 741.905 194.984 742.114 187.464M728.693 209.977C734.033 198.445 734.946 192.899 733.455 184.433M722.198 206.513C726.179 195.019 726.913 188.573 725.662 177.073M716.57 204.781C717.464 193.852 716.952 187.78 713.54 177.073M709.643 202.184C711.288 191.845 710.346 186.381 706.18 177.073M706.18 200.452C701.933 194.172 696.68 188.063 694.923 172.744M698.387 197.854C693.268 188.738 689.167 182.518 690.161 172.744M687.13 193.958C684.361 185.058 683.411 180.049 684.965 171.012M680.203 192.226C675.44 182.684 673.199 177.083 672.843 164.951M682.801 192.226C672.147 181.633 666.589 175.505 661.587 162.353M671.977 188.762C661.116 181.048 655.132 175.423 644.702 162.353" stroke="white" stroke-width="1.29882"/>
<path d="M735.745 212.4C735.745 212.4 661.93 185.532 641.933 178.451C613.614 175.086 552.918 187.896 552.918 187.896C552.918 187.896 625.336 152.384 648.598 160.621C671.86 168.859 714.812 183.879 743.923 194.188" stroke="url(#paint1_linear)" stroke-width="1.29882"/>
<path d="M792.767 319.511C783.252 281.502 789.52 263.199 826.537 237.252C826.537 237.252 874.16 237.252 896.24 239.417C909.637 245.183 926.979 260.631 926.979 260.631" stroke="white" stroke-width="1.29882"/>
<path d="M830.433 207.812C827.53 219.298 826.918 225.755 827.403 237.252M838.226 212.141C834.732 221.875 834.231 227.381 835.196 237.252M859.873 214.306C849.879 222.411 845.002 227.319 838.659 237.252M867.666 219.068C857.242 225.402 851.846 229.24 844.72 237.685M883.685 219.068C872.521 223.05 866.383 224.805 852.946 237.685M879.789 225.996C871.851 230.178 867.779 232.646 862.471 237.685M897.972 225.996C887.443 227.284 881.647 229.577 871.563 237.685M849.483 210.41C846.139 221.389 840.845 227.093 831.299 237.252M832.598 210.41C830.254 220.818 829.841 226.712 829.568 237.252" stroke="white" stroke-width="1.29882"/>
<path d="M803.626 293.642C797.751 298.841 791.013 300.844 789.272 308.493C786.96 318.652 798.006 324.905 805.092 329.21C812.178 333.516 816.305 335.687 823.237 340.235C839.738 351.062 852.708 364.547 862.195 368.978C875.134 375.022 890.221 376.823 900.598 373.355C922.295 366.106 932.132 353.132 958.429 343.579C963.174 341.856 966.237 337.151 968.545 330.109C973.652 314.524 954.136 305.582 943.551 293.055C933.576 281.249 930.577 276.171 916.929 268.915C901.099 260.498 887.077 257.873 869.154 258.305C855.371 258.638 850.303 259.68 837.776 265.437C821.917 272.726 816.696 282.074 803.626 293.642Z" fill="#8ABAB5"/>
<path d="M937.557 291.931C932.584 300.488 929.073 303.877 921.71 307.749M932.234 288.143C927.598 295.184 924.254 297.689 917.882 301.372M925.468 282.809C921.985 290.123 918.903 292.799 912.51 296.438M918.104 276.927C914.792 284.04 911.644 286.973 905.544 291.801M909.048 271.69C907.005 278.905 904.668 282.321 899.175 287.713M898.944 268.793C897.841 275.876 896.125 279.508 891.858 285.615" stroke="white" stroke-width="1.08739"/>
<path d="M903.711 330.022C917.504 327.43 931.546 312.856 931.546 312.856C931.546 312.856 922.545 299.2 911.354 292.456C898.302 284.591 886.602 279.993 871.397 281.009C854.282 282.153 848.904 287.182 833.384 294.485C828.485 296.791 820.056 298.75 820.321 300.479C820.48 301.517 828.083 303.286 832.554 305.306C843.5 310.25 850.537 316.078 860.333 321.343C875.551 329.521 886.967 333.17 903.711 330.022Z" fill="#B08B63"/>
<path d="M889.976 283.391C916.594 288.806 927.736 309.062 927.736 309.062C927.736 309.062 921.735 330.403 884.139 322.754C846.543 315.105 839.534 296.942 839.534 296.942C839.534 296.942 854.147 276.101 889.976 283.391Z" fill="white"/>
<mask id="mask0" mask-type="alpha" maskUnits="userSpaceOnUse" x="839" y="281" width="89" height="44">
<path d="M889.976 283.391C916.594 288.807 927.736 309.062 927.736 309.062C927.736 309.062 921.735 330.403 884.139 322.754C846.543 315.105 839.534 296.942 839.534 296.942C839.534 296.942 854.147 276.101 889.976 283.391Z" fill="white"/>
</mask>
<g mask="url(#mask0)">
<ellipse cx="886.452" cy="298.34" rx="22.4344" ry="22.1093" transform="rotate(11.5 886.452 298.34)" fill="#D1B8B3"/>
</g>
<circle cx="886.003" cy="298.912" r="7.153" transform="rotate(11.5 886.003 298.912)" fill="#474747"/>
<path d="M538.711 233.897C551.699 228.702 560.661 204.926 584.17 198.396C607.549 191.902 656.904 203.591 708.424 217.878C725.513 222.617 734.471 231.184 743.492 246.452C755.259 266.368 749.409 277.389 751.285 293.643C753.011 308.591 755.301 320.611 748.255 333.907C739.825 349.812 716.964 346.295 699.332 349.925C669.892 355.986 666.408 368.236 638.287 370.274C617.813 371.757 613.741 371.708 594.993 363.346C569.766 352.095 565.399 331.208 548.668 309.229C538.18 295.45 523.339 289.278 522.259 271.996C521.325 257.038 528.753 237.88 538.711 233.897Z" fill="#E8C3B7"/>
<path d="M582.358 244.179C585.252 255.641 588.166 260.688 595.346 267.558M589.718 241.581C592.722 251.192 595.737 255.17 601.841 261.497M599.243 237.685C600.833 247.23 603.491 251.317 609.633 257.6M609.633 233.356C611.095 242.613 613.743 247.017 619.158 254.57M621.756 230.325C621.726 239.281 623.285 243.973 627.817 251.972M634.311 230.325C633.245 238.821 634.019 243.556 636.909 251.972" stroke="white" stroke-width="1.29882"/>
<path d="M621.533 297.915C607.434 290.372 589.682 268.284 589.682 268.284C589.682 268.284 611.609 253.092 626.079 249.598C642.955 245.523 654.161 247.511 670.333 253.824C688.537 260.93 694.723 272.231 709.085 285.484C713.618 289.667 722.105 294.683 721.225 296.472C720.696 297.545 711.829 296.862 706.279 297.525C692.692 299.147 684.085 300.98 671.638 303.344C652.302 307.017 638.647 307.07 621.533 297.915Z" fill="#C1A9A5"/>
<path d="M650.655 248.931C617.186 244.572 596.57 261.023 596.57 261.023C596.57 261.023 600.27 289.553 642.047 296.928C683.825 304.303 702.468 284.592 702.468 284.592C702.468 284.592 686.698 253.626 650.655 248.931Z" fill="white"/>
<mask id="mask1" mask-type="alpha" maskUnits="userSpaceOnUse" x="596" y="248" width="107" height="51">
<path d="M650.655 248.931C617.186 244.572 596.57 261.023 596.57 261.023C596.57 261.023 600.27 289.553 642.047 296.928C683.825 304.303 702.468 284.592 702.468 284.592C702.468 284.592 686.698 253.626 650.655 248.931Z" fill="white"/>
</mask>
<g mask="url(#mask1)">
<ellipse cx="646.928" cy="267.959" rx="26.2994" ry="25.5585" transform="rotate(4.5 646.928 267.959)" fill="#CEA273"/>
</g>
<circle cx="649.027" cy="269.611" r="9.26034" transform="rotate(4.5 649.027 269.611)" fill="#474747"/>
<path d="M391.873 398.52C391.36 403.067 389.38 407.467 385.933 411.72C382.56 415.973 376.877 418.1 368.883 418.1C361.697 418.1 355.757 416.01 351.063 411.83C346.443 407.65 344.133 401.38 344.133 393.02C344.133 384.22 346.663 377.583 351.723 373.11C356.783 368.637 362.907 366.4 370.093 366.4C372.807 366.4 375.703 366.767 378.783 367.5C381.937 368.16 385.017 369.297 388.023 370.91L390.223 385.98L378.893 387.19L377.243 379.05C374.383 378.097 371.89 377.62 369.763 377.62C366.757 377.62 364.19 378.793 362.063 381.14C359.937 383.413 358.873 387.153 358.873 392.36C358.873 402.04 362.65 406.88 370.203 406.88C375.777 406.88 379.04 403.36 379.993 396.32L391.873 398.52ZM457.731 417L430.341 417L430.341 406.33L436.941 406.33L436.941 389.06C436.941 384.807 436.171 381.763 434.631 379.93C433.164 378.097 431.037 377.18 428.251 377.18C425.024 377.18 422.494 378.17 420.661 380.15C418.901 382.13 417.947 384.733 417.801 387.96L417.801 406.33L424.401 406.33L424.401 417L397.011 417L397.011 406.33L403.611 406.33L403.611 352.1L397.011 352.1L397.011 341.32L417.801 341.32L417.801 374.98C421.101 369.26 426.417 366.4 433.751 366.4C438.444 366.4 442.514 367.793 445.961 370.58C449.407 373.367 451.131 377.693 451.131 383.56L451.131 406.33L457.731 406.33L457.731 417ZM468.297 370.91C472.623 369.15 476.217 367.977 479.077 367.39C482.01 366.73 485.493 366.4 489.527 366.4C494.88 366.4 499.5 367.793 503.387 370.58C507.273 373.367 509.217 377.583 509.217 383.23L509.217 404.79C509.217 407.357 510.353 408.64 512.627 408.64C513.287 408.64 513.983 408.53 514.717 408.31L514.827 415.79C511.967 417.33 508.997 418.1 505.917 418.1C499.39 418.1 495.76 414.837 495.027 408.31L495.027 408.2C493.633 410.693 491.617 412.967 488.977 415.02C486.41 417.073 483.11 418.1 479.077 418.1C475.483 418.1 472.037 417.037 468.737 414.91C465.437 412.783 463.787 409.117 463.787 403.91C463.787 397.823 466.207 393.79 471.047 391.81C475.96 389.83 481.24 388.84 486.887 388.84C490.04 388.84 492.753 388.987 495.027 389.28L495.027 387.63C495.027 385.063 494.66 382.57 493.927 380.15C493.267 377.73 490.92 376.52 486.887 376.52C485.42 376.52 484.063 376.63 482.817 376.85C481.643 376.997 480.47 377.363 479.297 377.95L477.427 384.99L466.097 383.78L468.297 370.91ZM495.027 396.76L495.027 396.1C493.853 395.953 492.643 395.807 491.397 395.66C490.223 395.513 489.05 395.44 487.877 395.44C485.383 395.44 483.183 395.917 481.277 396.87C479.37 397.75 478.417 399.547 478.417 402.26C478.417 403.873 478.857 405.23 479.737 406.33C480.617 407.43 482.12 407.98 484.247 407.98C486.74 407.98 489.05 407.1 491.177 405.34C493.377 403.507 494.66 400.647 495.027 396.76ZM582.021 417L554.631 417L554.631 406.33L561.231 406.33L561.231 389.06C561.231 384.807 560.498 381.763 559.031 379.93C557.638 378.097 555.548 377.18 552.761 377.18C549.388 377.18 546.784 378.243 544.951 380.37C543.118 382.423 542.164 385.137 542.091 388.51L542.091 406.33L548.691 406.33L548.691 417L521.301 417L521.301 406.33L527.901 406.33L527.901 378.17L520.751 378.17L520.751 367.39L542.091 367.39L542.091 374.98C545.391 369.26 550.708 366.4 558.041 366.4C562.734 366.4 566.804 367.793 570.251 370.58C573.698 373.367 575.421 377.693 575.421 383.56L575.421 406.33L582.021 406.33L582.021 417ZM646.016 378.17L639.416 378.17L639.416 414.47C639.416 422.39 637.18 428.843 632.706 433.83C628.233 438.89 621.34 441.42 612.026 441.42C606.893 441.42 601.98 440.357 597.286 438.23C592.593 436.177 589.183 432.29 587.056 426.57L597.946 420.41C601.466 426.937 606.196 430.2 612.136 430.2C615.95 430.2 619.066 428.807 621.486 426.02C623.98 423.307 625.226 419.457 625.226 414.47L625.226 407.98C623.906 410.473 621.963 412.6 619.396 414.36C616.83 416.12 613.346 417 608.946 417C603.153 417 598.093 414.983 593.766 410.95C589.44 406.917 587.276 400.977 587.276 393.13C587.276 385.723 589.256 379.417 593.216 374.21C597.176 369.003 602.64 366.4 609.606 366.4C613.493 366.4 616.72 367.207 619.286 368.82C621.853 370.433 623.833 372.523 625.226 375.09L625.226 367.39L646.016 367.39L646.016 378.17ZM625.226 391.92L625.226 390.71C625.226 386.603 624.163 383.413 622.036 381.14C619.983 378.793 617.343 377.62 614.116 377.62C610.963 377.62 608.323 378.793 606.196 381.14C604.143 383.487 603.116 387.19 603.116 392.25C603.116 397.017 604.033 400.463 605.866 402.59C607.773 404.717 610.23 405.78 613.236 405.78C617.123 405.78 620.093 404.387 622.146 401.6C624.2 398.813 625.226 395.587 625.226 391.92ZM700.066 401.38C699.699 405.78 697.536 409.667 693.576 413.04C689.616 416.413 684.079 418.1 676.966 418.1C669.559 418.1 663.436 416.01 658.596 411.83C653.829 407.65 651.446 401.417 651.446 393.13C651.446 385.503 653.609 379.16 657.936 374.1C662.336 368.967 668.459 366.4 676.306 366.4C683.199 366.4 688.772 368.38 693.026 372.34C697.352 376.3 699.552 381.507 699.626 387.96C699.626 390.38 699.369 392.763 698.856 395.11L666.296 395.11C667.102 402.957 670.989 406.88 677.956 406.88C681.769 406.88 684.336 405.963 685.656 404.13C687.049 402.297 687.892 400.647 688.186 399.18L700.066 401.38ZM684.996 386.86C685.289 384.367 684.739 382.02 683.346 379.82C682.026 377.62 679.679 376.52 676.306 376.52C673.372 376.52 671.099 377.473 669.486 379.38C667.872 381.287 666.846 383.78 666.406 386.86L684.996 386.86Z" fill="#E9E8E0"/>
<path d="M751.651 268.589C752.51 259.712 755.861 253.136 763.928 249.332C772.882 245.111 781.412 247.613 788.805 254.195C794.631 259.382 804.632 279.795 806.266 288.538C811.787 318.082 814.03 335.068 812.43 342.64C806.932 368.65 799.595 392.134 783.717 404.104C764.817 418.351 736.702 431.936 712.609 442.071C696.115 449.009 683.392 455.868 671.087 453.267C661.067 451.15 659.604 443.931 659.006 433.707C658.201 419.944 695.033 412.632 706.826 391.312C715.566 375.509 716.412 363.584 716.767 346.15C717.094 330.103 730.893 322.152 738.039 305.856C744.262 291.666 749.812 287.58 751.651 268.589Z" fill="#969D8D"/>
<path d="M741.069 403.387C744.5 398.889 749.898 395.968 755.992 395.914C766.467 395.823 775.032 404.24 775.124 414.715C775.215 425.189 766.798 433.755 756.323 433.846C751.061 433.892 746.281 431.791 742.815 428.36" stroke="white" stroke-width="0.917743"/>
<path d="M821.66 401.6C820.927 407.32 818.947 411.5 815.72 414.14C812.493 416.78 808.313 418.1 803.18 418.1C797.68 418.1 793.207 416.743 789.76 414.03C786.387 411.243 784.7 407.283 784.7 402.15V377.51H777.66V367.39H784.7V352.32H798.89V367.39H816.71V377.51H798.89V399.73C798.89 404.057 800.87 406.22 804.83 406.22C805.71 406.22 806.883 405.853 808.35 405.12C809.89 404.313 810.88 402.077 811.32 398.41L821.66 401.6ZM883.308 417H855.918V406.33H862.518V389.06C862.518 384.807 861.748 381.763 860.208 379.93C858.741 378.097 856.615 377.18 853.828 377.18C850.601 377.18 848.071 378.17 846.238 380.15C844.478 382.13 843.525 384.733 843.378 387.96V406.33H849.978V417H822.588V406.33H829.188V352.1H822.588V341.32H843.378V374.98C846.678 369.26 851.995 366.4 859.328 366.4C864.021 366.4 868.091 367.793 871.538 370.58C874.985 373.367 876.708 377.693 876.708 383.56V406.33H883.308V417ZM935.674 401.38C935.307 405.78 933.144 409.667 929.184 413.04C925.224 416.413 919.687 418.1 912.574 418.1C905.167 418.1 899.044 416.01 894.204 411.83C889.437 407.65 887.054 401.417 887.054 393.13C887.054 385.503 889.217 379.16 893.544 374.1C897.944 368.967 904.067 366.4 911.914 366.4C918.807 366.4 924.381 368.38 928.634 372.34C932.961 376.3 935.161 381.507 935.234 387.96C935.234 390.38 934.977 392.763 934.464 395.11H901.904C902.711 402.957 906.597 406.88 913.564 406.88C917.377 406.88 919.944 405.963 921.264 404.13C922.657 402.297 923.501 400.647 923.794 399.18L935.674 401.38ZM920.604 386.86C920.897 384.367 920.347 382.02 918.954 379.82C917.634 377.62 915.287 376.52 911.914 376.52C908.981 376.52 906.707 377.473 905.094 379.38C903.481 381.287 902.454 383.78 902.014 386.86H920.604Z" fill="#FFB924"/>
<path d="M1022.35 417H994.956V406.33H1001.56V389.06C1001.56 384.807 1000.82 381.763 999.356 379.93C997.962 378.097 995.872 377.18 993.086 377.18C989.712 377.18 987.109 378.243 985.276 380.37C983.442 382.423 982.489 385.137 982.416 388.51V406.33H989.016V417H961.626V406.33H968.226V378.17H961.076V367.39H982.416V374.98C985.716 369.26 991.032 366.4 998.366 366.4C1003.06 366.4 1007.13 367.793 1010.58 370.58C1014.02 373.367 1015.75 377.693 1015.75 383.56V406.33H1022.35V417ZM1078.97 392.25C1078.97 400.097 1076.4 406.367 1071.27 411.06C1066.14 415.753 1059.61 418.1 1051.69 418.1C1044.06 418.1 1037.83 415.9 1032.99 411.5C1028.22 407.027 1025.84 400.793 1025.84 392.8C1025.84 385.54 1028.04 379.307 1032.44 374.1C1036.84 368.893 1043.51 366.29 1052.46 366.29C1061.41 366.29 1068.04 368.893 1072.37 374.1C1076.77 379.233 1078.97 385.283 1078.97 392.25ZM1064.34 391.81C1064.34 386.75 1063.17 383.047 1060.82 380.7C1058.47 378.353 1055.61 377.18 1052.24 377.18C1048.57 377.18 1045.68 378.5 1043.55 381.14C1041.5 383.707 1040.47 387.337 1040.47 392.03C1040.47 396.283 1041.42 399.877 1043.33 402.81C1045.31 405.743 1048.24 407.21 1052.13 407.21C1055.8 407.21 1058.73 405.853 1060.93 403.14C1063.2 400.353 1064.34 396.577 1064.34 391.81ZM1115.76 366.73C1117.15 366.73 1118.69 366.95 1120.38 367.39C1122.14 367.757 1123.86 368.453 1125.55 369.48L1127.75 386.86L1116.97 388.07L1115.1 379.6C1113.63 378.72 1112.35 378.28 1111.25 378.28C1109.64 378.28 1108.21 378.903 1106.96 380.15C1105.79 381.397 1105.2 383.23 1105.2 385.65V406.33H1114V417H1084.41V406.33H1091.01V378.17H1083.86V367.39H1104.1V376.85C1104.91 373.99 1106.19 371.607 1107.95 369.7C1109.78 367.72 1112.39 366.73 1115.76 366.73ZM1224.81 417H1204.02V389.06C1204.02 384.807 1203.29 381.763 1201.82 379.93C1200.43 378.097 1198.34 377.18 1195.55 377.18C1192.18 377.18 1189.72 378.28 1188.18 380.48C1186.72 382.68 1185.98 385.503 1185.98 388.95V406.33H1192.58V417H1171.79V389.06C1171.79 384.807 1171.06 381.763 1169.59 379.93C1168.2 378.097 1166.11 377.18 1163.32 377.18C1159.88 377.18 1157.42 378.28 1155.95 380.48C1154.49 382.68 1153.75 385.503 1153.75 388.95V406.33H1163.21V417H1132.96V406.33H1139.56V378.17H1133.07V367.39H1153.75V374.87C1156.91 369.223 1161.93 366.4 1168.82 366.4C1172.42 366.4 1175.72 367.28 1178.72 369.04C1181.73 370.8 1183.82 373.477 1184.99 377.07C1187.93 369.957 1193.32 366.4 1201.16 366.4C1205.64 366.4 1209.6 367.793 1213.04 370.58C1216.49 373.367 1218.21 377.693 1218.21 383.56V406.33H1224.81V417Z" fill="#2F4246"/>
<defs>
<filter id="filter0_d" x="361.907" y="1852.97" width="86.5637" height="97.075" filterUnits="userSpaceOnUse" color-interpolation-filters="sRGB">
<feFlood flood-opacity="0" result="BackgroundImageFix"/>
<feColorMatrix in="SourceAlpha" type="matrix" values="0 0 0 0 0 0 0 0 0 0 0 0 0 0 0 0 0 0 127 0"/>
<feOffset dy="4"/>
<feGaussianBlur stdDeviation="7.5"/>
<feColorMatrix type="matrix" values="0 0 0 0 0 0 0 0 0 0 0 0 0 0 0 0 0 0 0.25 0"/>
<feBlend mode="normal" in2="BackgroundImageFix" result="effect1_dropShadow"/>
<feBlend mode="normal" in="SourceGraphic" in2="effect1_dropShadow" result="shape"/>
</filter>
<filter id="filter1_d" x="-17.626" y="1081.3" width="749.877" height="274.17" filterUnits="userSpaceOnUse" color-interpolation-filters="sRGB">
<feFlood flood-opacity="0" result="BackgroundImageFix"/>
<feColorMatrix in="SourceAlpha" type="matrix" values="0 0 0 0 0 0 0 0 0 0 0 0 0 0 0 0 0 0 127 0"/>
<feOffset/>
<feGaussianBlur stdDeviation="13.4637"/>
<feColorMatrix type="matrix" values="0 0 0 0 0.184314 0 0 0 0 0.258824 0 0 0 0 0.27451 0 0 0 1 0"/>
<feBlend mode="normal" in2="BackgroundImageFix" result="effect1_dropShadow"/>
<feBlend mode="normal" in="SourceGraphic" in2="effect1_dropShadow" result="shape"/>
</filter>
<filter id="filter2_d" x="-53.9451" y="1072.73" width="430.35" height="125.505" filterUnits="userSpaceOnUse" color-interpolation-filters="sRGB">
<feFlood flood-opacity="0" result="BackgroundImageFix"/>
<feColorMatrix in="SourceAlpha" type="matrix" values="0 0 0 0 0 0 0 0 0 0 0 0 0 0 0 0 0 0 127 0"/>
<feOffset dy="4"/>
<feGaussianBlur stdDeviation="2"/>
<feColorMatrix type="matrix" values="0 0 0 0 0 0 0 0 0 0 0 0 0 0 0 0 0 0 0.05 0"/>
<feBlend mode="normal" in2="BackgroundImageFix" result="effect1_dropShadow"/>
<feBlend mode="normal" in="SourceGraphic" in2="effect1_dropShadow" result="shape"/>
</filter>
<linearGradient id="paint0_linear" x1="728.26" y1="1067" x2="705.408" y2="3052.72" gradientUnits="userSpaceOnUse">
<stop stop-color="#2F4246"/>
<stop offset="1" stop-color="#E9E8E0"/>
</linearGradient>
<linearGradient id="paint1_linear" x1="625.219" y1="200.885" x2="664.184" y2="139.407" gradientUnits="userSpaceOnUse">
<stop stop-color="white"/>
<stop offset="1" stop-color="white" stop-opacity="0"/>
</linearGradient>
</defs>
</svg>
