<svg width="414" height="604" viewBox="0 0 414 604" fill="none" xmlns="http://www.w3.org/2000/svg">
<path d="M318.307 28.6998C323.954 24.2719 326.519 20.9398 332.657 17.2199C340.003 12.7672 359.105 8.87084 366.053 8.87084H414V0H0V469.894V604C0 604 28.6321 563.521 55.8341 550.253C83.9137 536.557 97.8402 539.817 135.15 539.817C185.319 539.817 245.863 532.659 250.21 482.678C251.528 467.525 246.625 459.195 243.426 444.325C237.655 417.493 231.686 404.667 224.119 376.75C216.553 348.833 208.726 324.829 204.551 303.696C206.331 289.317 210.813 271.865 210.813 271.865C210.813 271.865 205.315 277.376 200.377 281.78C195.941 284.65 193.332 286.737 190.723 285.171C189.001 282.302 160.458 252.819 154.196 246.296C155.24 236.643 153.935 228.294 150.804 214.987C149.761 207.16 149.002 205.073 150.543 197.507C153.413 183.418 162.806 164.267 168.546 163.85C175.851 163.589 187.331 170.111 187.331 170.111C197.928 184.682 212.378 193.332 213.422 197.507C214.466 201.681 222.815 164.893 244.731 134.889C260.838 112.838 248.627 90.0123 264.56 67.8358C279.71 46.7497 297.874 44.7196 318.307 28.6998Z" fill="#E9E8E0"/>
<path d="M389.535 127.583C392.19 122.441 392.842 119.591 393.187 114.538M385.36 127.583C389.167 120.791 390.452 117.505 390.578 112.973M382.49 126.54C385.708 119.59 386.259 116.248 385.36 111.146M378.576 124.453C380.975 117.526 381.417 113.641 380.664 106.711M375.185 123.409C375.723 116.823 375.415 113.163 373.358 106.711M371.01 121.844C372.002 115.613 371.434 112.32 368.923 106.711M368.923 120.8C366.364 117.015 363.198 113.334 362.139 104.102M364.227 119.234C361.142 113.74 358.671 109.992 359.269 104.102M357.443 116.886C355.774 111.523 355.202 108.504 356.138 103.058M353.268 115.843C350.398 110.092 349.048 106.717 348.833 99.4055M354.834 115.843C348.413 109.459 345.064 105.766 342.049 97.8401M348.311 113.755C341.766 109.106 338.159 105.716 331.874 97.8401" stroke="white" stroke-width="0.782721"/>
<path d="M386.74 128.001C386.74 128.001 342.257 111.809 330.206 107.541C313.14 105.514 276.562 113.234 276.562 113.234C276.562 113.234 320.204 91.8322 334.222 96.7965C348.241 101.761 374.125 110.813 391.669 117.025" stroke="url(#paint0_linear)" stroke-width="0.782721"/>
<path d="M220.467 259.342C220.467 259.342 229.338 325.351 254.385 345.18C279.432 365.009 282.897 366.554 299.522 382.49C349.877 430.758 373.358 423.974 373.358 423.974" stroke="white" stroke-width="0.782721"/>
<path d="M187.07 170.373C187.07 170.373 171.938 162.285 167.241 164.633C162.545 166.981 155.496 180.814 151.848 192.811C145.793 212.721 157.428 225.286 154.457 246.036C154.457 246.036 187.07 279.693 190.723 284.65C194.376 289.607 210.291 271.865 210.291 271.865" stroke="#2F4246" stroke-width="0.782721"/>
<path d="M208.987 280.997C208.987 280.997 205.196 293.521 204.813 303.696C204.43 313.871 252.82 470.155 252.82 470.155" stroke="#2F4246" stroke-width="0.782721"/>
<path d="M267.999 140.955C275.827 137.824 281.227 123.496 295.395 119.561C309.484 115.647 339.227 122.692 370.275 131.302C380.574 134.158 385.972 139.32 391.408 148.522C398.5 160.523 394.974 167.165 396.105 176.961C397.145 185.969 398.525 193.212 394.278 201.225C389.199 210.81 375.421 208.691 364.796 210.879C347.054 214.531 344.955 221.913 328.008 223.141C315.67 224.035 313.215 224.006 301.917 218.967C286.714 212.186 284.083 199.599 274 186.353C267.68 178.05 258.736 174.33 258.085 163.915C257.522 154.901 261.999 143.356 267.999 140.955Z" fill="#E8C3B7"/>
<path d="M427.647 176.96C424.107 180.093 420.046 181.3 418.997 185.91C417.604 192.032 424.26 195.8 428.531 198.395C432.801 200.989 435.288 202.297 439.466 205.039C449.409 211.563 457.226 219.69 462.943 222.36C470.741 226.002 479.832 227.088 486.086 224.998C499.162 220.629 505.09 212.811 520.937 207.054C523.797 206.015 525.643 203.18 527.034 198.936C530.111 189.544 518.35 184.155 511.971 176.606C505.96 169.491 504.152 166.431 495.928 162.058C486.388 156.986 477.938 155.404 467.137 155.664C458.831 155.865 455.777 156.493 448.227 159.963C438.67 164.355 435.523 169.988 427.647 176.96Z" fill="#89BAB6"/>
<path d="M294.304 147.152C296.047 154.059 297.804 157.1 302.131 161.241M298.739 145.586C300.549 151.378 302.366 153.775 306.045 157.588M304.479 143.238C305.437 148.99 307.039 151.453 310.741 155.24M310.741 140.629C311.622 146.208 313.218 148.862 316.481 153.413M318.046 138.802C318.028 144.2 318.968 147.028 321.699 151.848M325.613 138.802C324.97 143.922 325.437 146.776 327.178 151.848" stroke="white" stroke-width="0.782721"/>
<path d="M375.185 282.566C362.4 279.811 322.742 299.525 322.742 299.525C322.742 299.525 325.101 300.917 328.482 302.578C328.482 302.578 340.193 326.498 353.268 336.31C358.636 340.338 360.692 343.356 367.357 344.137C371.651 344.64 374.777 343.22 379.098 343.354C385.127 343.542 389.504 348.218 395.535 348.311C409.558 348.527 423.191 326.656 423.191 326.656L426.583 327.442C428.41 327.602 446.151 324.572 446.151 324.572C446.151 324.572 409.363 286.74 404.928 286.74C399.467 286.74 396.038 290.507 390.578 290.393C382.417 290.222 383.164 284.285 375.185 282.566Z" fill="#D1B8B3"/>
<path d="M322.742 300.043C322.742 300.043 325.101 301.435 328.482 303.096C332.712 305.174 338.542 307.672 343.354 308.392C352.104 309.7 356.921 304.27 365.531 306.305C373.425 308.17 374.964 316.51 383.012 317.524C389.218 318.305 392.411 314.06 398.666 314.132C410.832 314.271 414.463 326.897 426.583 327.96C428.41 328.12 446.151 325.09 446.151 325.09" stroke="#515F62" stroke-width="1.56544"/>
<path d="M193.593 187.853C193.593 187.853 185.099 180.463 178.46 180.026C174.025 179.734 161.24 200.107 161.24 215.509C161.24 217.597 172.72 230.642 178.46 237.426C180.547 239.513 188.896 231.947 188.896 231.947" stroke="white" stroke-width="0.782721"/>
<path d="M396.325 161.862C396.843 156.513 398.862 152.55 403.724 150.257C409.12 147.713 414.26 149.221 418.716 153.188C422.226 156.313 428.253 168.615 429.238 173.884C432.566 191.688 433.917 201.925 432.953 206.488C429.64 222.163 425.218 236.315 415.649 243.528C404.26 252.114 387.316 260.302 372.797 266.409C362.857 270.59 355.189 274.724 347.775 273.156C341.736 271.88 340.854 267.53 340.494 261.369C340.009 253.074 362.205 248.668 369.312 235.819C374.579 226.296 375.089 219.11 375.303 208.603C375.5 198.932 383.815 194.141 388.122 184.32C391.872 175.769 395.217 173.307 396.325 161.862Z" fill="#969D8D"/>
<path d="M389.948 243.096C392.016 240.386 395.269 238.625 398.942 238.593C405.254 238.538 410.416 243.611 410.471 249.923C410.526 256.235 405.453 261.397 399.141 261.452C395.97 261.48 393.089 260.214 391 258.146" stroke="white" stroke-width="0.553067"/>
<path d="M317.912 179.535C309.415 174.989 298.717 161.678 298.717 161.678C298.717 161.678 311.931 152.523 320.651 150.417C330.822 147.962 337.575 149.16 347.321 152.964C358.291 157.247 362.019 164.057 370.674 172.044C373.405 174.564 378.52 177.587 377.99 178.665C377.672 179.312 372.328 178.9 368.983 179.3C360.795 180.278 355.608 181.382 348.107 182.807C336.454 185.02 328.226 185.052 317.912 179.535Z" fill="#C1A9A5"/>
<path d="M335.461 150.016C315.292 147.389 302.868 157.303 302.868 157.303C302.868 157.303 305.097 174.496 330.274 178.94C355.451 183.385 366.686 171.506 366.686 171.506C366.686 171.506 357.182 152.845 335.461 150.016Z" fill="white"/>
<mask id="mask0" mask-type="alpha" maskUnits="userSpaceOnUse" x="301" y="147" width="68" height="36">
<path d="M335.461 150.016C315.292 147.389 302.868 157.303 302.868 157.303C302.868 157.303 305.097 174.496 330.274 178.94C355.451 183.385 366.686 171.506 366.686 171.506C366.686 171.506 357.182 152.845 335.461 150.016Z" fill="white"/>
</mask>
<g mask="url(#mask0)">
<ellipse cx="333.216" cy="161.483" rx="15.849" ry="15.4026" transform="rotate(4.5 333.216 161.483)" fill="#CEA273"/>
</g>
<circle cx="334.48" cy="162.478" r="5.58064" transform="rotate(4.5 334.48 162.478)" fill="#474747"/>
<path d="M183.418 117.147C185.177 132.198 181.469 140.438 164.894 154.718M265.5 22.9599C233.789 40.0007 218.09 53.957 205.231 110.886M112.451 19.3072C105.38 36.8845 105.48 47.129 109.32 65.7487M103.5 106C96.758 111.166 94.3978 114.215 91.7596 119.828M79.0553 69.6623C79.0553 69.6623 82.3922 118.733 64.0927 123.5M24.2648 222.293C24.0039 236.643 20.6121 243.426 20.6121 243.426M176.635 32.8028L164.894 43.5M152.37 32.8028C162.981 22.3 170.429 19.0854 183.94 13.7566M140.629 76.4459C142.174 90.2045 141.788 94.7781 140.629 101.754M132.019 79.5767C134.72 86.987 134.428 90.4782 132.019 96.0139M73.4222 518.144C41.7109 535.185 22.359 517.571 9.5 574.5M76.4461 435.976C69.7037 441.141 67.3435 444.191 64.7053 449.804M120.5 414C120.5 414 127.323 413.538 112.973 435.976C98.6233 458.414 110.261 455.65 110 470M163.11 507.869C164.654 521.628 164.269 526.201 163.11 533.177M154.5 511C157.2 518.41 156.908 521.901 154.5 527.437" stroke="#300000" stroke-opacity="0.5" stroke-width="2.08726" stroke-dasharray="2.61 2.61"/>
<path d="M67 225L58.9647 244.47M137.5 107.5L131.76 117.675M96.5 157C97 170.616 98.6357 178.252 104.066 191.701M47.4848 269.778C49.3349 286.233 51.3174 295.039 58.9647 308.914M121.321 225.433C118.219 230.421 117.152 233.359 116.625 239M110.624 231.695C110.624 231.695 110.624 231.695 107.233 247.862C102.279 271.471 117.579 284.81 116.625 308.914C115.866 328.102 97.5898 340.575 107.233 357.182M73.0537 317.002C90.1184 343.161 77.75 352 77.75 352M0.782393 280.214C0.782393 280.214 22.9595 308.392 31.0476 323.786C39.1357 339.179 12.2623 356.138 12.2623 356.138M148.456 286.215C149.88 293.755 149.572 297.983 148.456 305.522M129.149 323.786C124.678 347.385 126.279 356.138 126.279 356.138M169.589 302.652C170.899 306.218 171.029 308.218 169.589 311.784M145.586 323.786V331.091M166.719 334.483C172.621 345.698 175.942 350.646 181.852 357.182M175.329 371.5C175.329 371.5 198.187 391.342 201.942 420.061M213.161 417.452C216.233 430.086 217.089 437.17 213.161 449.804M191.766 417.452C196.717 437.626 196.587 448.937 191.766 469.111M43 411C31.0322 438.735 34.7204 426.661 28.6995 455.283M47.4848 431.019C41.3027 445.783 39.3933 454.131 38.6139 469.111M7.82688 230.12C6.77808 237.261 5.26729 240.478 0.521484 244.47M186 478.5C186 478.5 177.912 511.606 186 527M158.892 403.623C154.421 427.222 157.57 438.67 175.329 455.283" stroke="#300000" stroke-opacity="0.5" stroke-width="2.08726" stroke-dasharray="2.61 2.61"/>
<path d="M207 106.703C212.446 82.5948 218.401 66.193 225.865 54" stroke="#CEA273" stroke-width="0.782721"/>
<path d="M191.767 469.111C195.198 454.75 196.253 444.88 194.79 433.106" stroke="#929E81" stroke-width="0.782721"/>
<path d="M129.194 323.525C127.995 329.853 127.344 335.308 127.376 340.223" stroke="#CEA273" stroke-width="0.782721"/>
<path d="M116.469 308.914C115.71 328.102 97.434 340.575 107.077 357.182" stroke="#929E81" stroke-width="0.782721"/>
<path d="M183.522 116.886C185.05 129.955 182.455 137.889 170.895 149.1" stroke="#85927A" stroke-width="0.782721"/>
<path fill-rule="evenodd" clip-rule="evenodd" d="M194.375 433.628C195.528 433.628 196.463 432.693 196.463 431.54C196.463 430.388 195.528 429.453 194.375 429.453C193.223 429.453 192.288 430.388 192.288 431.54C192.288 432.693 193.223 433.628 194.375 433.628ZM194.376 433.106C195.24 433.106 195.941 432.405 195.941 431.54C195.941 430.676 195.24 429.975 194.376 429.975C193.511 429.975 192.81 430.676 192.81 431.54C192.81 432.405 193.511 433.106 194.376 433.106Z" fill="#929E81"/>
<path fill-rule="evenodd" clip-rule="evenodd" d="M116.625 309.436C117.778 309.436 118.713 308.501 118.713 307.348C118.713 306.196 117.778 305.261 116.625 305.261C115.473 305.261 114.538 306.196 114.538 307.348C114.538 308.501 115.473 309.436 116.625 309.436ZM116.625 308.914C117.49 308.914 118.191 308.213 118.191 307.349C118.191 306.484 117.49 305.783 116.625 305.783C115.761 305.783 115.06 306.484 115.06 307.349C115.06 308.213 115.761 308.914 116.625 308.914Z" fill="#929E81"/>
<path fill-rule="evenodd" clip-rule="evenodd" d="M169.851 152.37C171.004 152.37 171.938 151.435 171.938 150.283C171.938 149.13 171.004 148.195 169.851 148.195C168.698 148.195 167.764 149.13 167.764 150.283C167.764 151.435 168.698 152.37 169.851 152.37ZM169.851 151.848C170.715 151.848 171.416 151.147 171.416 150.283C171.416 149.418 170.715 148.717 169.851 148.717C168.986 148.717 168.285 149.418 168.285 150.283C168.285 151.147 168.986 151.848 169.851 151.848Z" fill="#929E81"/>
<defs>
<linearGradient id="paint0_linear" x1="320.133" y1="121.061" x2="343.615" y2="84.012" gradientUnits="userSpaceOnUse">
<stop stop-color="white"/>
<stop offset="1" stop-color="white" stop-opacity="0"/>
</linearGradient>
</defs>
</svg>
