<svg width="154" height="155" viewBox="0 0 154 155" fill="none" xmlns="http://www.w3.org/2000/svg">
<path d="M11.1831 38.9809C16.3388 30.6246 20.7872 26.9381 28.0743 20.3573C33.6671 15.3066 36.7761 12.2551 43.3413 8.55516C55.7695 1.55101 64.5901 -0.0527045 78.856 0.00130394C93.4292 0.0564757 102.165 2.34113 115.02 9.20482C128.171 16.2259 135.626 22.0744 143.281 34.8664C149.213 44.7804 150.556 51.609 152.376 63.0183C154.241 74.7102 154.823 81.7516 152.376 93.3358C150.383 102.77 147.962 107.861 143.281 116.29C138.296 125.266 135.227 130.568 127.472 137.296C117.414 146.023 96.6134 151.805 96.6134 151.805C96.6134 151.805 69.9243 156.955 54.1689 151.805C40.1899 147.236 33.3479 141.127 22.9853 130.691C17.8619 125.532 15.0863 122.425 11.1831 116.29C5.94646 108.06 3.3164 102.887 1.32994 93.3358C-0.702098 83.5657 -0.164255 77.6492 1.32994 67.7825C3.10991 56.0288 4.94113 49.098 11.1831 38.9809Z" fill="#FFB924"/>
</svg>
