<svg width="268" height="51" viewBox="0 0 268 51" fill="none" xmlns="http://www.w3.org/2000/svg">
<path d="M5.79151 41.0378C5.73381 42.5379 4.83579 43.5208 3.69231 44.2626C4.6776 44.7121 5.5154 45.3917 5.94473 46.3696C6.21418 46.9834 6.25026 48.3506 6.48098 47.197C6.66639 46.27 6.6208 44.5119 7.72202 44.0714C8.38912 43.8046 9.80574 43.5198 9.80574 43.5198C9.80574 43.5198 7.27694 43.45 6.78741 42.5086C6.39903 41.7617 5.89683 38.2995 5.79151 41.0378Z" fill="#C4C4C4"/>
<path d="M25.6234 47.6262C26.5581 46.8365 27.2674 45.7616 27.6749 44.58C27.7055 44.491 27.7288 44.4126 27.7462 44.3446C27.6831 43.8979 27.8731 43.847 27.7462 44.3446C27.7654 44.48 27.8078 44.6518 27.8894 44.8558C28.4233 46.1906 29.1575 47.0008 30.6472 47.0008C30.9584 47.0008 30.01 47.2542 29.8199 47.2766C29.1967 47.3499 28.613 48.3284 28.5022 48.87C28.3751 49.4914 28.7023 52.1459 28.2264 50.4328C27.9937 49.5952 26.8288 48.3274 25.6234 47.6262Z" fill="#C4C4C4"/>
<path d="M56.2506 3.63601C55.316 2.84625 54.6066 1.77138 54.1992 0.589774C54.1685 0.50076 54.1452 0.422407 54.1278 0.354323C54.1909 -0.0923247 54.0009 -0.143206 54.1278 0.354323C54.1087 0.489763 54.0663 0.661594 53.9847 0.86556C53.4507 2.20037 52.7165 3.01057 51.2268 3.01057C50.9157 3.01057 51.8641 3.26399 52.0542 3.28635C52.6773 3.35966 53.261 4.33816 53.3718 4.87978C53.4989 5.50113 53.1717 8.15571 53.6476 6.44257C53.8803 5.60493 55.0452 4.33717 56.2506 3.63601Z" fill="#C4C4C4"/>
<path d="M65.7063 24.704C65.1869 24.2771 64.7928 23.6959 64.5663 23.0571C64.5493 23.009 64.5363 22.9666 64.5267 22.9298C64.5618 22.6884 64.4562 22.6609 64.5267 22.9298C64.516 23.0031 64.4925 23.096 64.4471 23.2062C64.1505 23.9279 63.7424 24.3659 62.9146 24.3659C62.7418 24.3659 63.2688 24.5029 63.3744 24.515C63.7207 24.5546 64.045 25.0836 64.1066 25.3764C64.1772 25.7124 63.9954 27.1475 64.2598 26.2213C64.3891 25.7685 65.0365 25.0831 65.7063 24.704Z" fill="#C4C4C4"/>
<path d="M262.094 26.3376C263.028 27.1274 263.738 28.2023 264.145 29.3839C264.176 29.4729 264.199 29.5512 264.216 29.6193C264.153 30.066 264.343 30.1168 264.216 29.6193C264.236 29.4839 264.278 29.312 264.36 29.1081C264.893 27.7733 265.628 26.9631 267.117 26.9631C267.429 26.9631 266.48 26.7096 266.29 26.6873C265.667 26.614 265.083 25.6355 264.972 25.0938C264.845 24.4725 265.173 21.8179 264.697 23.5311C264.464 24.3687 263.299 25.6365 262.094 26.3376Z" fill="#C4C4C4"/>
<path d="M244.716 14.5714C245.235 14.9983 245.63 15.5794 245.856 16.2183C245.873 16.2664 245.886 16.3087 245.896 16.3456C245.861 16.587 245.966 16.6145 245.896 16.3456C245.906 16.2723 245.93 16.1794 245.975 16.0692C246.272 15.3475 246.68 14.9095 247.508 14.9095C247.681 14.9095 247.154 14.7725 247.048 14.7604C246.702 14.7208 246.377 14.1918 246.316 13.8989C246.245 13.563 246.427 12.1279 246.163 13.0541C246.033 13.5069 245.386 14.1923 244.716 14.5714Z" fill="#C4C4C4"/>
</svg>
