<svg width="1440" height="676" viewBox="0 0 1440 676" fill="none" xmlns="http://www.w3.org/2000/svg">
<g filter="url(#filter0_d)">
<path d="M632.818 231.892C655.841 235.373 680.556 232.86 703.661 237.561C702.887 266.231 719.323 281.418 663.103 277.97C595.005 273.794 622.398 299.947 608.759 308.312C588.153 320.949 573.709 319.319 527.4 319.319C505.887 319.319 503.813 310.776 509.026 303.558C517.358 292.019 538.709 303.449 547.751 292.457C551.073 288.418 547.658 281.982 534.104 279.814C498.948 274.189 463.353 267.62 427.993 267.62C409.581 267.62 400.793 285.485 424.872 285.485C428.514 285.485 443.955 287.936 454.267 293.415C465.49 299.377 459.207 314.173 447.422 318.93C404.877 336.103 310.781 320.546 289.169 308.312C253.282 287.996 336.385 280.381 346.386 280.381C372.003 280.381 384.172 270.774 351.356 261.382C328.611 254.872 240.015 261.382 216.694 261.382C176.783 261.382 77.6965 252.327 187.103 235.011C236.34 227.218 177.512 214.737 155.316 210.199C122.48 203.487 27.8478 228.029 10.8284 190.917C-9.34613 146.925 176.745 167.721 192.883 163.553C224.106 155.491 203.978 147.674 182.48 147.674C172.159 147.674 161.459 148.373 151.617 143.846C139.334 138.196 130.801 125.988 147.456 115.773C168.718 102.733 186.363 106.841 209.181 106.841C238.699 106.841 268.477 109.787 297.954 111.945C346.771 115.52 395.289 117.049 444.175 117.049C460.615 117.049 493.932 113.711 507.056 129.81C519.956 145.633 424.437 132.588 418.861 143.988C409.605 162.911 634.654 159.422 643.915 183.403C647.663 193.108 622.265 196.079 618.485 196.163C606.015 196.441 593.942 198.36 581.496 198.715C576.773 198.85 543.354 205.621 556.297 214.595C575.872 228.165 610.773 228.558 632.818 231.892Z" fill="#2B3C46"/>
</g>
<path d="M1376.31 299.303C1393.08 295.577 1467.96 289.823 1514.7 286.942C1534.53 285.72 1550.38 301.682 1549.55 321.532C1544.27 448.14 1534.43 646.17 1527.9 646.17C1518.91 646.17 1470.09 639.746 1454.68 634.608C1447.56 632.235 1440.1 628.036 1434.07 624.086C1427.22 619.597 1419.24 616.512 1411.07 616.927C1321.14 621.491 1387.31 675.718 1335.2 675.718H1192.6C1139.92 675.718 1080.83 637.177 1058.99 626.899C1037.15 616.622 1039.72 589.643 1041 549.818C1042.25 511.309 1090.34 500.427 1135.33 488.134C1138.38 487.3 1141.54 486.868 1144.71 486.868H1228.57C1248.93 486.868 1259.52 483.267 1264.44 478.676C1272.06 471.558 1259.82 463.124 1249.45 462.04C1233.99 460.427 1212.52 458.17 1192.6 456.036C1184.59 455.178 1178.45 453.637 1173.79 451.739C1160.99 446.526 1169.22 433.777 1182.8 431.179C1198.73 428.129 1217.32 424.618 1228.57 422.634C1250.41 418.78 1328.77 413.641 1376.31 412.356C1423.84 411.071 1425.13 408.502 1448.25 395.655C1471.38 382.808 1444.4 377.67 1435.4 369.961C1426.41 362.253 1376.31 372.531 1321.07 369.961C1265.83 367.392 1265.83 342.984 1265.83 324.998V324.997C1265.83 307.012 1353.18 304.442 1376.31 299.303Z" fill="#2B3C46"/>
<g filter="url(#filter1_d)">
<path d="M163.014 75.2795C154.527 75.7538 145.922 76.2452 137.356 77.0717C137.059 77.0068 136.762 76.9509 136.464 76.9051C129.952 75.9032 123.7 76.9653 117.018 76.9653C107.151 76.9653 97.7113 76.4254 87.8789 76.9051C71.8682 77.6861 55.7436 79.7965 39.8357 81.8418C25.055 83.7422 9.34967 84.7071 -4.95641 88.946C-16.7311 92.4348 -31.866 96.5527 -42.0424 103.515C-46.8617 106.813 -49.2595 114.995 -45.8353 120.132C-39.5871 129.504 -16.9899 125.437 -7.60541 126.815C6.45628 128.879 20.7331 130.317 34.899 131.39C48.6215 132.43 62.2593 134.972 75.9584 136.327C82.2172 136.946 94.0638 135.712 99.1974 139.819C100.292 140.694 109.043 143.576 104.375 145.478C96.6149 148.639 88.2782 150.724 79.9319 151.498C66.3664 152.757 52.7206 152.633 39.1133 152.823C30.7413 152.94 22.8723 154.67 14.6703 156.074C8.91693 157.059 2.52303 157.274 -2.90946 159.566C-9.09043 162.173 -8.15891 167.357 -4.47478 172.269C-0.117592 178.079 6.38527 180.307 13.1049 182.082C31.836 187.03 52.5077 184.981 71.6839 185.394C94.2303 185.878 115.962 186.131 138.451 184.189C165.761 181.832 193.219 179.512 220.57 177.748C237.598 176.649 255.444 174.108 272.165 170.764C281.712 168.854 292.498 167.741 302.207 168.055C319.505 168.613 340.395 170.64 357.053 165.285C363.932 163.074 372.029 158.404 369.395 149.692C363.478 130.119 338.076 127 320.87 125.731C295.805 123.882 270.379 124.647 245.253 124.647C243.635 124.647 227.138 124.811 230.804 118.988C235.283 111.875 243.7 108.674 250.792 105.021C258.276 101.165 266.389 98.8795 274.031 95.3878C276.494 94.2625 284.917 91.3576 285.109 87.8021C285.914 72.9038 235.406 73.4964 229.239 73.353C207.281 72.8423 184.945 74.054 163.014 75.2795Z" fill="#EEEDDB"/>
<path d="M110.034 81.3C127.271 77.3224 145.395 76.2641 163.014 75.2795C184.945 74.054 207.281 72.8423 229.239 73.353C235.406 73.4964 285.914 72.9038 285.109 87.8021C284.917 91.3576 276.494 94.2625 274.031 95.3878C266.389 98.8795 258.276 101.165 250.792 105.021C243.7 108.674 235.283 111.875 230.804 118.988C227.138 124.811 243.635 124.647 245.253 124.647C270.379 124.647 295.805 123.882 320.87 125.731C338.076 127 363.478 130.119 369.395 149.692C372.029 158.404 363.932 163.074 357.053 165.285C340.394 170.64 319.505 168.613 302.207 168.055C292.498 167.741 281.712 168.854 272.165 170.764C255.444 174.108 237.598 176.649 220.57 177.748C193.219 179.512 165.761 181.832 138.451 184.189C115.962 186.131 94.2303 185.878 71.6839 185.394C52.5077 184.981 31.836 187.03 13.1049 182.082C6.38527 180.307 -0.11759 178.079 -4.47478 172.269C-8.15891 167.357 -9.09043 162.173 -2.90946 159.566C2.52302 157.274 8.91694 157.059 14.6703 156.074C22.8723 154.67 30.7413 152.94 39.1133 152.823C52.7206 152.633 66.3664 152.757 79.9319 151.498C88.2782 150.724 96.6149 148.639 104.375 145.478C109.043 143.576 100.292 140.694 99.1974 139.819C94.0638 135.712 82.2172 136.946 75.9584 136.327C62.2593 134.972 48.6215 132.43 34.899 131.39C20.7331 130.317 6.45628 128.879 -7.60541 126.815C-16.9899 125.437 -39.5871 129.504 -45.8353 120.132C-49.2595 114.995 -46.8617 106.813 -42.0424 103.515C-31.866 96.5527 -16.7311 92.4348 -4.95641 88.946C9.34967 84.7071 25.055 83.7422 39.8357 81.8418C55.7436 79.7965 71.8682 77.6861 87.8789 76.9051C97.7113 76.4254 107.151 76.9653 117.018 76.9653C123.7 76.9653 129.952 75.9032 136.464 76.9051C140.876 77.5838 145.218 80.4695 149.047 82.3837" stroke="#EEEDDB" stroke-width="5" stroke-linecap="round" stroke-linejoin="round"/>
</g>
<path d="M253.58 187.068C254.514 205.802 270.564 216.481 285.241 225.431C287.196 225.562 290.032 226.009 290.676 227.04C292.491 229.944 295.164 229.269 298.62 229.269H312.208C316.864 229.269 321.289 228.998 325.76 227.472C330.314 225.917 334.182 222.146 338.485 219.995C345.186 216.644 351.546 212.218 354.733 205.185C355.987 202.417 358.116 200.068 358.83 197.061C359.362 194.824 359.118 192.366 359.118 190.088C359.118 183.418 359.531 176.667 357.716 170.173C356.009 164.069 353.407 157.692 348.406 153.566C341.34 147.737 332.347 142.599 324.178 138.541C310.266 131.629 288.574 129.653 274.644 138.181C258.413 148.119 252.691 169.234 253.58 187.068Z" fill="#EBA91F"/>
<g style="mix-blend-mode:soft-light">
<path d="M306.599 220.843C307.729 221.604 310.431 221.286 312.732 220.719C314.545 220.272 316.344 219.738 318.189 219.458L320.631 219.088C322.427 218.816 322.541 218.426 325.46 217.983C328.379 217.541 328.184 216.256 330.401 215.732C332.619 215.208 332.82 213.377 335.18 211.814C338.037 209.922 339.259 210.528 340.461 208.368C342.325 205.02 341.806 206.114 343.268 203.639C344.73 201.163 346.126 201.854 346.669 198.803C347.399 194.707 342.036 193.913 340.693 197.85C340.652 197.971 340.623 198.094 340.609 198.219C340.41 199.94 339.147 200.695 338.05 202.551C336.953 204.408 336.224 204.143 329.427 209.306C325.888 211.72 324.569 212.108 320.273 214.074C315.978 216.04 318.253 214.38 314.66 214.925L314.66 214.925C312.097 215.314 311.477 215.408 308.874 216.28C306.003 217.242 304.088 219.149 306.599 220.843Z" fill="white"/>
</g>
<path d="M858.713 160.788C858.559 164.812 856.149 167.449 853.082 169.439C855.725 170.645 857.973 172.468 859.124 175.092C859.847 176.739 859.944 180.406 860.563 177.312C861.06 174.825 860.938 170.108 863.893 168.926C865.682 168.21 869.483 167.446 869.483 167.446C869.483 167.446 862.698 167.259 861.385 164.734C860.343 162.73 858.996 153.441 858.713 160.788Z" fill="#C4C4C4"/>
<path d="M904.053 179.483C906.56 177.364 908.463 174.48 909.557 171.31C909.639 171.071 909.701 170.861 909.748 170.679C909.579 169.48 910.088 169.344 909.748 170.679C909.799 171.042 909.913 171.503 910.132 172.05C911.564 175.631 913.534 177.805 917.531 177.805C918.366 177.805 915.821 178.485 915.311 178.545C913.639 178.741 912.073 181.366 911.776 182.82C911.435 184.487 912.313 191.608 911.036 187.012C910.412 184.765 907.287 181.364 904.053 179.483Z" fill="#C4C4C4"/>
<path d="M861.591 198.028C860.55 202.712 858.504 205.35 855.388 206.929C858.111 208.698 861.353 212.103 863.482 213.319C864.148 213.7 863.81 216.567 863.934 215.21C864.204 212.238 864.504 208.255 867.346 206.496C868.623 205.705 873.062 205.985 871.703 205.345C868.704 203.934 866.193 204.62 863.646 201.563C863.046 200.843 861.794 197.114 861.591 198.028Z" fill="#C4C4C4"/>
<path d="M1039.45 231.899C1038.75 235.88 1037.4 239.081 1035.16 241.472C1039.23 243.016 1043.13 247.091 1043.89 250.889C1044.9 255.954 1043.91 248.968 1044.13 246.984C1044.52 243.58 1044.06 243.702 1052.19 239.791C1045.57 242.084 1047.28 241.488 1045.57 240.695C1041.95 239.018 1040.52 235.393 1039.78 231.734C1039.5 230.371 1039.67 230.622 1039.45 231.899Z" fill="#C4C4C4"/>
<path d="M1018.28 301.816C1022.91 300.907 1024.94 301.026 1026.54 295.939C1029.18 299.433 1031.9 300.622 1036.27 301.46C1038.16 300.937 1039.69 302.023 1039.69 302.023C1038.45 301.838 1037.31 301.659 1036.27 301.46C1034.74 301.884 1032.99 303.371 1031.64 307.367C1031.47 307.853 1030.92 309.769 1030.98 311.131C1031.33 311.609 1031.61 312.082 1031.8 312.546C1031.24 312.452 1031.02 311.874 1030.98 311.131C1028.18 307.295 1020.85 303.183 1018.28 301.816Z" fill="#C4C4C4"/>
<path d="M1015.24 95.846C1015.87 95.2429 1016.45 94.5641 1016.96 93.7871C1017.56 92.8827 1018.03 90.6827 1018.19 89.8101C1018.19 89.8067 1018.2 89.8033 1018.2 89.7999C1018.28 89.2727 1018.28 89.3805 1018.19 89.8101C1017.87 91.7531 1018.54 93.573 1019.96 94.938C1021.36 96.2818 1022.94 96.9898 1024.81 96.2533C1025.31 96.0601 1026.67 95.3036 1026.29 95.6779C1024.85 97.1188 1022.8 97.6684 1021.57 99.3773C1020.56 100.771 1019.3 106.245 1019.92 102.625C1020.45 99.587 1018.22 97.2957 1015.24 95.846Z" fill="#C4C4C4"/>
<path d="M649.458 97.6639C650.646 97.0683 651.687 96.2665 652.45 95.1845C654.021 92.9564 653.802 86.801 654.916 90.6219C655.832 93.761 656.371 95.7038 659.274 97.4453C660.079 97.9285 660.718 97.8664 661.014 97.7814C661.268 97.6378 661.242 97.7163 661.014 97.7814C660.916 97.837 660.776 97.926 660.589 98.0618C658.757 99.3942 657.435 99.089 656.561 101.679C655.814 103.891 655.693 111.33 655.204 105.954C654.848 102.039 652.517 99.4093 649.458 97.6639Z" fill="#C4C4C4"/>
<path d="M547.345 215.804C549.161 215.128 550.755 213.881 552.282 212.004C554.571 209.189 553.318 206.999 554.337 210.771C554.955 213.058 555.866 214.604 557.954 215.703C558.153 215.808 558.318 215.882 558.451 215.932C558.963 215.743 559.215 216.221 558.451 215.932C558.41 215.947 558.368 215.967 558.324 215.991C556.521 216.993 553.725 224.194 553.679 224.006C552.596 219.564 550.401 217.53 547.345 215.804Z" fill="#C4C4C4"/>
<path d="M558.119 194.082C557.401 194.082 558.699 193.316 559.346 192.953C559.603 193.058 559.849 193.201 560.077 193.403C560.94 192.715 561.479 191.605 561.819 190.547C562.444 188.601 561.815 187.322 562.559 189.478C562.964 190.654 564.771 192.302 566.323 193.388C567.185 193.188 568.178 193.249 568.56 193.918C569.178 194.999 567.878 194.475 566.323 193.388C565.772 193.516 565.275 193.75 565.025 194C563.878 195.146 563.322 199.623 562.559 198.193C561.705 196.591 561.702 195.277 560.339 193.671C560.255 193.572 560.167 193.483 560.077 193.403C559.553 193.82 558.91 194.082 558.119 194.082Z" fill="#C4C4C4"/>
<path d="M515.097 93.2578C514.355 94.9756 513.494 96.2056 512.45 97.1736C514.796 97.8349 516.926 99.0759 518.098 101.273C518.649 102.307 518.082 104.626 518.345 103.575C518.803 101.74 519.541 99.7739 520.811 98.3548C521.51 97.5733 524.56 96.5023 523.565 96.8339C521.065 97.6673 518.181 94.072 517.029 92.3946C515.255 89.8089 516.375 90.3046 515.097 93.2578Z" fill="#C4C4C4"/>
<path d="M721.758 263.194C722.804 262.139 723.699 260.971 724.302 259.521C724.316 259.486 724.334 259.414 724.352 259.319C724.183 258.991 724.105 258.649 724.219 258.288C724.634 256.984 724.474 258.679 724.352 259.319C724.838 260.26 726.073 261.084 725.617 261.905C723.058 266.51 725.941 265.232 721.758 263.194Z" fill="#C4C4C4"/>
<path d="M906.246 292.002C908.177 290.738 910.146 289.063 910.71 287.246C910.533 286.975 910.384 286.741 910.297 286.568C910.029 286.032 910.576 284.855 910.708 285.252C910.933 285.927 910.912 286.596 910.71 287.246C911.485 288.439 912.785 290.366 911.612 291.171C910.313 292.065 910.767 293.929 910.133 293.967C908.673 294.052 907.319 293.172 906.246 292.002Z" fill="#C4C4C4"/>
<path d="M1199.3 70.6074C1197.79 70.1774 1199.48 68.8548 1201.44 67.6366C1203.52 69.7614 1206.37 72.6677 1206.37 72.8271C1206.37 73.3488 1205.3 72.9436 1204.85 73.197C1204.07 73.6293 1203.38 74.0929 1202.67 74.6357C1200.6 76.2202 1201.67 71.2841 1199.3 70.6074Z" fill="#C4C4C4"/>
<path d="M1269.67 210.771C1271.88 209.123 1272.97 207.664 1273.67 205.701C1273.75 206.133 1273.84 206.522 1273.95 206.825C1274.72 208.968 1275.44 209.904 1276.58 211.84C1277.6 213.577 1281.15 212.136 1282.5 213.484C1283 213.993 1280.32 214.336 1280.03 214.47C1278.34 215.26 1276.57 216.039 1274.97 217.019C1273.22 218.095 1273.04 222.787 1273.04 219.608C1273.04 217.964 1274.19 215.826 1273.41 214.429C1272.38 212.579 1268.81 212.579 1266.77 212.579H1266.75C1265.3 212.579 1269.07 211.219 1269.67 210.771Z" fill="#C4C4C4"/>
<path d="M1108.34 432.119C1107.24 434.602 1105.72 436.19 1103.52 436.976C1104.85 437.696 1105.97 438.632 1107.31 440.422C1109.64 443.533 1110.78 438.662 1112.45 437.339C1117.45 433.371 1111.7 438.641 1108.91 434.585C1108.51 433.993 1108.36 432.068 1108.34 432.119Z" fill="#C4C4C4"/>
<path d="M284.394 8.26444C285.582 7.66884 286.624 6.86706 287.387 5.7851C288.957 3.55697 288.739 -2.59846 289.853 1.22248C290.769 4.36159 291.308 6.30434 294.21 8.04585C295.015 8.52909 295.654 8.46695 295.951 8.38203C296.204 8.23843 296.178 8.31693 295.951 8.38203C295.852 8.43763 295.712 8.52654 295.525 8.66242C293.693 9.99483 292.372 9.6896 291.497 12.2796C290.75 14.4914 290.629 21.9309 290.141 16.5545C289.785 12.6395 287.453 10.0099 284.394 8.26444Z" fill="#C4C4C4"/>
<defs>
<filter id="filter0_d" x="-17.626" y="79.3002" width="749.877" height="274.17" filterUnits="userSpaceOnUse" color-interpolation-filters="sRGB">
<feFlood flood-opacity="0" result="BackgroundImageFix"/>
<feColorMatrix in="SourceAlpha" type="matrix" values="0 0 0 0 0 0 0 0 0 0 0 0 0 0 0 0 0 0 127 0"/>
<feOffset/>
<feGaussianBlur stdDeviation="13.4637"/>
<feColorMatrix type="matrix" values="0 0 0 0 0.184314 0 0 0 0 0.258824 0 0 0 0 0.27451 0 0 0 1 0"/>
<feBlend mode="normal" in2="BackgroundImageFix" result="effect1_dropShadow"/>
<feBlend mode="normal" in="SourceGraphic" in2="effect1_dropShadow" result="shape"/>
</filter>
<filter id="filter1_d" x="-53.9451" y="70.7332" width="430.35" height="125.505" filterUnits="userSpaceOnUse" color-interpolation-filters="sRGB">
<feFlood flood-opacity="0" result="BackgroundImageFix"/>
<feColorMatrix in="SourceAlpha" type="matrix" values="0 0 0 0 0 0 0 0 0 0 0 0 0 0 0 0 0 0 127 0"/>
<feOffset dy="4"/>
<feGaussianBlur stdDeviation="2"/>
<feColorMatrix type="matrix" values="0 0 0 0 0 0 0 0 0 0 0 0 0 0 0 0 0 0 0.05 0"/>
<feBlend mode="normal" in2="BackgroundImageFix" result="effect1_dropShadow"/>
<feBlend mode="normal" in="SourceGraphic" in2="effect1_dropShadow" result="shape"/>
</filter>
</defs>
</svg>
