<svg width="414" height="158" viewBox="0 0 414 158" fill="none" xmlns="http://www.w3.org/2000/svg">
<g filter="url(#filter0_d)">
<path d="M330.301 90.4259C344.437 92.5636 359.652 90.8734 373.756 94.1266C374.104 98.3721 374.812 102.355 375.821 103.317C378.117 105.507 380.647 110.458 376.981 113.028C367.987 119.332 358.468 118.262 348.181 117.632C307.976 115.166 315.202 133.588 313.785 134.457C301.619 141.919 295.402 142.044 268.06 142.044C246.069 142.044 261.58 124.274 268.06 126.923C281.468 132.405 286.685 121.066 272.018 118.72C251.262 115.399 230.246 111.521 209.368 111.521C198.498 111.521 193.309 122.068 207.526 122.068C210.057 122.068 222.241 124.073 227.776 128.639C231.796 131.955 228.57 137.914 223.97 140.364C200.688 152.766 140.725 143.087 127.405 135.545C117.341 129.848 122.962 125.869 129.589 122.822C139.075 118.458 151.136 119.055 161.187 119.055C176.311 119.055 183.496 113.383 164.121 107.838C150.692 103.994 98.3831 107.838 84.6139 107.838C61.0502 107.838 2.54773 102.491 67.1432 92.2676C96.2137 87.6666 61.4807 80.2975 48.3755 77.6184C28.9886 73.6551 -26.8838 88.1456 -36.9323 66.2338C-48.8437 40.2599 61.0274 52.5383 70.5555 50.0779C88.9906 45.3174 77.1065 40.7024 64.4134 40.7024C58.3201 40.7024 52.0024 41.115 46.1916 38.4422C38.9396 35.1065 33.9015 27.8984 43.7348 21.8677C56.2883 14.1687 66.7061 16.594 80.1783 16.594C97.606 16.594 115.187 18.3331 132.591 19.6076C161.414 21.7182 190.06 22.6211 218.923 22.6211C228.629 22.6211 248.3 20.6503 256.049 30.155C259.883 34.8582 253.936 35.763 251.681 36.2658C243.057 38.1892 208.218 29.8565 203.977 38.5259C198.512 49.6983 331.385 47.6386 336.852 61.7972C339.065 67.5276 324.07 69.2813 321.838 69.3311C314.476 69.4953 307.348 70.6283 299.999 70.8379C297.211 70.9174 277.48 74.9151 285.122 80.2134C296.679 88.2257 317.285 88.4577 330.301 90.4259Z" fill="#2B3C46"/>
</g>
<g filter="url(#filter1_d)">
<path d="M21.622 2.32221C18.1492 2.51627 14.6284 2.71733 11.1234 3.05554C11.0018 3.02896 10.8801 3.00609 10.7582 2.98734C8.09359 2.5774 5.5354 3.01197 2.80125 3.01197C-1.23601 3.01197 -5.09863 2.79108 -9.12185 2.98734C-15.6732 3.30691 -22.271 4.17048 -28.7802 5.00737C-34.8282 5.78497 -41.2545 6.17979 -47.1083 7.91424C-51.9263 9.34179 -58.1192 11.0268 -62.2832 13.8758C-64.2552 15.2251 -65.2363 18.5732 -63.8351 20.6749C-61.2785 24.5098 -52.0322 22.8457 -48.1922 23.4094C-42.4384 24.254 -36.5967 24.8425 -30.8002 25.2816C-25.1853 25.707 -19.6049 26.7472 -13.9995 27.3016C-11.4385 27.5549 -6.5911 27.05 -4.49056 28.7304C-4.04274 29.0887 -0.462044 30.2679 -2.372 31.0461C-5.54725 32.3397 -8.9585 33.1927 -12.3736 33.5095C-17.9244 34.0245 -23.508 33.9736 -29.0758 34.0515C-32.5015 34.0994 -35.7213 34.8073 -39.0774 35.3817C-41.4316 35.7847 -44.0479 35.8728 -46.2707 36.8105C-48.7999 37.8775 -48.4187 39.9985 -46.9112 42.0084C-45.1283 44.3856 -42.4675 45.2976 -39.7179 46.0239C-32.0535 48.0484 -23.5951 47.21 -15.7485 47.3788C-6.52298 47.5772 2.36931 47.6805 11.5712 46.8861C22.7458 45.9213 33.9812 44.9722 45.1726 44.2502C52.1404 43.8006 59.4424 42.761 66.2844 41.3926C70.1909 40.6113 74.6042 40.1559 78.5771 40.284C85.6552 40.5123 94.2027 41.3418 101.019 39.1508C103.834 38.2461 107.147 36.3352 106.069 32.7705C103.648 24.7613 93.254 23.4853 86.2138 22.9659C75.9576 22.2093 65.5536 22.5225 55.2728 22.5225C54.6107 22.5225 47.8603 22.5896 49.3605 20.2069C51.193 17.2964 54.637 15.9867 57.5392 14.4917C60.6014 12.9142 63.9211 11.9788 67.0481 10.5501C68.0559 10.0897 71.5022 8.90102 71.5809 7.44619C71.9104 1.35008 51.2435 1.59259 48.72 1.5339C39.7352 1.32495 30.5957 1.82073 21.622 2.32221Z" fill="#EEEDDB"/>
<path d="M-0.0563485 4.78566C6.99644 3.15809 14.4126 2.72508 21.622 2.32221C30.5957 1.82073 39.7352 1.32495 48.72 1.5339C51.2435 1.59259 71.9104 1.35008 71.5809 7.44619C71.5022 8.90102 68.0559 10.0897 67.0481 10.5501C63.9211 11.9788 60.6014 12.9142 57.5392 14.4917C54.637 15.9867 51.193 17.2964 49.3605 20.2069C47.8603 22.5896 54.6107 22.5225 55.2728 22.5225C65.5536 22.5225 75.9576 22.2093 86.2138 22.9659C93.254 23.4853 103.648 24.7613 106.069 32.7705C107.147 36.3352 103.834 38.2461 101.019 39.1508C94.2027 41.3418 85.6552 40.5123 78.5771 40.284C74.6042 40.1559 70.1909 40.6113 66.2844 41.3926C59.4424 42.761 52.1404 43.8006 45.1726 44.2502C33.9812 44.9722 22.7458 45.9213 11.5711 46.8861C2.36931 47.6805 -6.52298 47.5772 -15.7485 47.3788C-23.5951 47.21 -32.0535 48.0484 -39.7179 46.0239C-42.4675 45.2976 -45.1283 44.3856 -46.9112 42.0084C-48.4187 39.9985 -48.7999 37.8775 -46.2707 36.8105C-44.0479 35.8728 -41.4316 35.7847 -39.0774 35.3817C-35.7213 34.8073 -32.5015 34.0994 -29.0758 34.0515C-23.508 33.9736 -17.9244 34.0245 -12.3736 33.5095C-8.9585 33.1927 -5.54725 32.3397 -2.372 31.0461C-0.462047 30.2679 -4.04274 29.0887 -4.49056 28.7304C-6.5911 27.05 -11.4385 27.5549 -13.9995 27.3016C-19.6049 26.7472 -25.1853 25.707 -30.8002 25.2816C-36.5967 24.8425 -42.4384 24.254 -48.1922 23.4094C-52.0322 22.8457 -61.2785 24.5098 -63.8351 20.6749C-65.2363 18.5732 -64.2552 15.2251 -62.2832 13.8758C-58.1192 11.0268 -51.9263 9.34179 -47.1083 7.91424C-41.2545 6.17979 -34.8282 5.78497 -28.7802 5.00737C-22.271 4.17048 -15.6732 3.30691 -9.12185 2.98734C-5.09863 2.79108 -1.23601 3.01197 2.80126 3.01197C5.5354 3.01197 8.09359 2.5774 10.7582 2.98734C12.5634 3.26506 14.3403 4.44584 15.9068 5.22908" stroke="#EEEDDB" stroke-width="2.05029" stroke-linecap="round" stroke-linejoin="round"/>
</g>
<path d="M330.824 26.8631C330.761 28.5134 329.773 29.5947 328.515 30.4107C329.599 30.9053 330.521 31.6529 330.993 32.7287C331.289 33.4039 331.329 34.908 331.583 33.6389C331.787 32.6191 331.737 30.685 332.948 30.2004C333.682 29.9069 335.241 29.5936 335.241 29.5936C335.241 29.5936 332.459 29.5168 331.92 28.4812C331.493 27.6596 330.94 23.8507 330.824 26.8631Z" fill="#C4C4C4"/>
<path d="M349.416 34.5291C350.444 33.6602 351.225 32.4778 351.673 31.1779C351.707 31.0799 351.732 30.9937 351.752 30.9188C351.682 30.4275 351.891 30.3715 351.752 30.9188C351.773 31.0678 351.819 31.2569 351.909 31.4813C352.496 32.9497 353.304 33.841 354.943 33.841C355.285 33.841 354.242 34.1198 354.033 34.1444C353.347 34.225 352.705 35.3015 352.583 35.8973C352.443 36.5809 352.803 39.5012 352.28 37.6166C352.024 36.6951 350.742 35.3004 349.416 34.5291Z" fill="#C4C4C4"/>
<path d="M332.005 42.1338C331.578 44.0543 330.739 45.136 329.461 45.7837C330.578 46.5087 331.907 47.905 332.78 48.4039C333.053 48.5599 332.915 49.7358 332.965 49.1793C333.076 47.9606 333.199 46.3272 334.364 45.6059C334.888 45.2817 336.708 45.3963 336.151 45.134C334.921 44.5553 333.892 44.8367 332.847 43.5833C332.601 43.2879 332.088 41.7588 332.005 42.1338Z" fill="#C4C4C4"/>
<path d="M404.936 56.0228C404.651 57.6552 404.097 58.968 403.178 59.9484C404.845 60.5815 406.445 62.2523 406.756 63.8099C407.172 65.8868 406.765 63.0223 406.857 62.2087C407.017 60.8128 406.829 60.863 410.161 59.259C407.447 60.1995 408.15 59.9549 407.447 59.6298C405.962 58.9422 405.376 57.4555 405.071 55.9554C404.957 55.3963 405.027 55.4992 404.936 56.0228Z" fill="#C4C4C4"/>
<path d="M396.257 84.6928C398.155 84.3203 398.987 84.369 399.643 82.2832C400.725 83.7158 401.841 84.2035 403.635 84.5468C404.407 84.3325 405.037 84.7778 405.037 84.7778C404.525 84.7018 404.061 84.6284 403.635 84.5468C403.007 84.7209 402.286 85.3307 401.733 86.969C401.666 87.1685 401.438 87.954 401.465 88.5128C401.608 88.7087 401.722 88.9028 401.8 89.0927C401.569 89.0541 401.479 88.8171 401.465 88.5128C400.316 86.9397 397.312 85.2536 396.257 84.6928Z" fill="#C4C4C4"/>
<path d="M203.145 49.4232C203.89 49.1457 204.543 48.6347 205.169 47.8647C206.108 46.7107 205.594 45.8124 206.012 47.3591C206.266 48.2969 206.639 48.931 207.495 49.3817C207.577 49.4247 207.645 49.455 207.699 49.4757C207.909 49.3979 208.012 49.5941 207.699 49.4757C207.682 49.4818 207.665 49.4898 207.647 49.4997C206.908 49.9105 205.761 52.8633 205.743 52.7865C205.298 50.9648 204.398 50.1308 203.145 49.4232Z" fill="#C4C4C4"/>
<path d="M207.564 40.5158C207.269 40.5158 207.801 40.2015 208.067 40.0527C208.172 40.0958 208.273 40.1546 208.366 40.2373C208.72 39.9553 208.941 39.5002 209.081 39.0662C209.337 38.2682 209.079 37.7438 209.384 38.628C209.55 39.1099 210.291 39.7858 210.927 40.2311C211.281 40.1492 211.688 40.1742 211.845 40.4484C212.098 40.8916 211.565 40.677 210.927 40.2311C210.702 40.2834 210.498 40.3794 210.395 40.4821C209.925 40.9522 209.697 42.788 209.384 42.2013C209.034 41.5446 209.033 41.0058 208.474 40.3472C208.439 40.3065 208.403 40.27 208.366 40.2373C208.151 40.4085 207.888 40.5158 207.564 40.5158Z" fill="#C4C4C4"/>
<path d="M274.665 68.8555C275.094 68.4231 275.461 67.9441 275.708 67.3494C275.714 67.335 275.721 67.3055 275.728 67.2664C275.659 67.1321 275.627 66.9918 275.674 66.8437C275.844 66.3089 275.778 67.004 275.728 67.2664C275.928 67.6527 276.434 67.9902 276.247 68.327C275.198 70.2155 276.38 69.6913 274.665 68.8555Z" fill="#C4C4C4"/>
<path d="M350.315 80.6684C351.107 80.15 351.915 79.4634 352.146 78.7183C352.073 78.607 352.012 78.5112 351.976 78.4401C351.867 78.2206 352.091 77.7375 352.145 77.9007C352.237 78.1774 352.228 78.4516 352.146 78.7183C352.463 79.2073 352.996 79.9974 352.516 80.3279C351.983 80.6943 352.169 81.4587 351.909 81.474C351.31 81.5092 350.755 81.1482 350.315 80.6684Z" fill="#C4C4C4"/>
<path d="M76.5411 54.7458C76.965 63.2473 84.2486 68.0931 90.9088 72.1547C91.7961 72.2144 93.083 72.4171 93.3755 72.8851C94.1992 74.2029 95.412 73.8965 96.9805 73.8965H103.147C105.259 73.8965 107.267 73.7737 109.296 73.0808C111.363 72.3751 113.118 70.6642 115.071 69.6879C118.112 68.1673 120.998 66.1589 122.444 62.9672C123.013 61.7109 123.98 60.6453 124.304 59.2806C124.545 58.2653 124.434 57.1499 124.434 56.116C124.434 53.0895 124.622 50.0256 123.798 47.0789C123.024 44.3086 121.843 41.4149 119.573 39.5426C116.367 36.8974 112.286 34.5657 108.579 32.7241C102.265 29.5874 92.4217 28.6906 86.1002 32.5609C78.7345 37.0705 76.1377 46.6528 76.5411 54.7458Z" fill="#EBA91F"/>
<g style="mix-blend-mode:soft-light">
<path d="M100.601 70.0725C101.154 70.445 102.534 70.2484 103.623 69.9547C104.283 69.7767 104.941 69.5836 105.617 69.4812L106.968 69.2763C107.783 69.1527 107.835 68.9758 109.16 68.775C110.484 68.5742 110.396 67.991 111.402 67.7532C112.409 67.5154 112.5 66.6847 113.571 65.9755C114.867 65.1168 115.422 65.3916 115.968 64.4115C116.813 62.8921 116.578 63.3888 117.241 62.2654C117.905 61.142 118.538 61.4556 118.785 60.071C119.116 58.2123 116.682 57.8517 116.073 59.6387C116.054 59.6934 116.041 59.749 116.035 59.8061C115.944 60.5868 115.371 60.9295 114.873 61.772C114.376 62.6146 114.045 62.4943 110.96 64.837C109.354 65.9328 108.756 66.1088 106.806 67.0009C104.857 67.8931 105.889 67.1399 104.259 67.3871L104.259 67.3871C103.044 67.5713 102.791 67.6096 101.47 68.0571C100.276 68.4613 99.3979 69.293 100.457 69.9771C100.504 70.0077 100.552 70.0394 100.601 70.0725Z" fill="white"/>
</g>
<defs>
<filter id="filter0_d" x="-48.8757" y="5.18993" width="438.749" height="152.162" filterUnits="userSpaceOnUse" color-interpolation-filters="sRGB">
<feFlood flood-opacity="0" result="BackgroundImageFix"/>
<feColorMatrix in="SourceAlpha" type="matrix" values="0 0 0 0 0 0 0 0 0 0 0 0 0 0 0 0 0 0 127 0"/>
<feOffset/>
<feGaussianBlur stdDeviation="5.52088"/>
<feColorMatrix type="matrix" values="0 0 0 0 0.184314 0 0 0 0 0.258824 0 0 0 0 0.27451 0 0 0 1 0"/>
<feBlend mode="normal" in2="BackgroundImageFix" result="effect1_dropShadow"/>
<feBlend mode="normal" in="SourceGraphic" in2="effect1_dropShadow" result="shape"/>
</filter>
<filter id="filter1_d" x="-67.1593" y="0.459717" width="176.102" height="51.3658" filterUnits="userSpaceOnUse" color-interpolation-filters="sRGB">
<feFlood flood-opacity="0" result="BackgroundImageFix"/>
<feColorMatrix in="SourceAlpha" type="matrix" values="0 0 0 0 0 0 0 0 0 0 0 0 0 0 0 0 0 0 127 0"/>
<feOffset dy="1.64023"/>
<feGaussianBlur stdDeviation="0.820116"/>
<feColorMatrix type="matrix" values="0 0 0 0 0 0 0 0 0 0 0 0 0 0 0 0 0 0 0.05 0"/>
<feBlend mode="normal" in2="BackgroundImageFix" result="effect1_dropShadow"/>
<feBlend mode="normal" in="SourceGraphic" in2="effect1_dropShadow" result="shape"/>
</filter>
</defs>
</svg>
