<svg width="62" height="71" viewBox="0 0 62 71" fill="none" xmlns="http://www.w3.org/2000/svg">
<path d="M17.399 56.1427C17.0575 56.8734 16.5233 57.2048 15.9543 57.7387C15.9217 57.7652 15.8891 57.7931 15.8562 57.8226C15.4711 58.1685 14.7041 58.6731 14.7125 59.2401C14.7242 60.0273 15.7087 60.7334 16.3253 61.034C17.1782 61.45 17.8959 61.1887 18.3977 60.433C18.6452 60.0602 18.8042 59.6393 18.9999 59.2397C19.2211 58.7883 19.5325 58.3811 19.8003 57.9563C20.1996 57.3229 20.5683 56.5888 21.1225 56.0711C21.8187 55.4207 22.4062 54.6703 23.2455 54.189C24.3924 53.5313 25.6957 53.3638 26.9273 52.948C29.7342 52.0005 32.584 51.8228 35.5296 51.849C36.7642 51.86 38.0388 51.8463 39.2593 51.6308C39.9686 51.5056 40.6554 51.3038 41.3553 51.1414C43.4302 50.6601 45.9711 49.952 47.0484 47.9809C47.4123 47.315 47.5561 46.7126 47.2486 46.017C46.8526 45.1211 46.3211 44.3477 45.5176 43.7611C44.1015 42.7271 42.2903 42.0717 40.6032 41.5935C38.8399 41.0938 37.0282 40.7574 35.2503 40.3072C34.2523 40.0544 32.5811 39.5045 33.4595 38.2173C34.1617 37.1882 35.4441 36.7213 36.6032 36.4206C39.1959 35.7481 41.9244 36.1602 44.4437 35.1209C45.9175 34.513 47.0715 33.7793 48.0274 32.4877C48.8226 31.4131 49.1724 30.0593 48.6951 28.7513C47.7877 26.2646 44.5321 26.8192 42.5785 25.9331C41.9229 25.6358 41.7954 25.4451 42.0024 24.82C42.4104 23.5877 43.677 22.7019 44.7576 22.1095C45.5835 21.6568 46.4204 21.1823 47.0799 20.5066C47.702 19.8693 48.2583 19.1279 48.744 18.3857C49.9167 16.5938 50.5233 14.5243 50.2939 12.3801C50.0615 10.2066 47.5163 9.15654 45.5637 9.30379C43.1682 9.48443 41.7207 11.6296 40.4658 13.3841C39.3894 14.8891 38.4202 16.4857 37.7177 18.1964C37.0362 19.8559 36.1812 21.3613 35.2595 22.9032C34.7623 23.735 34.1306 24.7827 33.2124 25.2237C32.8125 25.4157 32.1258 25.4281 31.8607 24.9882C31.5431 24.4608 31.6086 23.5098 31.5995 22.9247C31.5873 22.1404 31.689 21.161 31.3639 20.425C30.9981 19.5971 29.8693 19.3757 29.082 19.6623C27.8402 20.1143 26.9814 21.3636 26.6708 22.5903C25.7916 26.062 26.2849 29.6351 25.7003 33.135C25.5835 33.8343 25.639 34.5631 25.3336 35.2166C25.1162 35.6818 24.7899 36.1152 24.3958 36.4508C24.075 36.7239 23.5307 36.5648 23.2048 36.3672C22.8281 36.1389 22.6764 35.6641 22.5244 35.2771C22.3505 34.8345 22.143 34.4069 21.976 33.9615C21.2702 32.0795 20.7347 30.1427 20.1062 28.2356C19.8559 27.4762 19.2934 26.5262 18.3919 26.3824C17.5767 26.2524 16.8483 26.0635 16.0378 26.3465C15.5843 26.5048 15.2203 26.7508 14.8164 26.9955C14.3241 27.2937 14.0176 27.4925 13.6932 27.9875C13.3038 28.5815 13.0431 29.2508 12.6896 29.868C12.0216 31.0342 11.8525 33.0132 12.2256 34.2939C12.5294 35.337 12.9513 36.4123 13.5313 37.336C13.9102 37.9394 14.4823 38.3938 14.8256 39.0295C15.7482 40.738 16.6476 42.4467 17.4905 44.1983C18.2424 45.7609 18.8604 47.4193 18.9819 49.1511C19.087 50.6503 18.673 52.149 18.2934 53.5805C18.0614 54.4551 17.7838 55.3192 17.399 56.1427Z" fill="#ECAA1E"/>
<path d="M21.1862 55.2875C20.9409 55.7011 20.7209 56.1169 20.489 56.5287C20.2609 56.801 20.067 57.1196 19.8638 57.3923C19.4901 57.8938 19.2015 58.3968 18.8686 58.921C18.3116 59.7983 17.9699 62.2939 16.3457 61.8115C14.6647 61.3122 15.4197 58.981 16.0881 57.9189C16.7127 56.9263 17.6104 56.125 18.2617 55.1465C18.6645 54.5413 19.2262 54.092 19.6011 53.4534C20.2527 52.3437 21.0848 51.3452 21.7253 50.224C22.9563 48.0697 23.7429 44.9657 22.3802 42.6232C21.5135 41.1333 19.9499 40.1928 19.047 38.7317C18.4787 37.8122 18.044 36.8856 17.7679 35.8422C17.561 35.06 17.6085 34.0763 17.5973 33.2618C17.5884 32.6128 17.9335 33.1284 18.049 33.392C18.375 34.1356 18.3281 34.9705 18.5245 35.7502C19.0809 37.9588 21.063 39.347 22.5297 40.9694C23.4218 41.9562 24.1636 43.1133 24.2919 44.4556C24.3374 44.9318 24.2811 45.3466 24.0763 45.7847C24.0108 45.9249 24.2975 45.3333 24.3472 45.2622C24.9653 44.3786 25.6344 43.6556 25.9852 42.6157C26.9379 39.7911 27.4245 36.8196 28.3802 33.9816C29.5318 31.0587 29.2883 28.9407 29.1985 27.7697C29.1336 26.9233 29.7992 27.2178 30.0585 28.0254C30.3579 28.9579 30.3408 29.736 30.1385 30.696C30.0274 31.2234 29.9595 31.7563 29.8426 32.2828C29.8023 32.4643 29.6435 33.5154 29.6837 33.462C30.0475 32.9797 30.5615 32.598 30.991 32.1714C31.2058 31.9581 31.4245 31.7627 31.6486 31.5773C32.4341 30.9275 33.2491 30.3095 33.9751 29.5949C35.6435 27.9529 36.5835 26.8408 37.7 24.949C38.568 23.4783 40.3899 21.4752 41.2937 20.0246C42.2783 18.4442 43.1232 16.7762 44.2656 15.2962C44.4473 15.0608 44.1152 15.7757 44.012 16.0535C43.7164 16.849 43.1273 18.3224 43.0321 18.675C40.8622 23.7285 38.1136 27.0585 34.4718 30.7625C34.0745 31.1665 33.5901 31.595 33.5825 32.1571C33.5814 32.2414 34.1234 31.9742 34.1846 31.956C34.6922 31.8047 35.2269 31.7297 35.7484 31.6423C36.5018 31.516 37.3046 31.4635 38.0314 31.2201C41.107 30.1904 48.7534 29.3195 42.9345 31.4376C41.8327 31.8387 40.7982 32.1239 39.6282 32.3044C37.5363 32.6272 35.2915 32.6759 33.2551 33.2774C31.965 33.6584 29.4653 35.1864 28.9966 36.439C28.4236 37.9701 28.672 38.1908 28.142 39.7369C27.7807 40.7911 27.7945 42.708 27.1411 43.623C26.6948 44.2478 26.3545 44.9348 25.8556 45.5249C25.7486 45.6515 25.4257 46.1771 25.5889 46.3435C25.7236 46.4807 27.1558 45.7208 27.3633 45.6555C28.7827 45.2089 30.2835 45.05 31.7051 44.6042C33.4029 44.0719 35.7239 42.7818 37.2663 44.2815C38.1601 45.1506 35.9483 45.5402 35.4552 45.6202C34.1241 45.8362 32.7885 46.0035 31.4422 46.0918C30.3144 46.1659 29.0832 46.2525 27.9862 46.5351C26.4063 46.9422 25.2602 47.7719 24.3455 49.0899C23.6385 50.1087 22.6711 51.1065 22.3556 52.3275C22.2329 52.8021 21.9908 53.2198 21.844 53.6892C21.6601 54.2771 21.503 54.7533 21.1862 55.2875Z" fill="#E14938"/>
<path d="M19.0798 58.8982C19.3158 58.3933 19.5898 57.9491 19.9049 57.4856C20.3916 56.7697 20.7489 56.025 21.1862 55.2875C21.503 54.7533 21.6601 54.2771 21.844 53.6892C21.9908 53.2198 22.2329 52.8021 22.3556 52.3275C22.6711 51.1065 23.6385 50.1087 24.3455 49.0899C25.2602 47.7719 26.4063 46.9422 27.9862 46.5351C29.0832 46.2525 30.3144 46.1659 31.4422 46.0918C32.7885 46.0035 34.1241 45.8362 35.4552 45.6202C35.9483 45.5402 38.1601 45.1506 37.2663 44.2815C35.7239 42.7818 33.4029 44.0719 31.7051 44.6042C30.2835 45.05 28.7827 45.2089 27.3633 45.6555C27.1558 45.7208 25.7236 46.4807 25.5889 46.3435C25.4257 46.1771 25.7486 45.6515 25.8556 45.5249C26.3545 44.9348 26.6948 44.2478 27.1411 43.6229C27.7945 42.708 27.7807 40.7911 28.142 39.7369C28.672 38.1908 28.4236 37.9701 28.9966 36.439C29.4653 35.1864 31.965 33.6584 33.2551 33.2774C35.2915 32.6759 37.5363 32.6272 39.6282 32.3044C40.7982 32.1239 41.8327 31.8387 42.9345 31.4376C48.7534 29.3195 41.107 30.1904 38.0314 31.2201C37.3046 31.4635 36.5018 31.516 35.7484 31.6423C35.2269 31.7297 34.6922 31.8047 34.1846 31.956C34.1234 31.9742 33.5814 32.2414 33.5825 32.1571V32.1571C33.5901 31.595 34.0745 31.1665 34.4718 30.7625C38.1136 27.0585 40.8622 23.7285 43.0321 18.675C43.1273 18.3224 43.7164 16.849 44.012 16.0535C44.1152 15.7757 44.4473 15.0608 44.2656 15.2962V15.2962C43.1232 16.7762 42.2783 18.4442 41.2937 20.0246C40.3899 21.4752 38.568 23.4783 37.7 24.949C36.5835 26.8408 35.6435 27.9529 33.9751 29.5949C33.2491 30.3095 32.4341 30.9275 31.6486 31.5773C31.4245 31.7627 31.2058 31.9581 30.991 32.1714C30.5615 32.598 30.0475 32.9797 29.6837 33.462C29.6435 33.5154 29.8023 32.4643 29.8426 32.2828C29.9595 31.7563 30.0274 31.2234 30.1385 30.696C30.3408 29.736 30.3579 28.9579 30.0585 28.0254V28.0254C29.7992 27.2178 29.1336 26.9233 29.1985 27.7697C29.2883 28.9407 29.5318 31.0587 28.3802 33.9816C27.4245 36.8196 26.9379 39.7911 25.9852 42.6157C25.6344 43.6556 24.9653 44.3786 24.3472 45.2622C24.2975 45.3333 24.0108 45.9249 24.0763 45.7847C24.2811 45.3466 24.3374 44.9318 24.2919 44.4556C24.1636 43.1133 23.4218 41.9562 22.5297 40.9694C21.063 39.347 19.0809 37.9588 18.5245 35.7502C18.3281 34.9705 18.375 34.1356 18.049 33.392C17.9335 33.1284 17.5884 32.6128 17.5973 33.2618C17.6085 34.0763 17.561 35.06 17.7679 35.8422C18.044 36.8856 18.4787 37.8122 19.047 38.7317C19.9499 40.1928 21.5135 41.1333 22.3802 42.6232C23.7429 44.9657 22.9563 48.0697 21.7253 50.224C21.0848 51.3452 20.2527 52.3437 19.6011 53.4534C19.2262 54.092 18.6645 54.5413 18.2617 55.1465C17.6104 56.125 16.7127 56.9263 16.0881 57.9189C15.4197 58.981 14.6647 61.3122 16.3457 61.8115C17.9699 62.2939 18.3116 59.7983 18.8686 58.921C19.2015 58.3968 19.4901 57.8938 19.8638 57.3923C20.1887 56.9563 20.4897 56.4032 20.9449 56.1089" stroke="#E14938" stroke-width="0.408608" stroke-linecap="round" stroke-linejoin="round"/>
</svg>
