<svg width="61" height="71" viewBox="0 0 61 71" fill="none" xmlns="http://www.w3.org/2000/svg">
<path d="M44.5893 56.1427C44.9308 56.8734 45.465 57.2047 46.034 57.7387C46.0665 57.7652 46.0992 57.7931 46.132 57.8226C46.5172 58.1685 47.2842 58.6731 47.2758 59.2401C47.2641 60.0273 46.2796 60.7334 45.663 61.034C44.8101 61.45 44.0924 61.1887 43.5906 60.433C43.343 60.0602 43.1841 59.6393 42.9883 59.2397C42.7672 58.7883 42.4558 58.3811 42.188 57.9563C41.7886 57.3229 41.42 56.5888 40.8657 56.0711C40.1695 55.4207 39.582 54.6703 38.7428 54.189C37.5959 53.5313 36.2926 53.3638 35.061 52.948C32.2541 52.0005 29.4043 51.8228 26.4586 51.849C25.2241 51.86 23.9495 51.8463 22.729 51.6308C22.0196 51.5056 21.3329 51.3038 20.6329 51.1414C18.5581 50.6601 16.0171 49.952 14.9399 47.9809C14.576 47.315 14.4322 46.7126 14.7396 46.017C15.1356 45.1211 15.6672 44.3477 16.4707 43.7611C17.8868 42.7271 19.6979 42.0717 21.3851 41.5935C23.1484 41.0938 24.9601 40.7574 26.7379 40.3072C27.7359 40.0544 29.4071 39.5045 28.5288 38.2173C27.8266 37.1882 26.5442 36.7213 25.3851 36.4206C22.7924 35.7481 20.0639 36.1602 17.5446 35.1209C16.0708 34.513 14.9167 33.7793 13.9608 32.4877C13.1656 31.4131 12.8159 30.0593 13.2932 28.7513C14.2005 26.2646 17.4562 26.8192 19.4098 25.9331C20.0653 25.6358 20.1929 25.4451 19.9859 24.82C19.5779 23.5877 18.3113 22.7019 17.2307 22.1095C16.4047 21.6568 15.5679 21.1823 14.9084 20.5066C14.2863 19.8693 13.73 19.1279 13.2442 18.3857C12.0715 16.5938 11.465 14.5243 11.6943 12.3801C11.9268 10.2066 14.4719 9.15654 16.4246 9.30379C18.8201 9.48443 20.2676 11.6297 21.5225 13.3841C22.5989 14.8891 23.568 16.4857 24.2706 18.1964C24.9521 19.8559 25.8071 21.3613 26.7288 22.9032C27.2259 23.735 27.8577 24.7827 28.7758 25.2237C29.1757 25.4157 29.8625 25.4281 30.1276 24.9882C30.4452 24.4608 30.3797 23.5098 30.3888 22.9247C30.401 22.1404 30.2993 21.161 30.6244 20.425C30.9901 19.5971 32.119 19.3757 32.9063 19.6623C34.1481 20.1143 35.0068 21.3636 35.3175 22.5903C36.1967 26.062 35.7033 29.6351 36.288 33.135C36.4048 33.8343 36.3493 34.5631 36.6547 35.2166C36.8721 35.6818 37.1984 36.1152 37.5925 36.4508C37.9133 36.7239 38.4576 36.5648 38.7835 36.3672C39.1602 36.1389 39.3119 35.6641 39.4639 35.2771C39.6378 34.8345 39.8452 34.4069 40.0123 33.9615C40.7181 32.0795 41.2536 30.1427 41.8821 28.2356C42.1324 27.4762 42.6949 26.5262 43.5964 26.3824C44.4116 26.2524 45.14 26.0635 45.9505 26.3465C46.4039 26.5048 46.768 26.7508 47.1719 26.9955C47.6641 27.2937 47.9706 27.4925 48.2951 27.9875C48.6844 28.5815 48.9452 29.2508 49.2987 29.868C49.9667 31.0342 50.1357 33.0132 49.7627 34.2939C49.4589 35.337 49.037 36.4123 48.457 37.336C48.078 37.9394 47.506 38.3938 47.1627 39.0295C46.2401 40.738 45.3407 42.4467 44.4978 44.1983C43.7459 45.7609 43.1279 47.4193 43.0064 49.1511C42.9013 50.6503 43.3153 52.1489 43.6949 53.5805C43.9269 54.4551 44.2045 55.3192 44.5893 56.1427Z" fill="#ECAA1E"/>
<path d="M40.8021 55.2875C41.0473 55.7011 41.2674 56.1169 41.4992 56.5287C41.7274 56.801 41.9212 57.1196 42.1245 57.3923C42.4981 57.8938 42.7868 58.3968 43.1196 58.921C43.6767 59.7983 44.0183 62.2939 45.6426 61.8115C47.3235 61.3122 46.5686 58.981 45.9002 57.9189C45.2756 56.9263 44.3779 56.125 43.7266 55.1465C43.3238 54.5413 42.7621 54.092 42.3872 53.4534C41.7356 52.3437 40.9035 51.3452 40.2629 50.224C39.032 48.0697 38.2454 44.9657 39.6081 42.6232C40.4747 41.1333 42.0384 40.1928 42.9413 38.7317C43.5096 37.8122 43.9443 36.8856 44.2203 35.8422C44.4273 35.06 44.3797 34.0763 44.3909 33.2618C44.3999 32.6128 44.0548 33.1284 43.9393 33.392C43.6133 34.1356 43.6602 34.9705 43.4637 35.7502C42.9073 37.9588 40.9253 39.347 39.4586 40.9694C38.5664 41.9562 37.8247 43.1133 37.6964 44.4556C37.6509 44.9318 37.7072 45.3466 37.912 45.7847C37.9775 45.9249 37.6908 45.3333 37.641 45.2622C37.023 44.3786 36.3539 43.6556 36.0031 42.6157C35.0504 39.7911 34.5638 36.8196 33.6081 33.9816C32.4565 31.0587 32.7 28.9407 32.7898 27.7697C32.8547 26.9233 32.189 27.2178 31.9297 28.0254C31.6304 28.9579 31.6475 29.736 31.8497 30.696C31.9609 31.2234 32.0287 31.7563 32.1457 32.2828C32.186 32.4643 32.3448 33.5154 32.3046 33.462C31.9408 32.9797 31.4268 32.598 30.9973 32.1714C30.7825 31.9581 30.5638 31.7627 30.3396 31.5773C29.5541 30.9275 28.7392 30.3095 28.0132 29.5949C26.3448 27.9529 25.4048 26.8408 24.2882 24.949C23.4203 23.4783 21.5984 21.4752 20.6946 20.0246C19.71 18.4442 18.8651 16.7762 17.7227 15.2962C17.541 15.0608 17.873 15.7757 17.9763 16.0535C18.2719 16.849 18.861 18.3224 18.9562 18.675C21.1261 23.7285 23.8747 27.0585 27.5165 30.7625C27.9137 31.1665 28.3982 31.595 28.4057 32.1571C28.4069 32.2414 27.8649 31.9742 27.8037 31.956C27.2961 31.8047 26.7614 31.7297 26.2399 31.6423C25.4865 31.516 24.6837 31.4635 23.9569 31.2201C20.8813 30.1904 13.2349 29.3195 19.0538 31.4376C20.1556 31.8387 21.1901 32.1239 22.3601 32.3044C24.452 32.6272 26.6968 32.6759 28.7332 33.2774C30.0233 33.6584 32.5229 35.1864 32.9917 36.439C33.5647 37.9701 33.3163 38.1908 33.8463 39.7369C34.2076 40.7911 34.1938 42.708 34.8472 43.623C35.2935 44.2478 35.6338 44.9348 36.1327 45.5249C36.2397 45.6515 36.5626 46.1771 36.3994 46.3435C36.2647 46.4807 34.8325 45.7208 34.625 45.6555C33.2056 45.2089 31.7048 45.05 30.2831 44.6042C28.5853 44.0719 26.2644 42.7818 24.722 44.2815C23.8282 45.1506 26.04 45.5402 26.5331 45.6202C27.8642 45.8362 29.1998 46.0035 30.5461 46.0918C31.6739 46.1659 32.9051 46.2525 34.0021 46.5351C35.582 46.9422 36.7281 47.7719 37.6428 49.0899C38.3498 50.1087 39.3172 51.1065 39.6327 52.3275C39.7553 52.8021 39.9975 53.2198 40.1443 53.6892C40.3282 54.2771 40.4853 54.7533 40.8021 55.2875Z" fill="#E14938"/>
<path d="M42.9085 58.8982C42.6725 58.3933 42.3985 57.9491 42.0834 57.4856C41.5967 56.7697 41.2394 56.025 40.8021 55.2875C40.4853 54.7533 40.3282 54.2771 40.1443 53.6892C39.9975 53.2198 39.7553 52.8021 39.6327 52.3275C39.3172 51.1065 38.3498 50.1087 37.6428 49.0899C36.7281 47.7719 35.582 46.9422 34.0021 46.5351C32.9051 46.2525 31.6739 46.1659 30.5461 46.0918C29.1998 46.0035 27.8642 45.8362 26.5331 45.6202C26.04 45.5402 23.8282 45.1506 24.722 44.2815C26.2644 42.7818 28.5853 44.0719 30.2831 44.6042C31.7048 45.05 33.2056 45.2089 34.625 45.6555C34.8325 45.7208 36.2647 46.4807 36.3994 46.3435C36.5626 46.1771 36.2397 45.6515 36.1327 45.5249C35.6338 44.9348 35.2935 44.2478 34.8472 43.623C34.1938 42.708 34.2076 40.7911 33.8463 39.7369C33.3163 38.1908 33.5647 37.9701 32.9917 36.439C32.5229 35.1864 30.0233 33.6584 28.7332 33.2774C26.6968 32.6759 24.452 32.6272 22.3601 32.3044C21.1901 32.1239 20.1556 31.8387 19.0538 31.4376C13.2349 29.3195 20.8813 30.1904 23.9569 31.2201C24.6837 31.4635 25.4865 31.516 26.2399 31.6423C26.7614 31.7297 27.2961 31.8047 27.8037 31.956C27.8649 31.9742 28.4069 32.2414 28.4057 32.1571V32.1571C28.3982 31.595 27.9137 31.1665 27.5165 30.7625C23.8747 27.0585 21.1261 23.7285 18.9562 18.675C18.861 18.3224 18.2719 16.849 17.9763 16.0535C17.873 15.7757 17.541 15.0608 17.7227 15.2962V15.2962C18.8651 16.7762 19.71 18.4442 20.6946 20.0246C21.5984 21.4752 23.4203 23.4783 24.2882 24.949C25.4048 26.8408 26.3448 27.9529 28.0132 29.5949C28.7392 30.3095 29.5541 30.9275 30.3396 31.5773C30.5638 31.7627 30.7825 31.9581 30.9973 32.1714C31.4268 32.598 31.9408 32.9797 32.3046 33.462C32.3448 33.5154 32.186 32.4643 32.1457 32.2828C32.0287 31.7563 31.9609 31.2234 31.8497 30.696C31.6475 29.736 31.6304 28.9579 31.9297 28.0254V28.0254C32.189 27.2178 32.8547 26.9233 32.7898 27.7697C32.7 28.9407 32.4565 31.0587 33.6081 33.9816C34.5638 36.8196 35.0504 39.7911 36.0031 42.6157C36.3539 43.6556 37.023 44.3786 37.641 45.2622C37.6908 45.3333 37.9775 45.9249 37.912 45.7847C37.7072 45.3466 37.6509 44.9318 37.6964 44.4556C37.8247 43.1133 38.5664 41.9562 39.4586 40.9694C40.9253 39.347 42.9073 37.9588 43.4637 35.7502C43.6602 34.9705 43.6133 34.1356 43.9393 33.392C44.0548 33.1284 44.3999 32.6128 44.3909 33.2618C44.3797 34.0763 44.4273 35.06 44.2203 35.8422C43.9443 36.8856 43.5096 37.8122 42.9413 38.7317C42.0384 40.1928 40.4747 41.1333 39.6081 42.6232C38.2454 44.9657 39.032 48.0697 40.2629 50.224C40.9035 51.3452 41.7356 52.3437 42.3872 53.4534C42.7621 54.092 43.3238 54.5413 43.7266 55.1465C44.3779 56.125 45.2756 56.9263 45.9002 57.9189C46.5686 58.981 47.3235 61.3122 45.6426 61.8115C44.0183 62.2939 43.6767 59.7983 43.1196 58.921C42.7868 58.3968 42.4981 57.8938 42.1245 57.3923C41.7996 56.9563 41.4986 56.4032 41.0434 56.1089" stroke="#E14938" stroke-width="0.408608" stroke-linecap="round" stroke-linejoin="round"/>
</svg>
