<svg width="1440" height="420" viewBox="0 0 1440 420" fill="none" xmlns="http://www.w3.org/2000/svg">
<path d="M54.3372 62.9231C42.6708 66.2564 16.0039 71.2563 -2.32935 72.923C-36.7735 147.367 -106.328 297.921 -108.995 304.588C-111.662 311.254 957.663 384.031 1492.66 419.587C1487.1 304.032 1471.66 70.923 1454.33 62.9231C1432.66 52.9232 1417.66 62.9231 1372.66 62.9231C1327.66 62.9231 1332.66 72.923 1192.66 82.9229C1052.66 92.9228 1079.01 88.4347 1031 82.9229C985.114 77.6564 985.313 76.6614 940.996 72.923C898.298 69.3211 904.921 71.4163 871.587 61.4164C838.254 51.4165 848.086 46.7475 794.753 46.7475C769.343 46.7475 737.301 57.9962 702.74 69.1568C686.879 74.2783 616.311 82.9229 601.311 82.9229H569.333C560.999 82.9229 436.65 78.7261 406.65 77.0594C376.65 75.3928 277.676 54.2174 252.676 39.2175C227.676 24.2177 153.531 39.2174 140.198 39.2174C126.865 39.2174 66.0035 59.5898 54.3372 62.9231Z" fill="#203039"/>
<path d="M-12.2783 82.2348C-7.23024 79.206 47.2891 73.1483 55.3657 70.1195C63.4424 67.0907 99.7883 55.985 113.923 52.9562C128.057 49.9273 152.288 42.8601 174.499 42.8601C196.711 42.8601 219.932 32.764 240.124 42.8601C256.278 50.9369 301.374 64.3984 321.902 70.1195L362.287 76.1772C378.104 78.8695 414.181 85.0617 431.95 88.2925C454.161 92.3309 497.574 92.3309 523.824 93.3405C550.074 94.3501 582.381 93.3405 593.487 93.3405C604.593 93.3405 636.9 94.3501 651.035 88.2925C665.169 82.2348 673.246 82.2348 698.486 76.1772C723.727 70.1195 744.928 65.0715 751.996 62.0427C759.063 59.0138 773.197 52.9562 792.38 52.9562C811.563 52.9562 817.62 47.9081 854.976 62.0427C892.331 76.1772 923.629 76.1772 941.802 76.1772C956.341 76.1772 1042.09 87.6194 1083.15 93.3405M-12.2783 93.3405C-4.53797 91.6578 13.9715 88.2925 26.0869 88.2925C41.231 88.2925 63.8816 82.2348 67.1291 82.2348C69.7271 82.2348 95.9239 74.1579 108.698 70.1195C120.389 67.4272 145.59 62.0427 152.864 62.0427C161.957 62.0427 182.741 58.7863 193.783 58.1368C204.825 57.4873 221.486 58.1368 230.805 58.1368C240.124 58.1368 252.888 64.0619 267.177 70.1195C281.467 76.1772 312.326 82.2348 321.902 82.2348C331.479 82.2348 363.305 93.3405 373.047 93.3405C382.79 93.3405 389.934 88.9243 406.822 93.3405C423.709 97.7567 440.596 98.4063 450.339 99.7053C460.081 101.004 527.63 104.252 544.517 104.252C561.404 104.252 571.147 104.252 603.622 104.252C636.098 104.252 670.869 93.3405 676.24 93.3405C680.536 93.3405 711.45 81.8983 726.369 76.1772C743.341 71.4657 778.158 62.0427 781.652 62.0427C786.02 62.0427 797.251 62.0427 817.843 62.0427C838.434 62.0427 854.033 64.0619 865.265 70.1195C876.496 76.1772 955.118 83.2444 972.589 88.2925C986.566 92.3309 1042.89 100.615 1069.31 104.252M-12.2783 108.206C-5.18377 104.252 29.135 99.7053 40.3666 99.7053C49.3519 99.7053 76.5573 95.4621 89.0368 93.3405C99.4365 89.6386 121.234 82.2348 125.228 82.2348C130.219 82.2348 152.059 76.1772 157.05 76.1772C162.042 76.1772 173.898 70.1195 189.497 70.1195C205.097 70.1195 223.067 76.1772 226.936 76.1772C230.805 76.1772 241.287 82.2348 250.647 82.2348C260.007 82.2348 262.503 83.2444 277.478 88.2925C292.454 93.3405 286.214 86.9758 308.677 93.3405C331.14 99.7053 324.276 95.1587 350.483 99.7053C376.69 104.252 389.17 108.206 400.402 108.206C411.633 108.206 408.513 108.206 427.233 108.206C445.952 108.206 439.088 104.462 465.295 108.206C491.502 111.95 495.87 112.574 515.837 112.574C535.805 112.574 522.077 112.574 549.532 112.574C576.987 112.574 578.788 108.83 593.487 112.574C608.186 116.318 669.416 108.206 676.24 108.206C683.063 108.206 696.791 98.3886 707.399 93.3405C718.006 88.2925 742.341 76.1772 757.941 76.1772C773.54 76.1772 780.645 70.1195 792.38 70.1195C804.115 70.1195 816.595 64.0619 829.698 70.1195C842.802 76.1772 937.022 83.2444 945.134 88.2925C951.623 92.3309 991.932 100.615 1011.28 104.252M-5.80775 112.574C-2.68786 112.574 32.8789 112.574 40.3666 112.574C47.8543 112.574 84.669 108.206 89.0368 108.206C93.4047 108.206 108.234 108.798 113.923 104.252C118.474 100.615 137.499 95.4621 146.443 93.3405C148.107 91.6578 157.3 88.2925 180.762 88.2925C210.088 88.2925 209.465 83.2444 226.936 88.2925C244.407 93.3405 248.775 99.7053 263.127 99.7053C277.478 99.7053 275.606 103.838 295.573 108.206C315.541 112.574 314.293 108.83 335.508 112.574C356.723 116.318 398.805 115.07 415.377 117.566C431.95 120.062 454.688 123.181 473.407 123.181C492.126 123.181 496.494 123.181 515.837 123.181C535.181 123.181 530.813 123.181 549.532 123.181C568.252 123.181 582.951 120.062 588.219 123.181C593.487 126.301 610.058 126.925 639.385 126.925C668.712 126.925 692.6 122.557 695.543 117.566C698.486 112.574 716.134 99.7053 722.998 99.7053C729.862 99.7053 746.051 88.2925 751.996 88.2925C757.941 88.2925 778.532 82.2348 787.268 82.2348C796.003 82.2348 804.421 79.9748 829.698 82.2348C849.92 84.0428 861.835 87.0266 865.265 88.2925C878.368 92.0967 909.318 99.7053 928.287 99.7053C951.998 99.7053 956.99 95.9298 972.589 104.252M-12.2783 123.181C-0.191948 123.181 -8.30366 123.181 17.9034 123.181C44.1105 123.181 37.8707 123.181 59.7099 123.181C81.5491 123.181 81.5491 128.797 89.0368 123.181C96.5246 117.566 95.3497 122.557 104.636 117.566C113.923 112.574 118.364 116.942 125.228 112.574C132.091 108.206 148.678 104.252 152.864 104.252C157.05 104.252 167.74 108.798 180.762 104.252C193.783 99.7053 194.489 95.1587 210.712 99.7053C226.936 104.252 229.601 103.838 240.124 108.206C250.647 112.574 256.877 107.582 267.177 112.574C277.478 117.566 298.693 123.181 303.685 123.181C308.677 123.181 320.533 126.925 335.508 126.925C350.483 126.925 377.675 133.165 406.822 133.165C435.968 133.165 447.2 133.165 465.295 133.165C483.391 133.165 492.875 133.165 508.35 133.165C523.824 133.165 537.677 129.421 553.9 133.165C570.124 136.909 597.811 138.781 603.622 138.781C609.434 138.781 630.025 138.781 646.873 138.781C663.72 138.781 663.8 145.021 676.24 141.901C688.679 138.781 714.886 130.669 722.998 126.925C731.11 123.181 766.052 117.566 769.796 117.566C773.54 117.566 791.012 117.566 798.499 117.566C805.987 117.566 809.731 112.574 826.578 112.574C843.426 112.574 842.802 112.574 868.385 112.574C893.968 112.574 895.216 111.95 904.576 117.566C913.935 123.181 943.886 126.925 948.878 126.925M-12.2783 138.781C1.67999 138.781 2.92794 131.293 21.6473 138.781C40.3666 146.269 76.5573 144.397 82.7971 138.781C89.0368 133.165 99.4982 130.669 113.923 126.925C128.347 123.181 142.438 123.181 152.864 123.181C163.29 123.181 190.121 120.686 203.849 126.925C214.831 131.917 245.031 126.509 258.759 123.181C272.278 124.637 302.936 128.672 317.413 133.165C335.508 138.781 347.259 144.397 362.287 145.645C377.314 146.893 403.522 148.765 415.377 148.765C427.233 148.765 457.184 148.765 465.295 148.765C471.785 148.765 501.694 144.189 515.837 141.901H523.824C549.033 141.901 601.073 141.901 607.562 141.901C615.674 141.901 642.465 148.765 659.352 148.765C676.24 148.765 688.428 148.765 707.399 148.765C726.369 148.765 739.187 152.508 751.996 145.645C764.805 138.781 751.701 133.165 781.652 133.165C811.603 133.165 825.954 126.925 834.066 126.925C842.178 126.925 837.199 126.925 854.976 126.925C872.753 126.925 880.864 120.686 883.984 126.925C886.48 131.917 890.848 133.165 892.72 133.165L951.998 148.765M-5.80775 141.901C4.17589 145.645 -8.92763 148.765 11.6636 148.765C32.2549 148.765 21.6946 148.765 55.3657 148.765C89.0368 148.765 85.9169 155.628 101.516 148.765C117.116 141.901 115.868 145.021 125.228 141.901C134.587 138.781 124.604 133.165 146.443 133.165C168.282 133.165 172.486 127.549 193.783 133.165C215.08 138.781 213.832 141.901 236.296 141.901C258.759 141.901 242.535 141.901 273.11 141.901C303.685 141.901 310.549 135.037 330.516 141.901C350.483 148.765 360.044 155.628 373.047 156.876C386.05 158.124 392.565 153.756 412.257 156.876C431.95 159.996 472.783 157.5 488.382 153.132C503.982 148.765 505.23 151.884 532.685 148.765C560.14 145.645 570.471 145.645 581.979 145.645C593.487 145.645 598.203 153.132 622.538 153.132C646.873 153.132 644.377 156.876 666.84 156.876C689.303 156.876 689.927 153.132 712.39 156.876C734.854 160.62 776.036 153.132 781.652 153.132C787.268 153.132 840.93 138.157 860.897 141.901C880.864 145.645 923.919 153.132 928.287 156.876M-5.80775 160.62C4.17589 160.62 12.2876 160.62 30.3829 160.62C48.4783 160.62 42.8625 160.62 59.7099 160.62C76.5573 160.62 67.1976 160.62 82.7971 160.62C98.3965 160.62 117.74 160.62 121.484 160.62C125.228 160.62 123.98 153.132 130.843 153.132C137.707 153.132 139.601 148.765 157.05 148.765C174.499 148.765 176.854 148.765 193.783 148.765C210.712 148.765 205.971 153.132 230.805 153.132C255.639 153.132 258.759 160.62 273.11 160.62C287.462 160.62 289.958 160.62 303.685 160.62C317.413 160.62 303.061 155.004 339.876 163.74C376.69 172.476 410.385 163.74 437.84 163.74C465.295 163.74 474.031 170.604 488.382 163.74C502.734 156.876 504.606 156.876 527.069 156.876C549.532 156.876 558.892 157.5 578.859 160.62C598.826 163.74 617.506 163.74 646.873 163.74C676.24 163.74 694.295 163.74 712.39 163.74C730.486 163.74 794.755 156.876 798.499 156.876C802.243 156.876 837.81 155.004 860.897 160.62" stroke="#969D8D"/>
<g filter="url(#filter0_d)">
<path d="M400.207 77.2504C400.207 76.1882 399.263 69.8155 399.381 66.9832C399.499 64.1509 400.207 64.0329 400.207 62.1447C400.207 60.2565 401.033 57.0702 400.207 53.7658C399.381 50.4614 399.263 49.6353 400.207 46.0949C401.151 42.5546 402.685 40.9024 402.213 38.3061C401.741 35.7098 399.381 29.9272 399.381 29.9272C397.689 29.1404 393.881 27.2365 392.182 25.9147C390.058 24.2625 386.045 21.5482 384.747 20.8402C383.449 20.1321 377.549 17.8898 376.958 17.0637C376.368 16.2376 381.069 16.4364 381.069 16.4364C381.293 15.4293 381.824 13.7172 382.16 14.9257C382.58 16.4364 382.999 17.7792 383.419 18.1149C383.839 18.4506 387.196 20.2923 388.706 20.8402C390.217 21.388 394.329 24.5772 395.336 24.9129C396.344 25.2487 396.549 25.154 399.381 25.9147C402.213 26.6754 401.715 27.6825 404.233 27.0111C404.429 26.3397 404.703 24.7954 404.233 23.9898C403.645 22.9826 403.524 22.7574 403.453 22.4726C403.382 22.1878 402.782 19.9808 404.233 18.3197C405.684 16.6585 407.44 17.1568 408.389 18.7468C409.338 20.3368 408.46 21.998 409.528 22.6387C410.596 23.2794 411.925 23.6591 411.925 23.6591C411.506 23.897 410.439 24.3344 409.528 24.1812C408.692 24.0407 407.946 23.902 407.467 23.7818C407.823 23.8999 408.314 24.0665 408.65 24.1812C408.587 24.4577 408.498 25.1011 408.65 25.4627C408.84 25.9147 408.697 27.0111 409.718 27.0111C410.738 27.0111 411.403 26.482 412.352 26.1984C413.301 25.9147 415.2 24.9169 415.508 24.6321C415.817 24.3473 420.63 20.602 421.676 20.1037C422.723 19.6054 426.41 17.3132 426.859 16.9644C427.307 16.6156 428.055 15.6688 428.055 14.6721C428.055 13.6755 427.684 12.1182 428.157 11.9832C428.629 11.8481 428.849 12.7088 429.068 13.2658C429.287 13.8227 429.405 14.0252 429.878 14.0927C430.351 14.1602 430.789 13.9577 431.245 13.5527C431.701 13.1476 434.452 11.2237 433.101 13.4345C431.434 15.7172 428.915 16.7794 427.161 18.2615C425.407 19.7436 421.01 23.0068 420.022 23.8194C419.034 24.6321 414.402 28.2785 413.377 29.9272C412.352 31.5759 411.114 36.7251 410.987 38.5928C410.86 40.4604 412.502 44.7683 412.94 46.0949C413.377 47.4216 414.043 52.3848 413.831 53.7658C413.619 55.1468 413.449 60.6534 413.831 62.1447C414.213 63.636 414.468 65.1277 414.468 66.0555C414.468 66.7977 414.241 71.9676 414.128 74.4598C414.567 75.9879 415.402 79.044 415.232 79.044H411.199C411.482 77.9545 412.023 75.453 411.921 74.1627C411.794 72.5497 410.52 69.7362 410.86 66.9832C410.775 66.4014 410.444 64.619 409.799 62.1447C408.992 59.0518 408.228 56.4429 407.889 55.1043C407.549 53.7658 407.591 52.1331 406.488 52.1331C405.384 52.1331 405.809 54.4676 405.554 55.1043C405.299 55.741 404.705 59.9432 404.365 62.3626C404.026 64.7821 404.365 67.8806 403.856 69.6634C403.347 71.4461 403.262 75.6483 403.262 76.285C403.262 76.9217 402.583 79.044 402.201 79.044C401.895 79.044 400.744 77.8482 400.207 77.2504Z" fill="#FFB5A6"/>
</g>
<defs>
<filter id="filter0_d" x="361.907" y="0.968994" width="86.5637" height="97.075" filterUnits="userSpaceOnUse" color-interpolation-filters="sRGB">
<feFlood flood-opacity="0" result="BackgroundImageFix"/>
<feColorMatrix in="SourceAlpha" type="matrix" values="0 0 0 0 0 0 0 0 0 0 0 0 0 0 0 0 0 0 127 0"/>
<feOffset dy="4"/>
<feGaussianBlur stdDeviation="7.5"/>
<feColorMatrix type="matrix" values="0 0 0 0 0 0 0 0 0 0 0 0 0 0 0 0 0 0 0.25 0"/>
<feBlend mode="normal" in2="BackgroundImageFix" result="effect1_dropShadow"/>
<feBlend mode="normal" in="SourceGraphic" in2="effect1_dropShadow" result="shape"/>
</filter>
</defs>
</svg>
